<svg xmlns="http://www.w3.org/2000/svg" width="45" height="47" viewBox="0 0 45 47">
  <g id="그룹_6" data-name="그룹 6" transform="translate(-2785 -3115)">
    <rect id="사각형_44" data-name="사각형 44" width="45" height="47" transform="translate(2785 3115)" fill="none"/>
    <path id="패스_8" data-name="패스 8" d="M.025,33.106s2.755,4.978,6.089,6.409,10.846.453,8.337-6.409-9.7-15.9-3.345-24.095S29.007-1.028,33.859.478A13.354,13.354,0,0,1,41.054,6.5s-3.346-4.685-8.533-4.35-8.2,2.343-5.019,8.7,8.532,11.711,4.685,18.905-8.868,9.2-8.868,9.2S27.167,34.944,26,30.092,20.7,19.815,20.7,19.815s7.466,16.467-2.739,20.65S-.514,39.8.025,33.106" transform="translate(2786.973 3117.489)" fill="#6aae27"/>
  </g>
</svg>
