<svg width="168" height="40" viewBox="0 0 168 40" fill="none" xmlns="http://www.w3.org/2000/svg">
<g clip-path="url(#clip0_34_998)">
<path d="M49.1445 30.4145C47.9965 30.1201 47.779 29.9239 47.779 29.5862C47.779 29.2485 48.1093 28.9801 48.8948 28.9801C49.4708 28.9801 49.8534 29.1157 50.2723 29.3639L50.6832 29.0032C50.1998 28.7261 49.7084 28.5645 48.935 28.5645C47.8636 28.5645 47.1386 28.957 47.1386 29.615C47.1386 30.2096 47.5575 30.4982 48.7981 30.8157C49.8494 31.087 50.1676 31.3035 50.1676 31.6844C50.1676 32.1203 49.6923 32.3916 48.931 32.3916C48.3389 32.3916 47.8395 32.1953 47.4044 31.898L46.9815 32.2386C47.4326 32.5676 48.1295 32.8101 48.9109 32.8101C50.1072 32.8101 50.812 32.3079 50.812 31.6642C50.812 31.0206 50.4213 30.7464 49.1485 30.4174L49.1445 30.4145Z" fill="white"/>
<path d="M53.4141 29.5946C52.8542 29.5946 52.3467 29.6928 51.9681 29.84L52.2017 30.1979C52.5521 30.0507 52.9227 29.9612 53.3738 29.9612C54.0022 29.9612 54.3083 30.1834 54.3083 30.6452V31.0089C54.0545 30.9079 53.6638 30.8299 53.2328 30.8299C52.3829 30.8299 51.5854 31.1243 51.5854 31.817C51.5854 32.5617 52.2903 32.8041 52.9589 32.8041C53.5792 32.8041 54.0022 32.5963 54.3083 32.3625V32.7406H54.9205V30.5875C54.9205 29.8717 54.3405 29.5889 53.4141 29.5889V29.5946ZM54.3043 31.9873C54.0424 32.2442 53.6235 32.4491 53.0677 32.4491C52.54 32.4491 52.1856 32.25 52.1856 31.791C52.1856 31.4043 52.5642 31.1849 53.1966 31.1849C53.7202 31.1849 54.0223 31.2542 54.3043 31.3639V31.9902V31.9873Z" fill="white"/>
<path d="M61.0993 30.9368V32.7436H61.7116V30.8647C61.7116 29.9642 61.1638 29.5947 60.2857 29.5947C59.5848 29.5947 59.2344 29.8285 58.9806 30.1229C58.7752 29.8285 58.4087 29.5947 57.8005 29.5947C57.2929 29.5947 56.9304 29.7708 56.7089 30.0363V29.6611H56.0886V32.7465H56.7089V30.9397C56.7089 30.2557 57.0754 29.9757 57.6675 29.9757C58.2596 29.9757 58.594 30.2326 58.594 30.9397V32.7465H59.2102V30.9397C59.2102 30.2557 59.5848 29.9757 60.1689 29.9757C60.7892 29.9757 61.0953 30.2326 61.0953 30.9397L61.0993 30.9368Z" fill="white"/>
<path d="M64.1807 30.9483C63.4516 30.7116 63.2341 30.6106 63.2341 30.348C63.2341 30.1229 63.4919 29.967 63.9471 29.967C64.4022 29.967 64.6842 30.0536 65.0185 30.2441L65.3609 29.9179C65.0346 29.7246 64.5754 29.5918 63.9873 29.5918C63.2019 29.5918 62.642 29.9093 62.642 30.3768C62.642 30.8704 63.0005 31.058 63.8665 31.3235C64.6278 31.5573 64.8815 31.6987 64.8815 31.9527C64.8815 32.2529 64.6036 32.4289 64.0115 32.4289C63.5845 32.4289 63.1817 32.3048 62.8394 32.0884L62.4769 32.4087C62.8877 32.6454 63.4033 32.8042 63.9954 32.8042C64.7406 32.8042 65.4696 32.5415 65.4696 31.9325C65.4696 31.3812 64.9943 31.211 64.1766 30.9454L64.1807 30.9483Z" fill="white"/>
<path d="M69.0625 31.4621C69.0625 32.1375 68.5912 32.4232 67.9991 32.4232C67.3063 32.4232 66.9801 32.1259 66.9801 31.4621V29.6582H66.3678V31.5371C66.3678 32.4232 66.968 32.8071 67.8743 32.8071C68.418 32.8071 68.8168 32.6252 69.0625 32.3655V32.7436H69.6788V29.6582H69.0625V31.4621Z" fill="white"/>
<path d="M74.0289 32.7436V30.8647C74.0289 29.9757 73.4287 29.5947 72.5184 29.5947C71.9787 29.5947 71.5759 29.7766 71.3342 30.0363V29.6611H70.7139V32.7465H71.3342V30.9397C71.3342 30.2643 71.7974 29.9757 72.3936 29.9757C73.0823 29.9757 73.4126 30.2759 73.4126 30.9397V32.7465H74.0289V32.7436Z" fill="white"/>
<path d="M75.9663 33.5401L76.1637 33.8749C77.7628 33.8403 78.3428 33.3929 78.3428 32.4636V29.6553H77.7265V30.0016C77.4244 29.7534 77.0539 29.5918 76.5141 29.5918C75.6119 29.5918 74.8868 30.1546 74.8868 31.2485C74.8868 32.3424 75.5716 32.8042 76.4295 32.8042C77.0136 32.8042 77.4244 32.5963 77.7265 32.3626V32.5213C77.7265 33.24 77.4003 33.5113 75.9623 33.5372L75.9663 33.5401ZM76.5906 32.4232C75.9099 32.4232 75.4991 32.0191 75.4991 31.2427C75.4991 30.4144 75.8495 29.9728 76.5665 29.9728C77.078 29.9728 77.4929 30.1777 77.7305 30.4346V31.9787C77.4284 32.25 77.0498 32.4232 76.5906 32.4232Z" fill="white"/>
<path d="M85.1339 30.6569C85.1339 29.2456 84.0222 28.6279 82.5157 28.6279H80.9972V32.7437H82.4029C83.9376 32.7437 85.1339 32.1491 85.1339 30.6569ZM81.6376 29.0435H82.4674C83.7885 29.0435 84.4934 29.6208 84.4934 30.6714C84.4934 31.8547 83.7201 32.3252 82.4835 32.3252H81.6376V29.0435Z" fill="white"/>
<path d="M86.7732 30.0392V29.6583H86.1569V32.7436H86.7732V30.9311C86.7732 30.3423 87.1115 29.9988 87.7117 29.9988C87.9977 29.9988 88.183 30.045 88.3562 30.1172L88.5092 29.6727C88.3642 29.6265 88.1588 29.5977 87.8366 29.5977C87.3734 29.5977 86.9665 29.7968 86.7732 30.0421V30.0392Z" fill="white"/>
<path d="M92.1907 32.4492L91.9007 32.1317C91.506 32.3194 91.212 32.4261 90.7085 32.4261C90.0076 32.4261 89.5686 32.0076 89.5122 31.3525H92.38C92.4002 31.2803 92.4082 31.2168 92.4082 31.1129C92.4082 30.2326 91.796 29.5977 90.6722 29.5977C89.6491 29.5977 88.8959 30.2066 88.8959 31.1851C88.8959 32.4002 89.8545 32.81 90.644 32.81C91.2925 32.81 91.6711 32.6859 92.1907 32.4521V32.4492ZM90.6722 29.9757C91.4254 29.9757 91.7879 30.3942 91.8363 30.9917H89.5122C89.5847 30.3019 90.0318 29.9757 90.6722 29.9757Z" fill="white"/>
<path d="M94.4625 32.807C95.0787 32.807 95.5017 32.5992 95.8038 32.3654V32.7435H96.42V30.5904C96.42 29.8746 95.84 29.5918 94.9136 29.5918C94.3537 29.5918 93.8462 29.6899 93.4676 29.8371L93.6972 30.195C94.0516 30.0478 94.4182 29.9583 94.8693 29.9583C95.5017 29.9583 95.8038 30.1806 95.8038 30.6424V31.006C95.55 30.905 95.1633 30.8271 94.7323 30.8271C93.8784 30.8271 93.0769 31.1215 93.0769 31.8142C93.0769 32.5588 93.7858 32.8013 94.4584 32.8013L94.4625 32.807ZM94.7001 31.1821C95.2237 31.1821 95.5299 31.2514 95.8078 31.361V31.9874C95.546 32.2442 95.1271 32.4491 94.5712 32.4491C94.0476 32.4491 93.6891 32.25 93.6891 31.7911C93.6891 31.4043 94.0718 31.185 94.7001 31.185V31.1821Z" fill="white"/>
<path d="M102.599 30.9368V32.7436H103.215V30.8647C103.215 29.9642 102.667 29.5947 101.789 29.5947C101.092 29.5947 100.738 29.8285 100.488 30.1229C100.283 29.8285 99.9163 29.5947 99.3081 29.5947C98.7965 29.5947 98.438 29.7708 98.2165 30.0363V29.6611H97.6042V32.7465H98.2165V30.9397C98.2165 30.2557 98.5871 29.9757 99.1792 29.9757C99.7713 29.9757 100.11 30.2326 100.11 30.9397V32.7465H100.722V30.9397C100.722 30.2557 101.096 29.9757 101.685 29.9757C102.305 29.9757 102.611 30.2326 102.611 30.9397L102.599 30.9368Z" fill="white"/>
<path d="M49.1445 36.5366C47.9925 36.2422 47.7831 36.0489 47.7831 35.7083C47.7831 35.3677 48.1133 35.1051 48.8988 35.1051C49.4748 35.1051 49.8615 35.2378 50.2763 35.486L50.6872 35.1282C50.2038 34.854 49.7084 34.6895 48.9391 34.6895C47.8636 34.6895 47.1426 35.0762 47.1426 35.74C47.1426 36.3346 47.5615 36.6203 48.8021 36.9378C49.8534 37.212 50.1716 37.4256 50.1716 37.8094C50.1716 38.2424 49.6963 38.5137 48.931 38.5137C48.3389 38.5137 47.8395 38.3174 47.4044 38.0201L46.9815 38.3607C47.4326 38.6897 48.1295 38.9293 48.9109 38.9293C50.1072 38.9293 50.808 38.43 50.808 37.7835C50.808 37.137 50.4173 36.8657 49.1485 36.5366H49.1445Z" fill="white"/>
<path d="M53.4221 36.0977C53.8571 36.0977 54.1431 36.2074 54.4533 36.4094L54.8238 36.0804C54.4855 35.8668 54.0384 35.7139 53.4624 35.7139C52.5601 35.7139 51.6055 36.1959 51.6055 37.3359C51.6055 38.4125 52.4715 38.9262 53.4181 38.9262C54.0223 38.9262 54.4412 38.7617 54.8037 38.4962L54.4331 38.2162C54.1391 38.4211 53.8612 38.5424 53.4423 38.5424C52.681 38.5424 52.2258 38.0546 52.2258 37.2955C52.2258 36.5364 52.7454 36.092 53.4181 36.092L53.4221 36.0977Z" fill="white"/>
<path d="M57.4541 35.7163C56.9143 35.7163 56.5075 35.8981 56.2618 36.1579V34.709H55.6496V38.8709H56.2618V37.0641C56.2618 36.3888 56.7331 36.1001 57.3292 36.1001C58.022 36.1001 58.3483 36.3974 58.3483 37.0641V38.8709H58.9645V36.9862C58.9645 36.1001 58.3644 35.7163 57.4541 35.7163Z" fill="white"/>
<path d="M61.7116 35.7168C60.6643 35.7168 59.8305 36.2796 59.8305 37.3273C59.8305 38.375 60.6321 38.932 61.6794 38.932C62.7266 38.932 63.5684 38.3519 63.5684 37.3042C63.5684 36.2565 62.7588 35.7168 61.7116 35.7168ZM61.6995 38.5482C60.9503 38.5482 60.4468 38.1268 60.4468 37.3158C60.4468 36.5047 60.9503 36.1007 61.6995 36.1007C62.4487 36.1007 62.9522 36.5047 62.9522 37.3158C62.9522 38.1268 62.4446 38.5482 61.6995 38.5482Z" fill="white"/>
<path d="M65.1111 34.7061H64.4948V38.868H65.1111V34.7061Z" fill="white"/>
<path d="M67.9266 35.7168C67.3668 35.7168 66.8592 35.8178 66.4846 35.965L66.7142 36.3258C67.0687 36.1786 67.4393 36.0891 67.8904 36.0891C68.5187 36.0891 68.8249 36.3142 68.8249 36.7703V37.1368C68.5711 37.0358 68.1844 36.9579 67.7534 36.9579C66.8995 36.9579 66.102 37.2523 66.102 37.9478C66.102 38.6925 66.8069 38.932 67.4795 38.932C68.0958 38.932 68.5187 38.7271 68.8249 38.4933V38.8714H69.4411V36.7212C69.4411 35.9996 68.8571 35.7197 67.9307 35.7197L67.9266 35.7168ZM68.8208 38.1095C68.563 38.3635 68.1361 38.5713 67.5843 38.5713C67.0606 38.5713 66.7062 38.3721 66.7062 37.9132C66.7062 37.5236 67.0848 37.31 67.7172 37.31C68.2408 37.31 68.5429 37.3735 68.8208 37.486V38.1095Z" fill="white"/>
<path d="M71.2255 36.1641V35.7773H70.6092V38.8656H71.2255V37.053C71.2255 36.4671 71.5558 36.1179 72.16 36.1179C72.45 36.1179 72.6353 36.1641 72.8085 36.2362L72.9655 35.7889C72.8165 35.7427 72.6151 35.7109 72.2929 35.7109C71.8337 35.7109 71.4188 35.9101 71.2295 36.1612L71.2255 36.1641Z" fill="white"/>
<path d="M75.3259 37.0733C74.5969 36.8366 74.3753 36.7299 74.3753 36.473C74.3753 36.2507 74.6371 36.092 75.0883 36.092C75.5394 36.092 75.8294 36.1815 76.1637 36.3691L76.5061 36.0458C76.1758 35.8524 75.7206 35.7168 75.1285 35.7168C74.3471 35.7168 73.7792 36.0343 73.7792 36.5047C73.7792 36.9752 74.1417 37.1859 75.0037 37.4485C75.7649 37.6823 76.0187 37.8266 76.0187 38.0777C76.0187 38.3808 75.7408 38.5539 75.1527 38.5539C74.7217 38.5539 74.323 38.4298 73.9766 38.2134L73.6181 38.5366C74.0289 38.7733 74.5445 38.9292 75.1366 38.9292C75.8818 38.9292 76.6108 38.6636 76.6108 38.0604C76.6108 37.5062 76.1355 37.3388 75.3219 37.0733H75.3259Z" fill="white"/>
<path d="M79.4223 35.7163C78.8745 35.7163 78.4757 35.8981 78.23 36.1579V34.709H77.6137V38.8709H78.23V37.0641C78.23 36.3888 78.6972 36.1001 79.2974 36.1001C79.9862 36.1001 80.3124 36.3974 80.3124 37.0641V38.8709H80.9287V36.9862C80.9287 36.1001 80.3326 35.7163 79.4223 35.7163Z" fill="white"/>
<path d="M82.7574 35.7773H82.1451V38.8656H82.7574V35.7773Z" fill="white"/>
<path d="M82.4633 34.5996C82.2136 34.5996 82.0162 34.741 82.0162 34.92C82.0162 35.0989 82.2136 35.2317 82.4633 35.2317C82.6929 35.2317 82.8903 35.0874 82.8903 34.92C82.8903 34.741 82.6929 34.5996 82.4633 34.5996Z" fill="white"/>
<path d="M85.9112 35.7168C85.3312 35.7168 84.9204 35.9246 84.6143 36.1584V35.7803H83.998V40.0028H84.6143V38.5222C84.9164 38.7675 85.2869 38.932 85.8307 38.932C86.7289 38.932 87.4539 38.3663 87.4539 37.2753C87.4539 36.1844 86.7692 35.7168 85.9112 35.7168ZM85.7783 38.5482C85.2708 38.5482 84.8519 38.3432 84.6143 38.0835V36.5423C84.9164 36.2738 85.295 36.0978 85.7542 36.0978C86.4389 36.0978 86.8497 36.5018 86.8497 37.2782C86.8497 38.1066 86.4953 38.5453 85.7824 38.5453L85.7783 38.5482Z" fill="white"/>
<path d="M90.7125 35.1685H93.4434V34.7529H90.0721V38.8687H90.7125V36.9493H92.2874V36.5337H90.7125V35.1685Z" fill="white"/>
<path d="M95.3124 35.7168C94.2651 35.7168 93.4273 36.2796 93.4273 37.3273C93.4273 38.375 94.2329 38.932 95.2801 38.932C96.3274 38.932 97.1692 38.3519 97.1692 37.3042C97.1692 36.2565 96.3677 35.7168 95.3124 35.7168ZM95.3003 38.5482C94.5511 38.5482 94.0557 38.1268 94.0557 37.3158C94.0557 36.5047 94.5551 36.1007 95.3003 36.1007C96.0455 36.1007 96.557 36.5047 96.557 37.3158C96.557 38.1268 96.0495 38.5482 95.3003 38.5482Z" fill="white"/>
<path d="M100.565 37.5841C100.565 38.2595 100.102 38.5481 99.5014 38.5481C98.8126 38.5481 98.4823 38.2508 98.4823 37.5841V35.7773H97.8701V37.6592C97.8701 38.5452 98.4702 38.9291 99.3806 38.9291C99.9163 38.9291 100.319 38.7501 100.565 38.4904V38.8685H101.185V35.7802H100.565V37.587V37.5841Z" fill="white"/>
<path d="M104.021 35.7168C103.481 35.7168 103.078 35.8986 102.832 36.1583V35.7803H102.216V38.8685H102.832V37.0617C102.832 36.3864 103.3 36.0977 103.9 36.0977C104.589 36.0977 104.915 36.395 104.915 37.0617V38.8685H105.531V36.9838C105.531 36.0977 104.931 35.7139 104.021 35.7139V35.7168Z" fill="white"/>
<path d="M109.233 36.129C108.927 35.8807 108.56 35.7133 108.016 35.7133C107.114 35.7133 106.393 36.2762 106.393 37.3729C106.393 38.4697 107.074 38.9286 107.936 38.9286C108.52 38.9286 108.927 38.7237 109.229 38.4899V38.868H109.845V34.7061H109.229V36.129H109.233ZM109.233 38.1031C108.927 38.3715 108.552 38.5476 108.093 38.5476C107.412 38.5476 107.001 38.1435 107.001 37.3671C107.001 36.5359 107.352 36.0972 108.069 36.0972C108.576 36.0972 108.991 36.3021 109.233 36.5619V38.1002V38.1031Z" fill="white"/>
<path d="M112.455 35.7168C111.899 35.7168 111.392 35.8178 111.013 35.965L111.239 36.3258C111.593 36.1786 111.964 36.0891 112.415 36.0891C113.043 36.0891 113.345 36.3142 113.345 36.7703V37.1368C113.092 37.0358 112.705 36.9579 112.27 36.9579C111.42 36.9579 110.622 37.2523 110.622 37.9478C110.622 38.6925 111.331 38.932 112.004 38.932C112.62 38.932 113.043 38.7271 113.345 38.4933V38.8714H113.962V36.7212C113.962 35.9996 113.382 35.7197 112.451 35.7197L112.455 35.7168ZM113.349 38.1095C113.088 38.3635 112.673 38.5713 112.109 38.5713C111.589 38.5713 111.239 38.3721 111.239 37.9132C111.239 37.5236 111.613 37.31 112.246 37.31C112.769 37.31 113.075 37.3735 113.349 37.486V38.1095Z" fill="white"/>
<path d="M115.927 34.7061H115.307V35.7768H114.775V36.1492H115.307V38.2301C115.307 38.741 115.597 38.9257 116.133 38.9257C116.455 38.9257 116.684 38.8911 116.922 38.8218L116.966 38.4408C116.769 38.4985 116.608 38.5274 116.358 38.5274C116.032 38.5274 115.927 38.4322 115.927 38.158V36.1492H116.995V35.7768H115.927V34.7061Z" fill="white"/>
<path d="M118.392 34.5996C118.139 34.5996 117.937 34.741 117.937 34.92C117.937 35.0989 118.139 35.2317 118.392 35.2317C118.622 35.2317 118.815 35.0874 118.815 34.92C118.815 34.741 118.618 34.5996 118.392 34.5996Z" fill="white"/>
<path d="M118.686 35.7773H118.07V38.8656H118.686V35.7773Z" fill="white"/>
<path d="M121.498 35.7168C120.451 35.7168 119.613 36.2796 119.613 37.3273C119.613 38.375 120.414 38.932 121.466 38.932C122.517 38.932 123.351 38.3519 123.351 37.3042C123.351 36.2565 122.545 35.7168 121.498 35.7168ZM121.482 38.5482C120.737 38.5482 120.233 38.1268 120.233 37.3158C120.233 36.5047 120.737 36.1007 121.482 36.1007C122.227 36.1007 122.738 36.5047 122.738 37.3158C122.738 38.1268 122.231 38.5482 121.482 38.5482Z" fill="white"/>
<path d="M126.045 35.7168C125.506 35.7168 125.103 35.8986 124.853 36.1583V35.7803H124.237V38.8685H124.853V37.0617C124.853 36.3864 125.32 36.0977 125.92 36.0977C126.609 36.0977 126.94 36.395 126.94 37.0617V38.8685H127.552V36.9838C127.552 36.0977 126.952 35.7139 126.045 35.7139V35.7168Z" fill="white"/>
<path d="M70.6777 20.5264C68.2046 20.5293 66.1664 21.9146 66.1664 23.6521C66.1664 25.3896 68.2046 26.7606 70.6777 26.7664C73.175 26.7606 75.193 25.3723 75.193 23.6521C75.193 21.932 73.175 20.5293 70.6777 20.5264ZM70.6173 25.3406C69.3243 25.3406 68.3496 24.5844 68.3496 23.6521C68.3496 22.7199 69.3928 21.9493 70.6817 21.9493C71.9707 21.9493 72.9776 22.7055 72.9776 23.6521C72.9776 24.5988 71.9223 25.3406 70.6213 25.3406H70.6173Z" fill="white"/>
<path d="M49.9783 18.3757C50.6671 18.8635 51.4565 19.2906 52.2339 19.5648L52.3145 19.5966L53.6477 18.4681L53.5188 18.4161C52.2541 17.9255 51.2632 17.3049 50.6147 16.5228C49.9702 15.7521 49.6399 14.8574 49.6399 13.7866V12.7822H47.2554V13.6798C47.2554 14.8401 46.8889 15.7521 46.2001 16.5516C45.4308 17.4377 44.2909 18.1506 42.8328 18.8115L42.7039 18.8692L44.1499 19.9429L44.2305 19.9112C45.0924 19.5764 46.0068 19.0597 46.8003 18.4825C47.489 17.9774 48.0852 17.4377 48.4477 16.9268C48.7981 17.429 49.3338 17.9399 49.9783 18.3786V18.3757Z" fill="white"/>
<path d="M47.3964 26.027H57.3775V21.1406H47.3964V26.027ZM49.6399 22.5202H55.134V24.6474H49.6399V22.5202Z" fill="white"/>
<path d="M80.675 26.027H91.9612V21.1406H80.675V26.027ZM82.8944 22.5202H89.7458V24.6474H82.8944V22.5202Z" fill="white"/>
<path d="M57.4178 12.4941H55.1985V20.5813H57.4178V17.0024H60.0158V15.5651H57.4178V12.4941Z" fill="white"/>
<path d="M103.433 18.789C104.162 19.2422 104.995 19.6232 105.781 19.8685L105.861 19.8945L107.062 18.7313L106.933 18.6851C105.789 18.2666 104.77 17.7471 104.037 17.1122C103.292 16.4656 102.849 15.6864 102.849 14.7484V14.4742H106.151V13.083H97.1854V14.4742H100.484V14.809C100.484 15.6633 100.089 16.4599 99.4329 17.1497C98.6636 17.978 97.5398 18.6447 96.4483 19.0777L96.3033 19.1325L97.7775 20.2264L97.858 20.1975C98.6515 19.8743 99.5296 19.3865 100.279 18.8381C100.879 18.3879 101.419 17.9116 101.749 17.4354C102.148 17.8972 102.76 18.359 103.437 18.789H103.433Z" fill="white"/>
<path d="M119.484 22.5525H127.552V26.0246H129.791V21.1729H119.484V22.5525Z" fill="white"/>
<path d="M125.05 16.9907C125.05 16.2258 124.571 15.5216 123.862 14.9848H126.078V13.608H121.848V12.0928H119.444V13.608H115.114V14.9848H117.377C116.684 15.5216 116.205 16.2201 116.205 16.9907C116.205 18.6964 118.167 20.0818 120.62 20.0876C123.073 20.0818 125.046 18.6964 125.05 16.9907ZM118.344 16.9272C118.344 15.9834 119.456 15.1839 120.62 15.1839C121.784 15.1839 122.891 15.9863 122.895 16.9272C122.895 17.8565 121.784 18.6589 120.62 18.6618C119.452 18.6589 118.348 17.8565 118.344 16.9272Z" fill="white"/>
<path d="M129.791 12.4941H127.576V20.6102H129.791V17.5133H132.397V16.0759H129.791V12.4941Z" fill="white"/>
<path d="M110.993 12.4941H108.778V20.6102H110.993V17.0024H113.595V15.5651H110.993V12.4941Z" fill="white"/>
<path d="M73.3885 14.9012H69.9003V16.3241H73.3885V20.867H75.6079V12.4941H73.3885V14.9012Z" fill="white"/>
<path d="M67.7534 18.5864C68.4462 19.0713 69.2558 19.4984 70.0292 19.7871L70.1138 19.8217L71.447 18.6932L71.3181 18.6412C70.0534 18.165 69.0826 17.5474 68.4301 16.7767C67.7695 16.0119 67.4393 15.0825 67.4393 14.0118V12.7822H65.0507V13.9078C65.0507 15.0681 64.6882 15.9773 64.0155 16.7623C63.2502 17.6628 62.0862 18.3815 60.6281 19.0366L60.5032 19.0944L61.9573 20.1709L62.0298 20.1363C62.8877 19.7986 63.7819 19.3108 64.5754 18.7538C65.2924 18.2429 65.8885 17.6859 66.251 17.1519C66.5934 17.6397 67.117 18.1361 67.7534 18.5893V18.5864Z" fill="white"/>
<path d="M106.236 20.5264C103.763 20.5293 101.725 21.9146 101.721 23.6521C101.725 25.3723 103.759 26.7606 106.236 26.7664C108.729 26.7606 110.751 25.3723 110.751 23.6521C110.751 21.932 108.729 20.5293 106.236 20.5264ZM106.172 25.3406C104.883 25.3406 103.9 24.5844 103.9 23.6521C103.9 22.7199 104.939 21.9493 106.236 21.9493C107.533 21.9493 108.528 22.7055 108.532 23.6521C108.532 24.5815 107.473 25.3406 106.172 25.3406Z" fill="white"/>
<path d="M83.3777 17.1321H85.5971V13.002H79.6076V14.3758H83.3777V17.1321Z" fill="white"/>
<path d="M90.0399 17.1321H92.2633V13.002H86.2738V14.3758H90.0399V17.1321Z" fill="white"/>
<path d="M146.612 16.151H144.747V12.7193H142.648V25.6784H144.747V17.7095H146.612V26.0247H148.787V12.4941H146.612V16.151Z" fill="white"/>
<path d="M139.571 17.9429C139.072 17.1607 138.866 16.2862 138.866 15.2125V14.7017H141.384V13.2441H134.069V14.7017H136.667V15.2414C136.667 16.2573 136.482 17.0886 136.035 17.8592C135.515 18.7453 134.641 19.5419 133.247 20.3962L133.151 20.4597L134.528 21.4381L134.613 21.3919C135.306 21.0254 136.031 20.4943 136.635 19.9459C137.146 19.4841 137.577 19.005 137.847 18.5836C138.125 18.9935 138.56 19.4639 139.068 19.9026C139.656 20.4164 140.32 20.9041 140.957 21.1957L141.041 21.2361L142.201 20.2432L142.109 20.1826C140.86 19.4033 140.087 18.7077 139.579 17.94L139.571 17.9429Z" fill="white"/>
<path d="M77.7507 19.0544H85.1177V20.5956H87.5224V19.0544H95.0063V17.6719H77.7507V19.0544Z" fill="white"/>
<path d="M161.422 18.613H153.922V14.5232H159.634V13.083H151.675V20.0099H161.422V18.613Z" fill="white"/>
<path d="M157.181 21.7129H154.938V26.0249H165.43V24.6049H157.181V21.7129Z" fill="white"/>
<path d="M165.378 16.2404V12.4912H163.162V22.4746H165.378V17.6777H168V16.2404H165.378Z" fill="white"/>
<path d="M47.05 8.31806L41.3022 6.61231L47.05 4.90656L46.0269 3.14308L40.2831 4.84883L42.6636 0.730211L40.1985 0L37.8221 4.11862L35.4416 0L32.9765 0.730211L35.357 4.84883L29.6132 3.14308L28.5941 4.90656L34.3379 6.61231L28.5941 8.31806L29.6132 10.0815L35.357 8.37578L32.9765 12.4944L35.4416 13.2246L37.8221 9.10888L40.1985 13.2246L42.6636 12.4915L40.2831 8.37578L46.0269 10.0815L47.05 8.31806Z" fill="#009FE3"/>
<path d="M9.86032 19.8078H13.6828V12.4941H0.612244V14.959H9.86032V19.8078Z" fill="#009FE3"/>
<path d="M24.7716 19.8078H28.5941V12.4941H15.5236V14.959H24.7716V19.8078Z" fill="#009FE3"/>
<path d="M0 23.5918H24.7716V27.3583H28.5941V21.127H0V23.5918Z" fill="#009FE3"/>
<path d="M9.24808 38.8682H28.5941V28.625H9.24808V38.8682ZM13.0665 31.0927H24.7716V36.4062H13.0665V31.0927Z" fill="#009FE3"/>
</g>
<defs>
<clipPath id="clip0_34_998">
<rect width="168" height="40" fill="white"/>
</clipPath>
</defs>
</svg>
