<svg width="19" height="19" viewBox="0 0 19 19" fill="none" xmlns="http://www.w3.org/2000/svg">
<path d="M18.1 9.30129C18.1 9.47129 17.97 9.47129 17.51 9.61129C17.32 9.67129 17.22 9.97129 17.07 10.4513C16.74 11.4613 15.69 13.0913 13.51 13.0913C11.33 13.0913 10.18 11.2313 10.1 11.1313C9.99 10.9813 9.81 10.8413 9.66 10.8413C9.56 10.8413 9.49 10.8813 9.43 10.9213C8.64 11.4613 7.78 12.0713 7.78 13.4713C7.78 14.3913 8.55 15.4413 9.85 15.4413C10.96 15.4413 11.69 14.3913 11.92 13.6613C12 13.4113 11.98 13.3113 12.11 13.3113C12.28 13.3113 12.34 13.6913 12.57 13.6913C12.76 13.6913 12.7 13.5913 12.95 13.5913C13.18 13.5913 13.24 13.9013 13.43 13.9013C13.7 13.9013 14.06 13.6713 14.24 13.6713C14.3 13.6713 14.39 13.6713 14.39 13.7313C14.39 13.8313 14.22 13.9213 14.06 14.0613C13.73 14.3513 13.49 14.5213 13.24 14.9413C12.36 16.4313 11.34 16.7013 10.82 16.8613C10.63 16.9213 10.44 17.0113 10.36 17.1913C10.07 17.8413 9.9 17.9213 9.82 17.9213C9.72 17.9213 9.69 17.8113 9.67 17.5613C9.65 17.2913 9.5 16.9813 8.98 16.8913C7.66 16.6413 6.03 15.3013 6.03 13.1913C6.03 11.2913 7.47 10.5513 8.2 9.82129C8.3 9.72129 8.37 9.61129 8.37 9.44129V9.38129C8.37 9.29129 8.35 9.17129 8.23 9.02129C7.5 8.10129 6.95 7.49129 5.95 7.49129C4.86 7.49129 3.9 8.39129 3.9 9.69129C3.9 11.0913 4.59 11.5713 5.28 11.7413C5.51 11.8013 5.59 11.8213 5.59 11.8913C5.59 12.0413 5.44 12.0113 5.44 12.2413C5.44 12.4113 5.57 12.3913 5.57 12.6613C5.57 12.8513 5.4 12.9113 5.4 13.2013C5.4 13.4313 5.51 13.5113 5.51 13.6413C5.51 13.8113 5.61 13.7913 5.61 14.1613C5.61 14.2613 5.65 14.3313 5.57 14.3313C5.49 14.3313 5.4 14.2013 5.28 14.0213C5.01 13.6213 4.72 13.3713 4.51 13.2113C2.84 12.0013 2.78 11.4713 2.36 10.6413C2.26 10.4513 2.23 10.1213 2.03 10.0313C1.42 9.72129 1 9.63129 1 9.13129C1 8.90129 1.27 9.13129 1.69 9.13129C1.92 9.13129 2.19 9.17129 2.32 8.69129C2.61 7.67129 3.81 6.04129 5.92 6.04129C8.16 6.04129 9.27 7.90129 9.35 8.00129C9.5 8.21129 9.64 8.29129 9.79 8.29129C9.89 8.29129 9.96 8.29129 10.13 8.14129C11.55 6.88129 11.66 6.32129 11.66 5.59129C11.66 4.67129 10.93 3.60129 9.63 3.60129C8.33 3.60129 7.71 4.63129 7.54 5.40129C7.48 5.65129 7.44 5.78129 7.33 5.78129C7.16 5.78129 7.16 5.55129 6.97 5.55129C6.66 5.55129 6.63 5.68129 6.47 5.68129C6.26 5.68129 6.26 5.30129 5.95 5.30129C5.87 5.30129 5.7 5.40129 5.59 5.40129C5.3 5.40129 5.28 5.46129 5.15 5.46129C5 5.46129 4.84 5.38129 4.84 5.27129C4.84 5.16129 4.94 5.08129 5.24 4.93129C5.64 4.72129 6.01 4.57129 6.2 4.14129C6.79 2.82129 8.1 2.40129 8.6 2.21129C8.79 2.13129 8.89 2.06129 8.98 1.88129C9.38 1.15129 9.56 1.07129 9.67 1.07129C9.78 1.07129 9.77 1.26129 9.82 1.49129C9.88 1.76129 9.88 1.97129 10.32 2.08129C11.57 2.41129 13.4 3.56129 13.4 5.66129C13.4 7.76129 11.33 9.09129 11.23 9.17129C11 9.34129 10.92 9.48129 10.92 9.61129C10.92 9.71129 10.98 9.82129 11.04 9.94129C11.54 10.9413 12.4 11.5913 13.4 11.5913C14.59 11.5913 15.51 10.4813 15.51 9.33129C15.51 8.18129 14.74 7.49129 14.07 7.28129C13.82 7.20129 13.71 7.20129 13.71 7.07129C13.71 6.92129 13.88 6.97129 13.88 6.74129C13.88 6.57129 13.8 6.61129 13.8 6.34129C13.8 6.15129 14.03 6.09129 14.03 5.80129C14.03 5.57129 13.92 5.49129 13.92 5.36129C13.92 5.19129 13.86 5.21129 13.86 4.84129C13.86 4.74129 13.82 4.67129 13.9 4.67129C14 4.67129 14.09 4.80129 14.21 4.98129C14.48 5.38129 14.69 5.69129 14.9 5.82129C16.41 6.78129 16.74 7.39129 17.09 8.25129C17.17 8.44129 17.24 8.77129 17.47 8.90129C17.66 9.02129 18.08 9.15129 18.08 9.30129" fill="#231F20"/>
</svg>
