<svg width="165" height="34" viewBox="0 0 165 34" fill="none" xmlns="http://www.w3.org/2000/svg">
<path d="M164.847 17.2426L160.013 17.1622V21.442C160.013 26.9474 159.274 30.9861 158.92 32.1916C158.69 32.5332 158.151 32.7341 157.827 32.6136C157.627 31.6491 157.212 28.6553 157.212 23.6723V4.42334C157.212 3.61963 155.472 1.95192 154.826 1.69071C154.656 1.61034 155.211 0.766443 155.38 0.766443C156.704 0.766443 160.183 1.81127 160.106 2.61498C160.044 3.15749 160.013 3.80046 160.013 4.50371V15.5146L163.677 13.6259C164 13.4651 165.447 17.2426 164.862 17.2426M154.81 19.3322C155.318 20.2565 153.948 24.1746 153.456 23.2503C152.748 21.9443 150.808 18.0865 149.069 15.5146C146.744 19.7542 143.85 23.17 141.249 24.9783C140.926 24.9381 140.541 24.3152 140.541 23.9335C143.758 20.1962 147.391 13.646 148.915 7.67838C149.007 7.3368 147.914 6.29197 147.437 5.91021C147.283 5.78965 147.945 5.14668 148.114 5.14668C148.992 5.14668 151.424 6.45272 152.009 6.99522C152.332 7.29661 152.363 7.49754 152.209 7.99986C151.562 10.19 150.7 12.2796 149.731 14.2086C151.916 16.1776 154.333 18.4481 154.81 19.3322ZM139.186 17.6042L134.322 17.4837V21.442C134.322 26.9474 133.645 30.9861 133.26 32.1916C133.029 32.5332 132.49 32.7341 132.198 32.6136C131.967 31.6491 131.582 28.6553 131.582 23.6723V4.42334C131.582 3.61963 129.842 2.03229 129.196 1.69071C129.042 1.61034 129.581 0.766443 129.75 0.766443C131.074 0.766443 134.476 1.81127 134.414 2.61498C134.384 3.15749 134.322 3.80046 134.322 4.50371V15.8562L138.001 14.0076C138.355 13.8067 139.802 17.5841 139.186 17.5841M123.377 19.493C124.732 19.493 125.732 18.2673 125.732 16.3786C125.732 14.4899 124.793 13.224 123.377 13.224C121.961 13.224 121.022 14.4899 121.022 16.3786C121.022 18.2673 121.961 19.493 123.377 19.493ZM118.775 3.43879C118.744 3.27805 118.898 2.75563 119.067 2.77573C120.037 3.01684 121.022 3.23786 122.254 3.43879L125.255 3.86074C125.517 3.90093 126.671 5.97049 125.902 5.97049H121.361C120.591 5.97049 118.821 3.78037 118.759 3.43879M115.758 8.12042C115.727 7.99986 115.912 7.57791 115.989 7.6181C116.496 7.85921 118.298 7.91949 120.006 7.87931L126.148 7.79894C127.918 7.75875 128.442 6.61346 128.719 6.61346C129.011 6.61346 130.135 8.64283 130.135 9.5872C130.135 9.74794 130.012 9.8484 129.812 9.8484C129.519 9.8484 127.811 9.72785 126.456 9.72785L119.852 9.76803C118.79 9.76803 118.082 10.0694 117.759 10.4512C116.928 10.1498 115.896 8.52228 115.788 8.10033M130.427 23.8732C127.78 25.4605 122.7 26.3848 119.221 26.9474C118.282 27.1082 117.713 27.3292 117.158 27.7511C116.266 27.4497 114.973 25.7418 114.849 25.0989C114.88 24.8979 115.003 24.7171 115.08 24.5965C116.05 24.5965 117.466 24.6367 119.175 24.5162C120.237 24.4358 121.238 24.3554 122.146 24.255L121.977 20.9397C119.729 20.4373 118.344 18.7093 118.344 16.3183C118.344 13.7062 120.083 11.9381 122.823 11.7371C122.854 11.5764 122.885 11.4759 122.885 11.3152C122.885 11.0138 122.823 10.6521 122.5 10.3507C122.5 9.62738 124.27 10.3507 124.27 10.7325C124.27 10.8932 124.116 11.3554 124.039 11.7371C126.718 11.9782 128.411 13.7464 128.411 16.3183C128.411 18.7093 126.964 20.4373 124.747 20.9397L124.624 23.9335C127.426 23.5115 129.319 22.9288 130.581 22.3863C130.843 22.2658 130.735 23.6522 130.412 23.8531M96.8854 5.12659L96.8546 11.5563H103.72L103.889 5.12659H96.87H96.8854ZM92.4368 3.7C92.406 3.49907 92.8216 2.8561 93.0217 2.8561C93.5297 2.8561 95.2845 2.93647 96.439 3.19768H102.981C103.812 3.19768 104.243 3.03693 104.567 2.65517C104.921 2.49443 107.214 2.95656 107.168 3.45888L106.198 11.1946C106.614 11.6969 107.168 12.7016 107.168 13.2441C107.168 13.4048 107.045 13.5053 106.845 13.5053C106.552 13.5053 105.46 13.4651 103.812 13.4651H96.5622C96.3774 13.8871 96.1465 14.2688 95.8849 14.6707C95.6232 15.0123 95.146 15.173 94.7919 15.0524C94.4995 14.1282 94.2532 12.36 94.0531 9.16525L93.7914 5.16677C93.7606 4.78501 92.9294 3.94111 92.4368 3.7ZM108.769 31.0263C108.769 31.187 108.677 31.2875 108.446 31.2875H105.413L96.3928 31.3276C93.8837 31.3276 93.3912 30.2024 93.3912 28.0123V24.7372C93.3912 24.1545 92.4522 23.1499 91.9134 23.0494C91.7441 23.0092 92.329 22.0448 92.5599 22.0448C93.5913 22.0448 95.1306 22.3462 95.9003 22.7279C96.0542 22.8083 96.2851 22.9288 96.2235 23.3508C96.1619 23.8531 96.1619 24.5765 96.1619 25.1993V28.0525C96.1619 29.238 96.4852 29.3987 97.2857 29.3987L104.859 29.3585C106.46 29.3585 106.983 28.1932 107.184 28.1932C107.599 28.1932 108.769 30.1221 108.769 31.0062M111.632 18.5687C111.632 18.7696 111.509 18.8701 111.309 18.8701H101.965V21.1004C101.965 23.3709 101.319 25.34 100.872 26.2241C100.641 26.5656 100.133 26.7264 99.8102 26.6058C99.5485 25.561 99.1637 24.1746 99.1637 21.6429V18.8701H92.8832C91.821 18.8701 91.1129 19.2519 90.7897 19.6336C89.9584 19.3322 88.2806 17.6243 88.2806 17.2426C88.2806 17.0818 88.4345 16.6599 88.5115 16.7001C89.0195 16.9412 90.8205 16.9613 92.5291 16.9613L106.983 16.9211C108.815 16.9211 109.431 15.5749 109.662 15.5749C109.985 15.5749 111.632 17.6243 111.632 18.5486M70.4551 8.82367C70.4551 11.2951 71.6866 12.9427 73.5492 12.9427C75.4118 12.9427 76.828 11.2951 76.828 8.82367C76.828 6.35225 75.5041 4.70464 73.58 4.70464C71.6558 4.70464 70.4551 6.37234 70.4551 8.82367ZM67.6535 8.94423C67.6535 5.48826 69.7778 3.17758 73.0566 2.93647C73.0874 2.81591 73.1182 2.71545 73.1182 2.59489C73.1182 2.25331 73.0566 1.87155 72.6718 1.50988C72.6718 0.74635 74.6421 1.50988 74.6421 1.93183C74.6421 2.09257 74.4882 2.55471 74.4112 2.93647C77.536 3.23786 79.5988 5.54854 79.5988 8.94423C79.5988 12.5208 77.2128 14.8716 73.6415 14.8716C70.0703 14.8716 67.6535 12.5208 67.6535 8.94423ZM85.2943 19.4528C85.2943 19.6135 85.1711 19.714 84.971 19.714H78.5674V21.5625C78.5674 26.7666 77.8593 30.8052 77.4745 31.9907C77.2436 32.3323 76.7048 32.493 76.4123 32.4127C76.1814 31.4482 75.7658 28.4544 75.7658 23.7928V19.714L71.2556 19.7542V20.9196C71.2556 26.0834 70.5475 30.1221 70.1934 31.3076C69.9625 31.6491 69.4238 31.8099 69.1005 31.7295C68.9004 30.765 68.4848 27.7712 68.4848 23.1499V19.7542H66.5452C65.4831 19.7542 64.775 20.1359 64.4517 20.5177C63.6205 20.2163 61.9426 18.5084 61.9426 18.0865C61.9426 17.9659 62.0966 17.544 62.1735 17.5841C62.6815 17.8052 64.4825 17.8454 66.1912 17.8454L80.6455 17.765C82.4773 17.765 83.093 16.4188 83.3239 16.4188C83.6472 16.4188 85.2943 18.4883 85.2943 19.4126M44.3481 7.27652C44.3481 9.38627 45.5642 10.8932 47.3806 10.8932C49.197 10.8932 50.4131 9.38627 50.4131 7.27652C50.4131 5.16677 49.197 3.74018 47.3806 3.74018C45.5642 3.74018 44.3481 5.20696 44.3481 7.27652ZM41.5465 7.43726C41.5465 4.40325 43.5784 2.19303 46.7341 1.93183C46.7648 1.7309 46.8264 1.59025 46.8264 1.38932C46.8264 1.04774 46.7341 0.686071 46.38 0.344493C46.38 -0.459221 48.3504 0.344493 48.3504 0.726257C48.3504 0.967371 48.1502 1.48978 48.0271 1.91173C51.1519 2.17294 53.2454 4.38315 53.2454 7.41717C53.2454 10.6119 50.8595 12.8824 47.3806 12.8824C43.9017 12.8824 41.5465 10.6119 41.5465 7.41717M55.5236 31.6491C55.5236 31.8501 55.4005 31.9103 55.2004 31.9103H43.7324C41.762 31.9103 41.0693 31.0263 41.0231 29.017L40.9616 26.4451C40.9616 26.0633 40.1919 25.561 39.6993 25.2797C39.6685 25.0788 40.1149 24.4358 40.3458 24.4358C40.9 24.4358 43.0089 24.5965 43.7632 24.9381H51.2289L51.2597 21.8237H43.7939C42.8857 21.8237 42.2854 22.1251 41.9621 22.527C40.9 22.3261 40.038 20.5177 40.0226 20.2565C39.9918 20.0556 40.1457 19.6738 40.2843 19.714C41.2233 19.935 42.4085 19.935 44.1172 19.935H50.2283C51.0596 19.935 51.4906 19.8145 51.8138 19.3925C52.1679 19.3523 54.5231 19.6939 54.4461 20.1962L53.7072 24.7372C54.2614 25.2797 54.6154 26.204 54.6154 26.425C54.6154 26.6259 54.5231 26.7666 54.3845 26.7666C54.1228 26.7666 52.445 26.7264 51.075 26.7264H43.7632V28.4142C43.7632 29.7202 44.0556 29.9814 45.3794 29.9814H51.8446C53.6764 29.9814 53.9381 28.9768 54.1382 28.9768C54.5539 28.9768 55.5236 30.7851 55.5236 31.5889M58.8948 16.7603C58.8948 16.9211 58.7716 17.0215 58.5715 17.0215H54.4153L40.1611 17.0617C39.1298 17.0617 38.4217 17.4435 38.0984 17.7851C37.2364 17.4837 35.7125 15.816 35.5893 15.394C35.5585 15.2735 35.7432 14.8515 35.8202 14.8917C36.3282 15.1328 38.1138 15.173 39.8379 15.173L54.2614 15.0926C56.0624 15.0926 56.6781 13.7464 56.9398 13.7464C57.2631 13.7464 58.8794 15.816 58.8794 16.7402M26.3225 16.68C26.3225 17.0215 26.1224 17.0215 25.4143 17.3028C25.1219 17.4234 24.9679 18.0262 24.737 18.9906C24.2291 21.02 22.6128 24.2952 19.257 24.2952C15.9013 24.2952 14.1311 20.5579 14.0079 20.357C13.8386 20.0556 13.5615 19.7743 13.3306 19.7743C13.1767 19.7743 13.0689 19.8546 12.9766 19.935C11.7605 21.02 10.4367 22.2457 10.4367 25.0587C10.4367 26.9072 11.6219 29.017 13.6231 29.017C15.3317 29.017 16.4554 26.9072 16.8095 25.4404C16.9326 24.9381 16.9018 24.7372 17.102 24.7372C17.3636 24.7372 17.456 25.5007 17.81 25.5007C18.1025 25.5007 18.0102 25.2998 18.395 25.2998C18.749 25.2998 18.8414 25.9227 19.1339 25.9227C19.5495 25.9227 20.1036 25.4605 20.3807 25.4605C20.4731 25.4605 20.6116 25.4605 20.6116 25.5811C20.6116 25.782 20.3499 25.9629 20.1037 26.2442C19.5957 26.8269 19.2262 27.1684 18.8414 28.0123C17.4868 31.0062 15.9167 31.5487 15.1162 31.8702C14.8237 31.9907 14.5313 32.1716 14.4081 32.5332C13.9617 33.8393 13.7 34 13.5769 34C13.423 34 13.3768 33.779 13.346 33.2767C13.3152 32.7341 13.0843 32.1113 12.2839 31.9304C10.2519 31.4281 7.74283 28.7357 7.74283 24.4961C7.74283 20.6784 9.95947 19.1916 11.0832 17.7248C11.2371 17.5239 11.3449 17.3028 11.3449 16.9613V16.8407C11.3449 16.6599 11.3141 16.4188 11.1294 16.1174C10.0056 14.2688 9.15901 13.0432 7.61968 13.0432C5.94181 13.0432 4.46406 14.8515 4.46406 17.4636C4.46406 20.2766 5.5262 21.241 6.58833 21.5826C6.94238 21.7032 7.06553 21.7434 7.06553 21.884C7.06553 22.1854 6.83463 22.1251 6.83463 22.5873C6.83463 22.9288 7.03474 22.8887 7.03474 23.4312C7.03474 23.8129 6.77305 23.9335 6.77305 24.5162C6.77305 24.9783 6.94238 25.1391 6.94238 25.4003C6.94238 25.7418 7.09631 25.7017 7.09631 26.4451C7.09631 26.646 7.15788 26.7867 7.03474 26.7867C6.91159 26.7867 6.77305 26.5255 6.58833 26.1638C6.17271 25.3601 5.72631 24.8578 5.40305 24.5363C2.83237 22.105 2.74001 21.0401 2.09349 19.3724C1.93956 18.9906 1.89338 18.3276 1.58551 18.1467C0.646519 17.5239 0 17.343 0 16.3384C0 15.8763 0.415619 16.3384 1.06214 16.3384C1.41618 16.3384 1.8318 16.4188 2.03192 15.4543C2.47832 13.4048 4.32552 10.1297 7.5735 10.1297C11.0216 10.1297 12.7303 13.867 12.8534 14.0679C13.0843 14.4899 13.2998 14.6506 13.5307 14.6506C13.6846 14.6506 13.7924 14.6506 14.0541 14.3492C16.2399 11.8175 16.4093 10.6923 16.4093 9.22553C16.4093 7.37699 15.2855 5.22705 13.2844 5.22705C11.2833 5.22705 10.3289 7.29662 10.0672 8.84376C9.97486 9.34608 9.91329 9.60729 9.74396 9.60729C9.48227 9.60729 9.48227 9.14516 9.1898 9.14516C8.71261 9.14516 8.66643 9.40636 8.42014 9.40636C8.09688 9.40636 8.09688 8.64284 7.61968 8.64284C7.49654 8.64284 7.23485 8.84376 7.06553 8.84376C6.61912 8.84376 6.58833 8.96432 6.38822 8.96432C6.15732 8.96432 5.91103 8.80358 5.91103 8.58256C5.91103 8.36154 6.06496 8.20079 6.52676 7.8994C7.14249 7.47745 7.71204 7.17606 8.00452 6.31207C8.91272 3.65981 10.9292 2.81591 11.6989 2.43415C11.9914 2.27341 12.1453 2.13276 12.2839 1.77108C12.8996 0.304307 13.1767 0.143565 13.346 0.143565C13.5153 0.143565 13.4999 0.525329 13.5769 0.987464C13.6693 1.52997 13.6693 1.95192 14.3466 2.17294C16.2707 2.836 19.0877 5.14668 19.0877 9.36618C19.0877 13.5857 15.9013 16.258 15.7473 16.4188C15.3933 16.7603 15.2702 17.0416 15.2702 17.3028C15.2702 17.5038 15.3625 17.7248 15.4549 17.9659C16.2245 19.9752 17.5484 21.2812 19.0877 21.2812C20.9195 21.2812 22.3357 19.0509 22.3357 16.7402C22.3357 14.4296 21.1504 13.0432 20.119 12.6212C19.7342 12.4605 19.5649 12.4605 19.5649 12.1993C19.5649 11.8979 19.8266 11.9983 19.8266 11.5362C19.8266 11.1946 19.7034 11.275 19.7034 10.7325C19.7034 10.3507 20.0575 10.2302 20.0575 9.64748C20.0575 9.18534 19.8881 9.0246 19.8881 8.76339C19.8881 8.42181 19.7958 8.462 19.7958 7.71856C19.7958 7.51764 19.7342 7.37699 19.8574 7.37699C20.0113 7.37699 20.1498 7.63819 20.3345 7.99986C20.7502 8.80358 21.0734 9.42646 21.3967 9.68766C23.7211 11.6166 24.2291 12.8422 24.7678 14.5702C24.891 14.952 24.9987 15.615 25.3528 15.8763C25.6452 16.1174 26.2918 16.3786 26.2918 16.68" fill="white"/>
</svg>
