<svg width="143" height="36" viewBox="0 0 143 36" fill="none" xmlns="http://www.w3.org/2000/svg">
<path d="M117.512 10.2948C117.512 10.6584 117.562 11.0283 117.707 11.3728C118.334 12.9419 119.909 13.905 121.917 13.0886C122.4 12.8908 135.703 7.44365 135.703 7.44365C135.703 7.44365 130.463 20.9468 130.269 21.4507C129.503 23.3834 130.419 25.1375 131.982 25.7307C132.327 25.8582 132.684 25.922 133.042 25.9156C134.31 25.9093 135.433 25.1439 135.979 23.6258C136.066 23.3962 142.617 5.10914 142.762 4.66265C142.843 4.40751 143 3.79518 143 3.36782C143 2.46208 142.667 1.60737 142.034 0.963146C141.406 0.325301 140.584 0 139.7 0C139.279 0 138.928 0.0765414 138.401 0.24876C138.087 0.350815 121.195 6.74202 119.752 7.29057C118.303 7.83912 117.512 9.00637 117.512 10.2948Z" fill="white"/>
<path d="M83.7356 35.6812V19.448H93.7939V22.1142H86.8102V25.9285H93.1665V28.5947H86.8102V33.015H94.0449V35.6812H83.7356Z" fill="white"/>
<path d="M105.264 35.6812L104.58 34.6224C104.354 34.7818 104.172 34.9604 103.946 35.1262C103.037 35.7513 101.932 35.9491 100.847 35.9491C98.1109 35.9491 95.5948 34.2779 95.5948 31.2609C95.5948 28.9583 97.0003 27.9696 98.4686 26.5281C97.6529 25.4501 96.8623 24.5763 96.8623 23.122C96.8623 20.8895 98.7635 19.6968 100.778 19.6968C102.792 19.6968 104.461 20.9852 104.461 23.1475C104.461 24.9654 103.35 25.9987 102.108 27.0766L104.75 30.706C105.252 29.7173 105.252 28.6394 105.182 27.555L107.485 27.5805C107.51 27.9441 107.529 28.3141 107.529 28.684C107.529 30.2531 107.172 31.65 106.243 32.8938L108.276 35.6748H105.252L105.264 35.6812ZM100.081 28.7159C99.3157 29.5005 98.2741 30.183 98.2741 31.4267C98.2741 32.9193 99.5792 33.5444 100.897 33.5444C101.687 33.5444 102.547 33.3339 103.112 32.7407L100.081 28.7159ZM100.809 21.9101C100.106 21.9101 99.5165 22.3693 99.5165 23.1284C99.5165 23.9576 100.106 24.6911 100.608 25.3162C101.261 24.7613 102.051 24.0022 102.051 23.0646C102.051 22.3247 101.487 21.9101 100.809 21.9101Z" fill="white"/>
<path d="M120.581 33.9336C119.545 35.3815 117.845 36.0002 116.126 36.0002C114.042 36.0002 112.141 35.222 110.792 33.5828C109.368 31.8797 108.935 29.8195 108.935 27.6572C108.935 26.5282 109.029 25.3992 109.349 24.3212C110.227 21.1703 112.743 19.1228 115.994 19.1228C119.451 19.1228 121.421 21.2851 121.603 24.7103H118.955C118.686 23.0328 117.757 21.8145 115.969 21.8145C112.919 21.8145 112.129 25.1887 112.129 27.6763C112.129 30.1639 113.076 33.283 116.038 33.283C118.14 33.283 118.955 31.5353 119.043 29.6536H121.804C121.741 31.2163 121.515 32.6387 120.587 33.9272" fill="white"/>
<path d="M8.97279 35.6748L3.09342 27.0767L8.9477 19.4417H12.4741L6.50057 26.9618L12.8756 35.6684H8.96652L8.97279 35.6748ZM0 19.448H3.07459V35.6748H0V19.448Z" fill="white"/>
<path d="M26.0211 32.2241C25.1866 34.9349 22.6328 36.0001 20.0037 36.0001C17.3746 36.0001 14.9839 34.9923 14.0804 32.3899C13.7416 31.4204 13.6976 30.368 13.6976 29.3538V19.4417H16.7785V28.7478C16.7785 29.7365 16.7283 31.0058 17.2303 31.8988C17.7887 32.9385 18.9495 33.2765 20.0351 33.2765C21.0453 33.2765 22.2061 32.9321 22.7645 31.9881C23.2916 31.0951 23.2602 29.9279 23.2602 28.9073V19.4353H26.3411V29.5707C26.3411 30.47 26.2972 31.363 26.0211 32.2177" fill="white"/>
<path d="M41.5949 35.6748V23.0136L38.1814 35.6748H35.019L31.6495 23.0136V35.6748H28.8886V19.448H33.1617L36.619 32.3452L40.1266 19.448H44.3557V35.6748H41.5949Z" fill="white"/>
<path d="M56.378 35.6748V28.5054H50.0469V35.6748H46.9723V19.448H50.0469V25.9285H56.378V19.448H59.4526V35.6748H56.378Z" fill="white"/>
<path d="M68.6952 21.7954C65.6018 21.7954 64.692 24.9655 64.692 27.5679C64.692 30.1703 65.5955 33.334 68.714 33.334C71.8326 33.334 72.7424 30.1639 72.7424 27.5679C72.7424 24.9718 71.7949 21.7954 68.6952 21.7954ZM72.3157 35.037C71.2302 35.7068 69.9376 36.0002 68.6952 36.0002C67.6536 36.0002 66.4552 35.7323 65.514 35.2411C62.5649 33.7039 61.5107 30.7571 61.5107 27.5615C61.5107 24.3659 62.477 21.604 65.2692 19.9967C66.3046 19.3971 67.5281 19.1228 68.7203 19.1228C70.6027 19.1228 72.4349 19.8181 73.7401 21.1958C75.3527 22.8733 75.9362 25.2908 75.9362 27.5679C75.9362 30.5976 74.9887 33.3978 72.322 35.037" fill="white"/>
</svg>
