<svg width="143" height="36" viewBox="0 0 143 36" fill="none" xmlns="http://www.w3.org/2000/svg">
<path d="M117.512 10.2948C117.512 10.6584 117.562 11.0283 117.707 11.3728C118.334 12.9419 119.909 13.905 121.917 13.0886C122.4 12.8908 135.703 7.44365 135.703 7.44365C135.703 7.44365 130.463 20.9468 130.269 21.4507C129.503 23.3834 130.419 25.1375 131.982 25.7307C132.327 25.8582 132.684 25.922 133.042 25.9156C134.31 25.9093 135.433 25.1439 135.979 23.6258C136.066 23.3962 142.617 5.10914 142.762 4.66265C142.843 4.40751 143 3.79518 143 3.36782C143 2.46208 142.667 1.60737 142.034 0.963146C141.406 0.325301 140.584 0 139.7 0C139.279 0 138.928 0.0765414 138.401 0.24876C138.087 0.350815 121.195 6.74202 119.752 7.29057C118.303 7.83912 117.512 9.00637 117.512 10.2948Z" fill="#ED1C24"/>
<path d="M83.7356 35.6814V19.4482H93.7939V22.1144H86.8102V25.9287H93.1665V28.5949H86.8102V33.0152H94.0449V35.6814H83.7356Z" fill="#444B51"/>
<path d="M105.264 35.6817L104.58 34.6228C104.354 34.7823 104.172 34.9609 103.946 35.1267C103.037 35.7518 101.932 35.9496 100.847 35.9496C98.1109 35.9496 95.5948 34.2784 95.5948 31.2614C95.5948 28.9588 97.0003 27.9701 98.4686 26.5286C97.6529 25.4506 96.8623 24.5768 96.8623 23.1225C96.8623 20.89 98.7635 19.6973 100.778 19.6973C102.792 19.6973 104.461 20.9857 104.461 23.148C104.461 24.9659 103.35 25.9992 102.108 27.0771L104.75 30.7065C105.252 29.7178 105.252 28.6399 105.183 27.5555L107.485 27.581C107.51 27.9446 107.529 28.3146 107.529 28.6845C107.529 30.2536 107.172 31.6505 106.243 32.8943L108.276 35.6753H105.252L105.264 35.6817ZM100.081 28.7164C99.3157 29.5009 98.2741 30.1834 98.2741 31.4272C98.2741 32.9198 99.5792 33.5449 100.897 33.5449C101.688 33.5449 102.547 33.3344 103.112 32.7412L100.081 28.7164ZM100.809 21.9106C100.106 21.9106 99.5165 22.3698 99.5165 23.1289C99.5165 23.9581 100.106 24.6916 100.608 25.3167C101.261 24.7618 102.051 24.0027 102.051 23.0651C102.051 22.3252 101.487 21.9106 100.809 21.9106Z" fill="#444B51"/>
<path d="M120.581 33.9338C119.545 35.3817 117.845 36.0004 116.126 36.0004C114.042 36.0004 112.141 35.2223 110.792 33.583C109.368 31.8799 108.935 29.8197 108.935 27.6574C108.935 26.5284 109.029 25.3994 109.349 24.3215C110.227 21.1705 112.743 19.123 115.994 19.123C119.451 19.123 121.421 21.2853 121.603 24.7106H118.955C118.686 23.033 117.757 21.8148 115.969 21.8148C112.919 21.8148 112.129 25.189 112.129 27.6765C112.129 30.1641 113.076 33.2832 116.038 33.2832C118.14 33.2832 118.955 31.5355 119.043 29.6539H121.804C121.741 31.2166 121.515 32.639 120.587 33.9274" fill="#444B51"/>
<path d="M8.97279 35.6755L3.09342 27.0774L8.9477 19.4424H12.4741L6.50057 26.9626L12.8756 35.6692H8.96652L8.97279 35.6755ZM0 19.4488H3.07459V35.6755H0V19.4488Z" fill="#444B51"/>
<path d="M26.0211 32.2243C25.1866 34.9352 22.6328 36.0004 20.0037 36.0004C17.3746 36.0004 14.9839 34.9926 14.0804 32.3902C13.7416 31.4207 13.6976 30.3682 13.6976 29.354V19.4419H16.7785V28.7481C16.7785 29.7367 16.7283 31.0061 17.2303 31.899C17.7887 32.9387 18.9495 33.2768 20.0351 33.2768C21.0453 33.2768 22.2061 32.9323 22.7645 31.9883C23.2916 31.0954 23.2602 29.9281 23.2602 28.9075V19.4355H26.3411V29.5709C26.3411 30.4703 26.2972 31.3632 26.0211 32.218" fill="#444B51"/>
<path d="M41.5949 35.675V23.0138L38.1814 35.675H35.019L31.6495 23.0138V35.675H28.8886V19.4482H33.1617L36.619 32.3455L40.1266 19.4482H44.3557V35.675H41.5949Z" fill="#444B51"/>
<path d="M56.378 35.675V28.5056H50.0469V35.675H46.9723V19.4482H50.0469V25.9287H56.378V19.4482H59.4526V35.675H56.378Z" fill="#444B51"/>
<path d="M68.6952 21.7956C65.6018 21.7956 64.692 24.9657 64.692 27.5681C64.692 30.1705 65.5955 33.3342 68.714 33.3342C71.8326 33.3342 72.7424 30.1641 72.7424 27.5681C72.7424 24.9721 71.7949 21.7956 68.6952 21.7956ZM72.3157 35.0373C71.2302 35.707 69.9376 36.0004 68.6952 36.0004C67.6536 36.0004 66.4552 35.7325 65.514 35.2414C62.5649 33.7042 61.5107 30.7573 61.5107 27.5617C61.5107 24.3661 62.477 21.6043 65.2692 19.9969C66.3046 19.3973 67.5281 19.123 68.7203 19.123C70.6027 19.123 72.4349 19.8183 73.7401 21.196C75.3527 22.8736 75.9362 25.291 75.9362 27.5681C75.9362 30.5979 74.9887 33.398 72.322 35.0373" fill="#444B51"/>
</svg>
