<svg width="38" height="41" viewBox="0 0 38 41" fill="none" xmlns="http://www.w3.org/2000/svg">
<mask id="mask0_133_478" style="mask-type:luminance" maskUnits="userSpaceOnUse" x="0" y="1" width="38" height="40">
<path d="M11.2081 19.3068C10.5424 17.0364 10.384 14.7052 10.6342 12.5028C11.0933 8.48641 12.9297 4.87494 15.5535 2.82228C16.7242 1.90478 18.0557 1.2939 19.495 1.08091C20.8378 0.8843 22.268 1.03878 23.7394 1.62391C26.0097 2.52503 27.7681 3.08442 29.5448 3.19208C31.3055 3.29975 33.1465 2.96505 35.6073 2.08032C36.1009 1.90244 36.6426 2.1599 36.8286 2.6561C37.6802 4.57769 38.0268 6.64907 37.8822 8.68301C37.7353 10.7404 37.0857 12.7603 35.9494 14.5484C34.8131 16.3343 33.2682 17.7643 31.4891 18.738C30.0085 19.5502 28.3626 20.0487 26.6479 20.1821L28.156 39.8264C28.195 40.367 27.7956 40.8398 27.2654 40.882L1.3694 40.8866C0.836831 40.8866 0.402974 40.4443 0.402974 39.9013C0.402974 39.7913 0.421339 39.6859 0.453476 39.5853L4.31916 25.0341C2.48732 24.0019 1.20182 22.1248 0.53382 20.0043C-0.189275 17.7012 -0.193866 15.0844 0.618755 12.9522L0.710576 12.7205C0.91947 12.2219 1.48417 11.9879 1.97542 12.2009C2.25777 12.3226 2.45289 12.5683 2.52864 12.8469C2.85002 14.0452 3.40783 15.1429 4.15159 16.0791C4.89764 17.0154 5.83881 17.7971 6.9223 18.3588C7.76017 18.7942 8.65084 19.0797 9.55758 19.2178C10.1039 19.2997 10.6548 19.3278 11.2081 19.3021M17.9294 10.9323C17.833 10.3986 18.1796 9.88606 18.703 9.79009C19.2264 9.69179 19.7291 10.0452 19.8232 10.5789C20.0918 12.0417 20.5073 13.4765 21.0605 14.8621C21.6137 16.2453 22.3024 17.5677 23.115 18.8059C23.3331 19.1359 23.3262 19.5525 23.1334 19.8708C22.144 21.4928 20.7047 22.7099 19.0542 23.4215C17.406 24.133 15.5489 24.339 13.7217 23.9364C13.4416 23.8755 13.2167 23.6976 13.0835 23.4612C12.6244 22.7357 12.2296 21.9867 11.9013 21.226C11.0267 21.3173 10.1452 21.2986 9.27752 21.1675C8.16189 20.999 7.06922 20.6479 6.0477 20.1166C4.72777 19.4308 3.57541 18.4735 2.65719 17.3196C2.39321 16.9896 2.14988 16.6432 1.92721 16.2828C1.90196 17.3243 2.05347 18.3963 2.37025 19.4027C2.94643 21.233 4.06436 22.8106 5.64369 23.5127L5.77453 23.5666C6.252 23.7327 6.52747 24.2477 6.39662 24.7509L2.63424 38.9136H26.152L24.6461 19.3091V19.2272C24.6507 18.6865 25.0846 18.2488 25.6172 18.2535C27.3732 18.2699 29.0765 17.8275 30.5778 17.006C32.0791 16.1845 33.3807 14.9814 34.3356 13.4788C35.2906 11.9785 35.8369 10.2769 35.9609 8.54258C35.9861 8.1915 35.993 7.84041 35.9838 7.48699C34.3241 7.38635 32.7999 6.48992 31.8863 5.06452C31.0369 5.17453 30.2335 5.20261 29.4323 5.15346C27.4169 5.03175 25.4955 4.42555 23.0462 3.45422C21.9007 3.00016 20.7965 2.87845 19.7681 3.02824C18.6686 3.18974 17.6402 3.66721 16.7242 4.38342C14.5091 6.11777 12.9527 9.22836 12.551 12.7251C12.202 15.7866 12.7438 19.1265 14.5136 22.0873C15.8244 22.298 17.1374 22.1201 18.3082 21.6122C19.4192 21.1324 20.4086 20.3577 21.1592 19.3372C20.4201 18.1435 19.7911 16.8937 19.2723 15.6017C18.6755 14.1084 18.2232 12.5426 17.9294 10.9323Z" fill="white"/>
</mask>
<g mask="url(#mask0_133_478)">
<mask id="mask1_133_478" style="mask-type:luminance" maskUnits="userSpaceOnUse" x="-1" y="0" width="40" height="41">
<path d="M38.0287 0.884766H-0.194336V40.8848H38.0287V0.884766Z" fill="white"/>
</mask>
<g mask="url(#mask1_133_478)">
<path d="M-0.194336 40.6621L0.0191491 40.8845H-0.194336V40.6621Z" fill="#FF27D8"/>
<path d="M-0.194336 40.2314L0.427755 40.8845H0.019149L-0.194336 40.6621V40.2314Z" fill="#FF28D7"/>
<path d="M-0.194336 39.8037L0.838656 40.885H0.427755L-0.194336 40.232V39.8037Z" fill="#FF29D6"/>
<path d="M-0.194336 39.375L1.24726 40.8847H0.838656L-0.194336 39.8033V39.375Z" fill="#FF2AD5"/>
<path d="M-0.194336 38.9443L1.65587 40.8847H1.24726L-0.194336 39.375V38.9443Z" fill="#FF2BD4"/>
<path d="M-0.194336 38.5166L2.06677 40.8852H1.65587L-0.194336 38.9449V38.5166Z" fill="#FF2CD3"/>
<path d="M-0.194336 38.0879L2.47537 40.8848H2.06677L-0.194336 38.5162V38.0879Z" fill="#FF2DD2"/>
<path d="M-0.194336 37.6572L2.88398 40.8848H2.47537L-0.194336 38.0879V37.6572Z" fill="#FF2ED1"/>
<path d="M-0.194336 37.2285L3.29488 40.8845H2.88398L-0.194336 37.6568V37.2285Z" fill="#FF2FD0"/>
<path d="M-0.194336 36.8008L3.70349 40.885H3.29488L-0.194336 37.2291V36.8008Z" fill="#FF30CF"/>
<path d="M-0.194336 36.3721L4.11439 40.8847H3.70349L-0.194336 36.8004V36.3721Z" fill="#FF31CE"/>
<path d="M-0.194336 35.9414L4.52299 40.8846H4.11439L-0.194336 36.3721V35.9414Z" fill="#FF32CD"/>
<path d="M-0.194336 35.5137L4.9316 40.8852H4.52299L-0.194336 35.942V35.5137Z" fill="#FF33CC"/>
<path d="M-0.194336 35.085L5.3425 40.8848H4.9316L-0.194336 35.5133V35.085Z" fill="#FF34CB"/>
<path d="M-0.194336 34.6543L5.75111 40.8848H5.3425L-0.194336 35.085V34.6543Z" fill="#FF35CA"/>
<path d="M-0.194336 34.2256L6.15971 40.8845H5.75111L-0.194336 34.6539V34.2256Z" fill="#FF36C9"/>
<path d="M-0.194336 33.7979L6.57061 40.885H6.15971L-0.194336 34.2262V33.7979Z" fill="#FF37C8"/>
<path d="M-0.194336 33.3672L6.97922 40.885H6.57061L-0.194336 33.7978V33.3672Z" fill="#FF38C7"/>
<path d="M-0.194336 32.9385L7.38782 40.8846H6.97922L-0.194336 33.3668V32.9385Z" fill="#FF39C6"/>
<path d="M-0.194336 32.5107L7.79873 40.8852H7.38782L-0.194336 32.9391V32.5107Z" fill="#FF3AC5"/>
<path d="M-0.194336 32.082L8.20733 40.8848H7.79873L-0.194336 32.5104V32.082Z" fill="#FF3BC4"/>
<path d="M-0.194336 31.6514L8.61594 40.8848H8.20733L-0.194336 32.082V31.6514Z" fill="#FF3CC3"/>
<path d="M-0.194336 31.2227L9.02684 40.8844H8.61594L-0.194336 31.651V31.2227Z" fill="#FF3DC2"/>
<path d="M-0.194336 30.7949L9.43545 40.885H9.02684L-0.194336 31.2232V30.7949Z" fill="#FF3EC1"/>
<path d="M-0.194336 30.3643L9.84635 40.885H9.43545L-0.194336 30.7949V30.3643Z" fill="#FF3FC0"/>
<path d="M-0.194336 29.9355L10.255 40.8846H9.84635L-0.194336 30.3639V29.9355Z" fill="#FF40BF"/>
<path d="M-0.194336 29.5078L10.6636 40.8852H10.255L-0.194336 29.9361V29.5078Z" fill="#FF41BE"/>
<path d="M-0.194336 29.0771L11.0745 40.8852H10.6636L-0.194336 29.5078V29.0771Z" fill="#FF42BD"/>
<path d="M-0.194336 28.6484L11.4831 40.8848H11.0745L-0.194336 29.0768V28.6484Z" fill="#FF43BC"/>
<path d="M-0.194336 28.2197L11.8917 40.8844H11.4831L-0.194336 28.648V28.2197Z" fill="#FF44BB"/>
<path d="M-0.194336 27.7891L12.3026 40.8844H11.8917L-0.194336 28.2197V27.7891Z" fill="#FF45BA"/>
<path d="M-0.194336 27.3613L12.7112 40.885H12.3026L-0.194336 27.7896V27.3613Z" fill="#FF46B9"/>
<path d="M-0.194336 26.9326L13.1198 40.8846H12.7112L-0.194336 27.3609V26.9326Z" fill="#FF47B8"/>
<path d="M-0.194336 26.5049L13.5307 40.8852H13.1198L-0.194336 26.9332V26.5049Z" fill="#FF48B7"/>
<path d="M-0.194336 26.0742L13.9393 40.8852H13.5307L-0.194336 26.5049V26.0742Z" fill="#FF49B6"/>
<path d="M-0.194336 25.6455L14.3479 40.8848H13.9393L-0.194336 26.0738V25.6455Z" fill="#FF4AB5"/>
<path d="M-0.194336 25.2168L14.7588 40.8844H14.3479L-0.194336 25.6451V25.2168Z" fill="#FF4BB4"/>
<path d="M-0.194336 24.7861L15.1674 40.8844H14.7588L-0.194336 25.2168V24.7861Z" fill="#FF4CB3"/>
<path d="M-0.194336 24.3584L15.5783 40.885H15.1674L-0.194336 24.7867V24.3584Z" fill="#FF4DB2"/>
<path d="M-0.194336 23.9297L15.9869 40.8846H15.5783L-0.194336 24.358V23.9297Z" fill="#FF4EB1"/>
<path d="M-0.194336 23.499L16.3955 40.8846H15.9869L-0.194336 23.9297V23.499Z" fill="#FF4FB0"/>
<path d="M-0.194336 23.0713L16.8064 40.8852H16.3955L-0.194336 23.4996V23.0713Z" fill="#FF50AF"/>
<path d="M-0.194336 22.6426L17.215 40.8848H16.8064L-0.194336 23.0709V22.6426Z" fill="#FF51AE"/>
<path d="M-0.194336 22.2139L17.6236 40.8844H17.215L-0.194336 22.6422V22.2139Z" fill="#FF52AD"/>
<path d="M-0.194336 21.7832L18.0345 40.8844H17.6236L-0.194336 22.2139V21.7832Z" fill="#FF53AC"/>
<path d="M-0.194336 21.3555L18.4431 40.885H18.0345L-0.194336 21.7838V21.3555Z" fill="#FF54AB"/>
<path d="M-0.194336 20.9268L18.8517 40.8846H18.4431L-0.194336 21.3551V20.9268Z" fill="#FF55AA"/>
<path d="M-0.194336 20.4961L19.2626 40.8846H18.8517L-0.194336 20.9268V20.4961Z" fill="#FF56A9"/>
<path d="M-0.194336 20.0684L19.6712 40.8852H19.2626L-0.194336 20.4967V20.0684Z" fill="#FF57A8"/>
<path d="M-0.194336 19.6396L20.0799 40.8848H19.6712L-0.194336 20.068V19.6396Z" fill="#FF58A7"/>
<path d="M-0.194336 19.209L20.4908 40.8848H20.0799L-0.194336 19.6396V19.209Z" fill="#FF59A6"/>
<path d="M-0.194336 18.7803L20.8994 40.8844H20.4908L-0.194336 19.2086V18.7803Z" fill="#FF5AA5"/>
<path d="M-0.194336 18.3525L21.308 40.885H20.8994L-0.194336 18.7809V18.3525Z" fill="#FF5BA4"/>
<path d="M-0.194336 17.9219L21.7189 40.885H21.308L-0.194336 18.3525V17.9219Z" fill="#FF5CA3"/>
<path d="M-0.194336 17.4932L22.1275 40.8846H21.7189L-0.194336 17.9215V17.4932Z" fill="#FF5DA2"/>
<path d="M-0.194336 17.0654L22.5384 40.8852H22.1275L-0.194336 17.4938V17.0654Z" fill="#FF5EA1"/>
<path d="M-0.194336 16.6367L22.947 40.8848H22.5384L-0.194336 17.065V16.6367Z" fill="#FF5FA0"/>
<path d="M-0.194336 16.2061L23.3556 40.8848H22.947L-0.194336 16.6367V16.2061Z" fill="#FF609F"/>
<path d="M-0.194336 15.7773L23.7665 40.8844H23.3556L-0.194336 16.2057V15.7773Z" fill="#FF619E"/>
<path d="M-0.194336 15.3496L24.1751 40.885H23.7665L-0.194336 15.7779V15.3496Z" fill="#FF629D"/>
<path d="M-0.194336 14.9189L24.5837 40.885H24.1751L-0.194336 15.3496V14.9189Z" fill="#FF639C"/>
<path d="M-0.194336 14.4902L24.9946 40.8846H24.5837L-0.194336 14.9186V14.4902Z" fill="#FF649B"/>
<path d="M-0.194336 14.0625L25.4032 40.8852H24.9946L-0.194336 14.4908V14.0625Z" fill="#FF659A"/>
<path d="M-0.194336 13.6318L25.8118 40.8852H25.4032L-0.194336 14.0625V13.6318Z" fill="#FF6699"/>
<path d="M-0.194336 13.2031L26.2227 40.8848H25.8118L-0.194336 13.6314V13.2031Z" fill="#FF6798"/>
<path d="M-0.194336 12.7744L26.6313 40.8844H26.2227L-0.194336 13.2027V12.7744Z" fill="#FF6897"/>
<path d="M-0.194336 12.3467L27.0399 40.885H26.6313L-0.194336 12.775V12.3467Z" fill="#FF6996"/>
<path d="M-0.194336 11.916L27.4508 40.885H27.0399L-0.194336 12.3467V11.916Z" fill="#FF6A95"/>
<path d="M-0.194336 11.4873L27.8594 40.8846H27.4508L-0.194336 11.9156V11.4873Z" fill="#FF6B94"/>
<path d="M-0.194336 11.0596L28.2703 40.8852H27.8594L-0.194336 11.4879V11.0596Z" fill="#FF6C93"/>
<path d="M-0.194336 10.6289L28.6789 40.8852H28.2703L-0.194336 11.0596V10.6289Z" fill="#FF6E91"/>
<path d="M-0.194336 10.2002L29.0875 40.8848H28.6789L-0.194336 10.6285V10.2002Z" fill="#FF6F90"/>
<path d="M-0.194336 9.77148L29.4984 40.8844H29.0875L-0.194336 10.1998V9.77148Z" fill="#FF708F"/>
<path d="M-0.194336 9.34082L29.9071 40.8844H29.4984L-0.194336 9.77148V9.34082Z" fill="#FF718E"/>
<path d="M-0.194336 8.91309L30.3157 40.885H29.907L-0.194336 9.34141V8.91309Z" fill="#FF728D"/>
<path d="M-0.194336 8.48438L30.7266 40.8846H30.3157L-0.194336 8.9127V8.48438Z" fill="#FF738C"/>
<path d="M-0.194336 8.05664L31.1352 40.8852H30.7266L-0.194336 8.48496V8.05664Z" fill="#FF748B"/>
<path d="M-0.194336 7.62598L31.5438 40.8852H31.1352L-0.194336 8.05664V7.62598Z" fill="#FF758A"/>
<path d="M-0.194336 7.19727L31.9547 40.8848H31.5438L-0.194336 7.62559V7.19727Z" fill="#FF7689"/>
<path d="M-0.194336 6.76855L32.3633 40.8844H31.9547L-0.194336 7.19688V6.76855Z" fill="#FF7788"/>
<path d="M-0.194336 6.33789L32.7719 40.8844H32.3633L-0.194336 6.76855V6.33789Z" fill="#FF7887"/>
<path d="M-0.194336 5.91016L33.1828 40.885H32.7719L-0.194336 6.33848V5.91016Z" fill="#FF7986"/>
<path d="M-0.194336 5.48145L33.5914 40.8846H33.1828L-0.194336 5.90977V5.48145Z" fill="#FF7A85"/>
<path d="M-0.194336 5.05078L34 40.8846H33.5914L-0.194336 5.48144V5.05078Z" fill="#FF7B84"/>
<path d="M-0.194336 4.62305L34.4109 40.8852H34L-0.194336 5.05137V4.62305Z" fill="#FF7C83"/>
<path d="M-0.194336 4.19434L34.8195 40.8848H34.4109L-0.194336 4.62266V4.19434Z" fill="#FF7D82"/>
<path d="M-0.194336 3.76367L35.2304 40.8848H34.8195L-0.194336 4.19433V3.76367Z" fill="#FF7E81"/>
<path d="M-0.194336 3.33496L35.639 40.8844H35.2304L-0.194336 3.76328V3.33496Z" fill="#FF7F80"/>
<path d="M-0.194336 2.90723L36.0476 40.885H35.639L-0.194336 3.33555V2.90723Z" fill="#FF807F"/>
<path d="M-0.194336 2.47852L36.4585 40.8846H36.0476L-0.194336 2.90684V2.47852Z" fill="#FF817E"/>
<path d="M-0.194336 2.04785L36.8671 40.8846H36.4585L-0.194336 2.47851V2.04785Z" fill="#FF827D"/>
<path d="M-0.194336 1.62012L37.2757 40.8852H36.8671L-0.194336 2.04844V1.62012Z" fill="#FF837C"/>
<path d="M-0.194336 1.19141L37.6866 40.8848H37.2757L-0.194336 1.61973V1.19141Z" fill="#FF847B"/>
<path d="M-0.0772635 0.884766L38.0287 40.8146V40.8848H37.6866L-0.194336 1.19138V0.884766H-0.0772635Z" fill="#FF857A"/>
<path d="M0.333753 0.884766L38.0288 40.3862V40.8146L-0.0771484 0.884766H0.333753Z" fill="#FF8679"/>
<path d="M0.74259 0.884766L38.029 39.9579V40.3862L0.333984 0.884766H0.74259Z" fill="#FF8778"/>
<path d="M1.15079 0.884766L38.0286 39.5272V39.9579L0.742188 0.884766H1.15079Z" fill="#FF8877"/>
<path d="M1.56129 0.884766L38.0282 39.0989V39.5273L1.15039 0.884766H1.56129Z" fill="#FF8976"/>
<path d="M1.97013 0.884766L38.0284 38.6706V39.0989L1.56152 0.884766H1.97013Z" fill="#FF8A75"/>
<path d="M2.37931 0.884766L38.029 38.2399V38.6706L1.9707 0.884766H2.37931Z" fill="#FF8B74"/>
<path d="M2.78981 0.884766L38.0286 37.8116V38.2399L2.37891 0.884766H2.78981Z" fill="#FF8C73"/>
<path d="M3.19864 0.884766L38.0288 37.3833V37.8116L2.79004 0.884766H3.19864Z" fill="#FF8D72"/>
<path d="M3.60685 0.884766L38.0284 36.9526V37.3833L3.19824 0.884766H3.60685Z" fill="#FF8E71"/>
<path d="M4.01832 0.884766L38.029 36.5243V36.9526L3.60742 0.884766H4.01832Z" fill="#FF8F70"/>
<path d="M4.42618 0.884766L38.0283 36.096V36.5243L4.01758 0.884766H4.42618Z" fill="#FF906F"/>
<path d="M4.83536 0.884766L38.0288 35.6653V36.096L4.42676 0.884766H4.83536Z" fill="#FF916E"/>
<path d="M5.24586 0.884766L38.0284 35.237V35.6653L4.83496 0.884766H5.24586Z" fill="#FF926D"/>
<path d="M5.6547 0.884766L38.0287 34.8087V35.237L5.24609 0.884766H5.6547Z" fill="#FF936C"/>
<path d="M6.0652 0.884766L38.0283 34.3804V34.8087L5.6543 0.884766H6.0652Z" fill="#FF946B"/>
<path d="M6.47404 0.884766L38.0285 33.9497V34.3804L6.06543 0.884766H6.47404Z" fill="#FF956A"/>
<path d="M6.88322 0.884766L38.0291 33.5214V33.9497L6.47461 0.884766H6.88322Z" fill="#FF9669"/>
<path d="M7.29371 0.884766L38.0287 33.0931V33.5214L6.88281 0.884766H7.29371Z" fill="#FF9768"/>
<path d="M7.70255 0.884766L38.0289 32.6624V33.0931L7.29395 0.884766H7.70255Z" fill="#FF9867"/>
<path d="M8.11075 0.884766L38.0285 32.2341V32.6624L7.70215 0.884766H8.11075Z" fill="#FF9966"/>
<path d="M8.52223 0.884766L38.0291 31.8058V32.2341L8.11133 0.884766H8.52223Z" fill="#FF9A65"/>
<path d="M8.93009 0.884766L38.0283 31.3751V31.8058L8.52148 0.884766H8.93009Z" fill="#FF9B64"/>
<path d="M9.33927 0.884766L38.0289 30.9468V31.3751L8.93066 0.884766H9.33927Z" fill="#FF9C63"/>
<path d="M9.74977 0.884766L38.0285 30.5185V30.9468L9.33887 0.884766H9.74977Z" fill="#FF9D62"/>
<path d="M10.1586 0.884766L38.0287 30.0901V30.5185L9.75 0.884766H10.1586Z" fill="#FF9E61"/>
<path d="M10.5668 0.884766L38.0283 29.6595V30.0902L10.1582 0.884766H10.5668Z" fill="#FF9F60"/>
<path d="M10.9783 0.884766L38.0289 29.2312V29.6595L10.5674 0.884766H10.9783Z" fill="#FFA05F"/>
<path d="M11.3871 0.884766L38.0291 28.8028V29.2312L10.9785 0.884766H11.3871Z" fill="#FFA15E"/>
<path d="M11.7976 0.884766L38.0287 28.3722V28.8028L11.3867 0.884766H11.7976Z" fill="#FFA25D"/>
<path d="M12.2065 0.884766L38.029 27.9439V28.3722L11.7979 0.884766H12.2065Z" fill="#FFA35C"/>
<path d="M12.6147 0.884766L38.0286 27.5155V27.9439L12.2061 0.884766H12.6147Z" fill="#FFA45B"/>
<path d="M13.0261 0.884766L38.0291 27.0849V27.5155L12.6152 0.884766H13.0261Z" fill="#FFA55A"/>
<path d="M13.434 0.884766L38.0284 26.6566V27.0849L13.0254 0.884766H13.434Z" fill="#FFA659"/>
<path d="M13.8432 0.884766L38.029 26.2282V26.6566L13.4346 0.884766H13.8432Z" fill="#FFA758"/>
<path d="M14.2537 0.884766L38.0286 25.7976V26.2282L13.8428 0.884766H14.2537Z" fill="#FFA857"/>
<path d="M14.6625 0.884766L38.0288 25.3693V25.7976L14.2539 0.884766H14.6625Z" fill="#FFA956"/>
<path d="M15.0707 0.884766L38.0284 24.9409V25.3693L14.6621 0.884766H15.0707Z" fill="#FFAA55"/>
<path d="M15.4822 0.884766L38.029 24.5126V24.9409L15.0713 0.884766H15.4822Z" fill="#FFAB54"/>
<path d="M15.8901 0.884766L38.0282 24.082V24.5126L15.4814 0.884766H15.8901Z" fill="#FFAC53"/>
<path d="M16.2992 0.884766L38.0288 23.6536V24.082L15.8906 0.884766H16.2992Z" fill="#FFAD52"/>
<path d="M16.7097 0.884766L38.0284 23.2253V23.6536L16.2988 0.884766H16.7097Z" fill="#FFAE51"/>
<path d="M17.1186 0.884766L38.0286 22.7947V23.2253L16.71 0.884766H17.1186Z" fill="#FFAF50"/>
<path d="M17.5291 0.884766L38.0282 22.3663V22.7947L17.1182 0.884766H17.5291Z" fill="#FFB04F"/>
<path d="M17.9379 0.884766L38.0284 21.938V22.3663L17.5293 0.884766H17.9379Z" fill="#FFB14E"/>
<path d="M18.3471 0.884766L38.029 21.5074V21.938L17.9385 0.884766H18.3471Z" fill="#FFB24D"/>
<path d="M18.7576 0.884766L38.0286 21.079V21.5074L18.3467 0.884766H18.7576Z" fill="#FFB34C"/>
<path d="M19.1664 0.884766L38.0289 20.6507V21.079L18.7578 0.884766H19.1664Z" fill="#FFB44B"/>
<path d="M19.5746 0.884766L38.0284 20.2224V20.6507L19.166 0.884766H19.5746Z" fill="#FFB54A"/>
<path d="M19.9861 0.884766L38.029 19.7917V20.2224L19.5752 0.884766H19.9861Z" fill="#FFB649"/>
<path d="M20.394 0.884766L38.0283 19.3634V19.7917L19.9854 0.884766H20.394Z" fill="#FFB748"/>
<path d="M20.8031 0.884766L38.0289 18.9351V19.3634L20.3945 0.884766H20.8031Z" fill="#FFB847"/>
<path d="M21.2136 0.884766L38.0284 18.5044V18.9351L20.8027 0.884766H21.2136Z" fill="#FFB946"/>
<path d="M21.6225 0.884766L38.0287 18.0761V18.5044L21.2139 0.884766H21.6225Z" fill="#FFBA45"/>
<path d="M22.0307 0.884766L38.0283 17.6478V18.0761L21.6221 0.884766H22.0307Z" fill="#FFBB44"/>
<path d="M22.4422 0.884766L38.0289 17.2171V17.6478L22.0312 0.884766H22.4422Z" fill="#FFBC43"/>
<path d="M22.851 0.884766L38.0291 16.7888V17.2171L22.4424 0.884766H22.851Z" fill="#FFBD42"/>
<path d="M23.2592 0.884766L38.0287 16.3605V16.7888L22.8506 0.884766H23.2592Z" fill="#FFBE41"/>
<path d="M23.6697 0.884766L38.0283 15.9322V16.3605L23.2588 0.884766H23.6697Z" fill="#FFBF40"/>
<path d="M24.0785 0.884766L38.0285 15.5015V15.9322L23.6699 0.884766H24.0785Z" fill="#FFC03F"/>
<path d="M24.49 0.884766L38.0291 15.0732V15.5015L24.0791 0.884766H24.49Z" fill="#FFC13E"/>
<path d="M24.8979 0.884766L38.0283 14.6449V15.0732L24.4893 0.884766H24.8979Z" fill="#FFC23D"/>
<path d="M25.307 0.884766L38.0289 14.2142V14.6449L24.8984 0.884766H25.307Z" fill="#FFC33C"/>
<path d="M25.7175 0.884766L38.0285 13.7859V14.2142L25.3066 0.884766H25.7175Z" fill="#FFC43B"/>
<path d="M26.1264 0.884766L38.0287 13.3576V13.7859L25.7178 0.884766H26.1264Z" fill="#FFC53A"/>
<path d="M26.5346 0.884766L38.0283 12.9269V13.3576L26.126 0.884766H26.5346Z" fill="#FFC639"/>
<path d="M26.9461 0.884766L38.0289 12.4986V12.9269L26.5352 0.884766H26.9461Z" fill="#FFC738"/>
<path d="M27.3549 0.884766L38.0291 12.0703V12.4986L26.9463 0.884766H27.3549Z" fill="#FFC837"/>
<path d="M27.7631 0.884766L38.0287 11.6396V12.0703L27.3545 0.884766H27.7631Z" fill="#FFC936"/>
<path d="M28.1736 0.884766L38.0283 11.2113V11.6396L27.7627 0.884766H28.1736Z" fill="#FFCA35"/>
<path d="M28.5824 0.884766L38.0286 10.783V11.2113L28.1738 0.884766H28.5824Z" fill="#FFCB34"/>
<path d="M28.9916 0.884766L38.0291 10.3546V10.783L28.583 0.884766H28.9916Z" fill="#FFCC33"/>
<path d="M29.4021 0.884766L38.0287 9.92397V10.3546L28.9912 0.884766H29.4021Z" fill="#FFCD32"/>
<path d="M29.811 0.884766L38.029 9.49565V9.92397L29.4023 0.884766H29.811Z" fill="#FFCE31"/>
<path d="M30.2214 0.884766L38.0286 9.06733V9.49565L29.8105 0.884766H30.2214Z" fill="#FFCF30"/>
<path d="M30.6303 0.884766L38.0288 8.63667V9.06733L30.2217 0.884766H30.6303Z" fill="#FFD02F"/>
<path d="M31.0385 0.884766L38.0284 8.20835V8.63667L30.6299 0.884766H31.0385Z" fill="#FFD12E"/>
<path d="M31.45 0.884766L38.029 7.78003V8.20835L31.0391 0.884766H31.45Z" fill="#FFD22D"/>
<path d="M31.8578 0.884766L38.0282 7.34937V7.78003L31.4492 0.884766H31.8578Z" fill="#FFD32C"/>
<path d="M32.267 0.884766L38.0288 6.92104V7.34937L31.8584 0.884766H32.267Z" fill="#FFD42B"/>
<path d="M32.6775 0.884766L38.0284 6.49272V6.92104L32.2666 0.884766H32.6775Z" fill="#FFD52A"/>
<path d="M33.0863 0.884766L38.0286 6.0644V6.49272L32.6777 0.884766H33.0863Z" fill="#FFD629"/>
<path d="M33.4945 0.884766L38.0282 5.63374V6.0644L33.0859 0.884766H33.4945Z" fill="#FFD728"/>
<path d="M33.906 0.884766L38.0288 5.20542V5.63374L33.4951 0.884766H33.906Z" fill="#FFD827"/>
<path d="M34.3149 0.884766L38.029 4.7771V5.20542L33.9062 0.884766H34.3149Z" fill="#FFD926"/>
<path d="M34.7231 0.884766L38.0286 4.34644V4.7771L34.3145 0.884766H34.7231Z" fill="#FFDA25"/>
<path d="M35.1336 0.884766L38.0282 3.91812V4.34644L34.7227 0.884766H35.1336Z" fill="#FFDB24"/>
<path d="M35.5424 0.884766L38.0285 3.4898V3.91812L35.1338 0.884766H35.5424Z" fill="#FFDC23"/>
<path d="M35.9516 0.884766L38.029 3.05914V3.4898L35.543 0.884766H35.9516Z" fill="#FFDD22"/>
<path d="M36.3621 0.884766L38.0286 2.63082V3.05914L35.9512 0.884766H36.3621Z" fill="#FFDE21"/>
<path d="M36.7709 0.884766L38.0289 2.2025V2.63082L36.3623 0.884766H36.7709Z" fill="#FFDF20"/>
<path d="M37.1814 0.884766L38.0285 1.77183V2.2025L36.7705 0.884766H37.1814Z" fill="#FFE01F"/>
<path d="M37.5902 0.884766L38.0287 1.34351V1.77183L37.1816 0.884766H37.5902Z" fill="#FFE11E"/>
<path d="M37.9984 0.884766L38.0283 0.915193V1.34351L37.5898 0.884766H37.9984Z" fill="#FFE21D"/>
</g>
</g>
<mask id="mask2_133_478" style="mask-type:luminance" maskUnits="userSpaceOnUse" x="23" y="5" width="4" height="4">
<path d="M23.907 5.69919C24.3982 5.19831 25.422 5.43237 26.1956 6.22113C26.9692 7.0099 27.1965 8.05378 26.7075 8.55466C26.2163 9.05554 25.1925 8.82148 24.4189 8.03272C23.6453 7.24395 23.418 6.20007 23.907 5.69919Z" fill="white"/>
</mask>
<g mask="url(#mask2_133_478)">
<mask id="mask3_133_478" style="mask-type:luminance" maskUnits="userSpaceOnUse" x="23" y="5" width="5" height="5">
<path d="M27.1968 5.19824H23.416V9.05313H27.1968V5.19824Z" fill="white"/>
</mask>
<g mask="url(#mask3_133_478)">
<path d="M23.416 8.75586L23.703 9.05545H23.416V8.75586Z" fill="#FFA956"/>
<path d="M23.416 8.32715L24.1116 9.05506H23.703L23.416 8.75547V8.32715Z" fill="#FFAA55"/>
<path d="M23.416 7.89648L24.5202 9.05506H24.1116L23.416 8.32715V7.89648Z" fill="#FFAB54"/>
<path d="M23.416 7.46875L24.9311 9.05564H24.5202L23.416 7.89707V7.46875Z" fill="#FFAC53"/>
<path d="M23.416 7.04004L25.3397 9.05525H24.9311L23.416 7.46836V7.04004Z" fill="#FFAD52"/>
<path d="M23.416 6.60938L25.7483 9.05525H25.3397L23.416 7.04004V6.60938Z" fill="#FFAE51"/>
<path d="M23.416 6.18164L26.1592 9.05584H25.7483L23.416 6.60996V6.18164Z" fill="#FFAF50"/>
<path d="M23.416 5.75293L26.5678 9.05545H26.1592L23.416 6.18125V5.75293Z" fill="#FFB04F"/>
<path d="M23.416 5.32227L26.9764 9.05544H26.5678L23.416 5.75293V5.32227Z" fill="#FFB14E"/>
<path d="M23.7075 5.19824L27.1991 8.85652V9.05547H26.9764L23.416 5.32229V5.19824H23.7075Z" fill="#FFB24D"/>
<path d="M24.1166 5.19824L27.1995 8.4282V8.85652L23.708 5.19824H24.1166Z" fill="#FFB34C"/>
<path d="M24.5271 5.19824L27.1991 7.99754V8.4282L24.1162 5.19824H24.5271Z" fill="#FFB44B"/>
<path d="M24.9359 5.19824L27.1993 7.56922V7.99754L24.5273 5.19824H24.9359Z" fill="#FFB54A"/>
<path d="M25.3442 5.19824L27.1989 7.1409V7.56922L24.9355 5.19824H25.3442Z" fill="#FFB649"/>
<path d="M25.7556 5.19824L27.1995 6.71258V7.1409L25.3447 5.19824H25.7556Z" fill="#FFB748"/>
<path d="M26.1635 5.19824L27.1988 6.28192V6.71258L25.7549 5.19824H26.1635Z" fill="#FFB847"/>
<path d="M26.5727 5.19824L27.1994 5.8536V6.28192L26.1641 5.19824H26.5727Z" fill="#FFB946"/>
<path d="M26.9832 5.19824L27.1989 5.42528V5.8536L26.5723 5.19824H26.9832Z" fill="#FFBA45"/>
</g>
</g>
</svg>
