<?xml version="1.0" encoding="UTF-8"?>
<svg id="Layer_1" xmlns="http://www.w3.org/2000/svg" version="1.1" viewBox="0 0 1657.91 474.6">
  <!-- Generator: Adobe Illustrator 29.3.0, SVG Export Plug-In . SVG Version: 2.1.0 Build 146)  -->
  <defs>
    <style>
      .st0 {
        fill: #fff;
      }

      .st1 {
        fill: #004096;
      }
    </style>
  </defs>
  <path class="st0" d="M-111.43,372.1v643.11h-1805.22V372.1H-111.43ZM-1161.89,523.75l-2.64-38.09-62.15-1.24c-2.65,2.65,4.75,34.41-4.21,39.33h-136.59v42.13h45.06c-30.21,36.55-19.23,73.62,18.81,97.79,52.65,33.45,150.32,34.36,205.58,6.61,31.24-15.69,58.46-46.97,43.26-83.45-3.26-7.82-10.2-12.83-11.37-20.96h45.06v-42.13h-140.81ZM-1449.15,515.33h-64.77v252.75h64.77v-252.75ZM-643.7,515.33h-61.96v359.47h61.96v-359.47ZM-345.18,591.15c-27.47-97.35-196.26-99.34-232.3-8.39-26.88,67.82,38.27,121.48,101.39,126.3,58.39,4.45,111.9-20.88,135.14-75.78h52.1v75.83h64.77v-190.97h-64.77v73.02h-56.33ZM-1544.91,523.75h-253.46v42.13h92.94c-2.59,66.6-43.62,109.41-101.33,136.2l29.92,31.85c42.95-15.63,83.01-44.25,106.63-83.79,1.06,23.76,75.96,90.48,94.24,82.93l28.2-30.99c-55.28-25.72-88.41-74.32-87.25-136.2h90.12v-42.13ZM-959.12,565.88h133.77c1.74,0,3.9,4.15,4.08,6.73.53,7.72-7.09,34.57-9.71,43.82-20.96,73.84-72.64,143.97-133.76,189.6-1.59,6.29,40.14,25.39,46.48,31.35,75.75-49.94,131.17-141.05,153.26-228.17,4.44-17.51,21.84-85.44-9.65-85.44h-184.46v42.13ZM-1018.27,703.48h-360.48v42.13h61.96c-27.66,24.98-50.5,50.66-32.44,89.92,37.91,82.38,250.13,83.11,301.21,11,28.33-39.98,6.57-74.51-26.57-100.92h56.33v-42.13ZM-469.1,728.76h-61.96v136.2c0,1.15,11.2,9.83,12.67,9.83H-224.08v-146.03h-64.77v33.7h-176.02c-8.62-4.36-1.86-31.34-4.22-33.7ZM-1694.17,756.84h-64.77v110.93c0,.7,9.16,9.83,9.86,9.83h299.93v-42.13h-245.01v-78.63Z"/>
  <path class="st1" d="M818.51,250.95v42.13h-56.33c33.14,26.41,54.9,60.94,26.57,100.92-51.08,72.11-263.3,71.38-301.21-11-18.06-39.26,4.77-64.94,32.44-89.92h-61.96v-42.13h360.48ZM623.62,305.15c-85.59,7.38-108.67,73.74-16.97,91.07,33.03,6.24,126.16,3.48,127.61-42.74,1.41-44.95-78.88-51.07-110.64-48.33Z"/>
  <path class="st1" d="M1491.59,138.62h56.33v-73.02h64.77v190.97h-64.77v-75.83h-52.1c-23.23,54.9-76.75,80.24-135.14,75.78-63.12-4.81-128.27-58.47-101.39-126.3,36.04-90.96,204.83-88.96,232.3,8.39ZM1361.31,108.41c-9.92,1.71-23.5,10.1-30.23,17.59-40.78,45.44,16.66,107.3,70.12,81.15,57.34-28.04,27.79-110.42-39.89-98.75Z"/>
  <path class="st1" d="M674.88,71.22h140.81v42.13h-45.06c1.17,8.13,8.11,13.13,11.37,20.96,15.19,36.48-12.03,67.76-43.26,83.45-55.26,27.75-152.93,26.84-205.58-6.61-38.04-24.17-49.02-61.24-18.81-97.79h-45.06v-42.13h136.59c8.96-4.92,1.56-36.68,4.21-39.33l62.15,1.24,2.64,38.09ZM568.84,133.97c-19.77,22.02-3.24,43.36,19.61,52.92,30.76,12.88,94.65,12.44,121.63-8.96,17.33-13.74,17.26-33.75.05-47.78-28.15-22.95-116.45-23.83-141.28,3.82Z"/>
  <path class="st1" d="M1367.68,276.23c2.37,2.36-4.39,29.34,4.22,33.7h176.02v-33.7h64.77v146.03h-294.3c-1.47,0-12.67-8.67-12.67-9.83v-136.2h61.96ZM1547.92,352.05h-176.02c-6.56,5.61-6.56,19.66,0,25.28h176.02v-25.28Z"/>
  <path class="st1" d="M291.87,71.22v42.13h-90.12c-1.16,61.88,31.97,110.49,87.25,136.2l-28.2,30.99c-18.28,7.56-93.19-59.17-94.24-82.93-23.61,39.55-63.68,68.16-106.63,83.79l-29.92-31.85c57.71-26.8,98.74-69.61,101.33-136.2H38.41v-42.13h253.46Z"/>
  <path class="st1" d="M877.65,113.35v-42.13h184.46c31.49,0,14.09,67.93,9.65,85.44-22.09,87.13-77.5,178.24-153.26,228.17-6.34-5.96-48.08-25.06-46.48-31.35,61.13-45.62,112.81-115.76,133.76-189.6,2.63-9.25,10.24-36.1,9.71-43.82-.18-2.58-2.34-6.73-4.08-6.73h-133.77Z"/>
  <rect class="st1" x="1131.11" y="62.8" width="61.96" height="359.47"/>
  <path class="st1" d="M142.61,304.31v78.63h245.01v42.13H87.69c-.7,0-9.86-9.13-9.86-9.83v-110.93h64.77Z"/>
  <rect class="st1" x="322.85" y="62.8" width="64.77" height="252.75"/>
  <path class="st0" d="M-1600.03,143.2c31.76-2.74,112.05,3.37,110.64,48.33-1.45,46.21-94.58,48.98-127.61,42.74-91.69-17.33-68.62-83.68,16.97-91.07Z"/>
  <path class="st0" d="M-390.71,137.76c67.68-11.68,97.23,70.71,39.89,98.75-53.46,26.14-110.9-35.71-70.12-81.15,6.73-7.5,20.31-15.88,30.23-17.59Z"/>
  <path class="st0" d="M-1186.42,98.11c24.83-27.65,113.13-26.77,141.28-3.82,17.21,14.03,17.28,34.03-.05,47.78-26.98,21.4-90.87,21.84-121.63,8.96-22.85-9.56-39.38-30.9-19.61-52.92Z"/>
  <path class="st0" d="M-741.03,189.68v25.28h-176.02c-6.56-5.61-6.56-19.66,0-25.28h176.02Z"/>
</svg>