<svg width="193" height="194" viewBox="0 0 193 194" fill="none" xmlns="http://www.w3.org/2000/svg">
<g clip-path="url(#clip0_166_520)">
<path d="M23.6301 38.5502L24.9401 39.6802L32.3601 30.9902C32.5801 30.7202 32.7801 30.5902 32.9601 30.6202C33.1401 30.6502 33.3701 30.7902 33.6601 31.0402L34.7801 32.0402C35.0701 32.2902 35.2301 32.5102 35.2701 32.6802C35.3101 32.8502 35.2101 33.0602 34.9801 33.3302L31.6001 37.2802L32.5001 38.0802L36.1001 33.8802C36.3001 33.6602 36.4801 33.5302 36.6401 33.5002C36.8001 33.4702 36.9801 33.5502 37.1901 33.7402L38.7601 35.1302C38.9701 35.3202 39.0701 35.4902 39.0601 35.6502C39.0601 35.8102 38.9501 36.0002 38.7501 36.2302L28.7701 47.8302C28.5701 48.0502 28.3901 48.1802 28.2301 48.2102C28.0701 48.2402 27.8901 48.1602 27.6801 47.9702L26.1101 46.5702C25.9001 46.3802 25.8001 46.2102 25.8001 46.0502C25.8001 45.8902 25.9101 45.7002 26.1101 45.4702L29.7201 41.2902L28.8201 40.4902L25.5101 44.3302C25.2801 44.5902 25.0501 44.7102 24.8201 44.6902C24.5901 44.6702 24.3301 44.5402 24.0301 44.2902L19.0601 40.1702C18.7301 39.8902 18.5501 39.6502 18.5201 39.4402C18.5001 39.2302 18.6001 38.9902 18.8501 38.7102L28.5901 27.3702C28.8301 27.1002 29.0301 26.9602 29.1801 26.9702C29.3301 26.9702 29.5601 27.1302 29.8901 27.4202L30.9701 28.3802C31.2901 28.6702 31.4701 28.8802 31.4901 29.0202C31.5101 29.1602 31.4101 29.3702 31.1701 29.6602L23.6201 38.5302L23.6301 38.5502ZM41.5601 48.9702C40.8101 49.8202 40.0601 50.4702 39.3201 50.9302C38.5801 51.3902 37.8701 51.6702 37.1901 51.7802C36.5101 51.8902 35.8701 51.8502 35.2601 51.6502C34.6501 51.4602 34.1001 51.1402 33.6001 50.6902C33.1001 50.2502 32.7201 49.7402 32.4601 49.1502C32.2001 48.5702 32.0801 47.9402 32.1101 47.2502C32.1401 46.5602 32.3401 45.8302 32.7001 45.0402C33.0701 44.2502 33.6301 43.4302 34.3801 42.5902C35.1401 41.7302 35.8901 41.0802 36.6301 40.6202C37.3701 40.1702 38.0701 39.8902 38.7501 39.7802C39.4301 39.6702 40.0701 39.7102 40.6801 39.9002C41.2901 40.1002 41.8401 40.4102 42.3401 40.8602C42.8401 41.3002 43.2201 41.8102 43.4801 42.4002C43.7401 42.9902 43.8601 43.6102 43.8301 44.3002C43.8001 44.9902 43.6001 45.7202 43.2401 46.5002C42.8801 47.2802 42.3201 48.1002 41.5501 48.9602L41.5601 48.9702ZM39.2801 46.9502C39.8701 46.2902 40.1601 45.7102 40.1501 45.2002C40.1501 44.6902 39.9601 44.2802 39.6001 43.9602C39.2401 43.6402 38.8101 43.5102 38.3001 43.5602C37.8001 43.6102 37.2501 43.9702 36.6601 44.6302C36.0701 45.2902 35.7801 45.8702 35.7901 46.3802C35.7901 46.8902 35.9801 47.3002 36.3401 47.6202C36.7001 47.9402 37.1301 48.0802 37.6401 48.0202C38.1401 47.9702 38.6901 47.6102 39.2801 46.9502Z" fill="white"/>
<path d="M47.4006 13.2308C47.7006 13.0208 47.9606 12.9408 48.1606 13.0008C48.3706 13.0508 48.5906 13.2608 48.8206 13.6308L52.0006 18.6608C52.2006 18.9908 52.3006 19.2608 52.2906 19.4908C52.2906 19.7208 52.1406 19.9308 51.8506 20.1308L40.1106 28.4808C39.8206 28.6808 39.5706 28.7408 39.3606 28.6608C39.1506 28.5808 38.9206 28.3908 38.6906 28.0908L35.1406 23.3108C34.8806 22.9608 34.7606 22.6808 34.7906 22.4708C34.8206 22.2608 34.9806 22.0508 35.2906 21.8408L47.4006 13.2408V13.2308ZM47.4906 19.2608L46.5006 17.8208L39.8006 22.5908L40.8106 24.0208L47.4906 19.2608ZM50.0506 26.4808L50.5606 27.2208L54.5006 24.4008C54.8206 24.1808 55.0706 24.0908 55.2606 24.1108C55.4506 24.1308 55.6406 24.3108 55.8306 24.6508L57.9906 28.2008C58.1706 28.5208 58.2506 28.7608 58.2206 28.9208C58.2006 29.0808 58.0306 29.2708 57.7206 29.5008L49.8506 35.4408L50.4006 36.2408L58.2206 30.5808C58.4606 30.4008 58.6506 30.3208 58.8106 30.3608C58.9706 30.4008 59.1206 30.5308 59.2806 30.7608L60.0406 31.8708C60.2006 32.1008 60.2606 32.2908 60.2306 32.4408C60.2006 32.5908 60.0606 32.7408 59.8106 32.9108L49.3506 40.3808C49.0406 40.6108 48.8006 40.7008 48.6306 40.6608C48.4606 40.6208 48.2606 40.4408 48.0306 40.1308L45.5506 36.7708C45.3206 36.4608 45.2206 36.2208 45.2606 36.0408C45.3006 35.8608 45.4706 35.6608 45.7806 35.4308L53.7806 29.3708L53.2706 28.6308L44.4806 34.9608C44.2706 35.1008 44.1206 35.1808 44.0106 35.1908C43.9106 35.2008 43.8106 35.1408 43.7106 35.0008L42.6106 33.3908C42.5106 33.2408 42.4806 33.1108 42.5206 33.0108C42.5606 32.9108 42.6906 32.7908 42.8906 32.6508L47.0706 29.6908L46.5606 28.9508L42.0506 32.1408C41.8006 32.3108 41.6006 32.3908 41.4406 32.3808C41.2806 32.3708 41.1206 32.2508 40.9606 32.0108L40.0006 30.6108C39.8406 30.3808 39.7806 30.1808 39.8306 30.0308C39.8806 29.8808 40.0206 29.7208 40.2706 29.5508L52.7506 20.6908C53.0006 20.5208 53.2006 20.4408 53.3606 20.4508C53.5206 20.4608 53.6806 20.5808 53.8406 20.8208L54.8006 22.2208C54.9606 22.4508 55.0206 22.6508 54.9706 22.8008C54.9206 22.9508 54.7806 23.1108 54.5306 23.2808L50.0306 26.4908L50.0506 26.4808Z" fill="white"/>
<path d="M69.2003 19.3604L69.7503 20.8404L74.6603 18.9104C74.9403 18.8104 75.1603 18.7804 75.3103 18.8304C75.4603 18.8804 75.5903 19.0404 75.6903 19.3004L76.5103 21.5004C76.6103 21.7704 76.6203 21.9704 76.5403 22.1004C76.4603 22.2404 76.2803 22.3604 75.9903 22.4604L62.2003 27.8504C61.9203 27.9504 61.7003 27.9804 61.5503 27.9304C61.4003 27.8804 61.2703 27.7204 61.1703 27.4604L60.3503 25.2604C60.2503 24.9904 60.2403 24.7904 60.3303 24.6604C60.4103 24.5204 60.5903 24.4004 60.8703 24.3004L65.7903 22.3904L65.2403 20.9104L60.6303 22.7104C60.3003 22.8304 60.0403 22.8304 59.8503 22.7104C59.6603 22.5904 59.4903 22.3504 59.3403 21.9904L55.1403 11.2004C54.9703 10.8004 54.9303 10.5004 55.0103 10.3004C55.0903 10.1004 55.3003 9.9404 55.6403 9.8104L57.8403 8.9904C58.1703 8.8704 58.4303 8.8604 58.6103 8.9504C58.8003 9.0504 58.9703 9.3004 59.1203 9.7104L59.9503 11.9404L67.1303 9.0804L66.3203 6.7704C66.1703 6.3604 66.1303 6.0604 66.2103 5.8604C66.2903 5.6604 66.4903 5.5004 66.8203 5.3804L69.0203 4.5604C69.3603 4.4304 69.6303 4.4204 69.8203 4.5204C70.0103 4.6204 70.1703 4.8704 70.3003 5.2904L74.0103 16.2604C74.1303 16.6304 74.1603 16.9204 74.1003 17.1404C74.0403 17.3604 73.8403 17.5304 73.5203 17.6504L69.2003 19.3604ZM69.3603 15.2704L68.3703 12.5404L61.2603 15.3704L62.2503 18.0404L69.3503 15.2604L69.3603 15.2704Z" fill="white"/>
<path d="M78.1406 6.6104C77.8406 6.6404 77.6306 6.6104 77.4906 6.5304C77.3506 6.4404 77.2706 6.2604 77.2406 5.9804L77.0206 4.0204C76.9906 3.7404 77.0206 3.5404 77.1406 3.4304C77.2606 3.3204 77.4606 3.2404 77.7606 3.2104L83.0906 2.5404L82.9706 1.5004C82.9206 1.0704 82.9706 0.770404 83.0806 0.590404C83.2006 0.420404 83.4406 0.310404 83.7906 0.270404L86.1806 0.0104036C86.5406 -0.0295964 86.8006 0.0204036 86.9506 0.160404C87.1006 0.300404 87.2006 0.590404 87.2506 1.0204L87.3606 1.9904L92.6906 1.3004C92.9906 1.2704 93.2006 1.3004 93.3406 1.3804C93.4806 1.4604 93.5606 1.6504 93.5906 1.9304L93.8106 3.8904C93.8406 4.1704 93.8106 4.3704 93.6906 4.4804C93.5706 4.5904 93.3706 4.6704 93.0706 4.7004L78.1406 6.6004V6.6104ZM78.8006 12.1004C78.7306 11.4404 78.8006 10.8004 79.0306 10.2004C79.2606 9.6004 79.6506 9.0504 80.2106 8.5504C80.7706 8.0504 81.5006 7.6304 82.4206 7.2704C83.3406 6.9204 84.4406 6.6704 85.7306 6.5304C87.0206 6.3904 88.1506 6.3904 89.1306 6.5304C90.1006 6.6704 90.9106 6.9304 91.5706 7.2904C92.2306 7.6504 92.7306 8.1104 93.0806 8.6404C93.4306 9.1804 93.6506 9.7804 93.7206 10.4404C93.8506 11.5804 93.5306 12.6204 92.7706 13.5504C92.0106 14.4804 90.7206 15.1804 88.8906 15.6504L89.0206 16.7904L94.2506 16.1104C94.5506 16.0804 94.7706 16.1104 94.9006 16.1904C95.0406 16.2704 95.1206 16.4604 95.1506 16.7404L95.4106 19.0804C95.4406 19.3604 95.4106 19.5604 95.2906 19.6704C95.1706 19.7804 94.9706 19.8604 94.6706 19.8904L79.9906 21.7704C79.6906 21.8004 79.4806 21.7704 79.3406 21.6904C79.2106 21.6104 79.1206 21.4204 79.0906 21.1404L78.8306 18.8004C78.8006 18.5204 78.8406 18.3204 78.9506 18.2104C79.0606 18.1004 79.2706 18.0204 79.5706 17.9904L84.8106 17.3304L84.6806 16.1104C82.8006 16.0504 81.3806 15.6504 80.4306 14.9104C79.4806 14.1704 78.9506 13.2304 78.8206 12.0804L78.8006 12.1004ZM86.4406 12.9904C87.2706 12.9004 87.9406 12.6904 88.4406 12.3504C88.9506 12.0204 89.1706 11.5504 89.1006 10.9604C89.0306 10.3604 88.7206 9.9604 88.1506 9.7404C87.5806 9.5304 86.8806 9.4704 86.0506 9.5604C85.2206 9.6504 84.5506 9.8604 84.0506 10.2004C83.5506 10.5404 83.3206 11.0004 83.3906 11.5904C83.4606 12.1904 83.7706 12.5904 84.3406 12.8004C84.9106 13.0104 85.6106 13.0704 86.4406 12.9804V12.9904Z" fill="white"/>
<path d="M98.2004 11.9208C98.0604 11.7508 98.0204 11.5908 98.0704 11.4408C98.1304 11.3008 98.2604 11.1508 98.4704 11.0008L101.94 8.46076C102.17 8.29076 102.32 8.08076 102.4 7.82076C102.48 7.56076 102.54 7.28076 102.58 6.99076L103.39 1.90076C103.46 1.47076 103.57 1.19076 103.74 1.06076C103.91 0.930755 104.16 0.890755 104.51 0.940755L106.83 1.31076C107.18 1.36076 107.41 1.48076 107.52 1.66076C107.63 1.84076 107.66 2.14076 107.59 2.57076L106.78 7.66076C106.73 7.96076 106.7 8.24076 106.69 8.52076C106.69 8.80076 106.76 9.04076 106.93 9.25076L109.48 12.4908C109.82 12.9008 109.81 13.2208 109.45 13.4508L107.34 14.9608C107.13 15.1108 106.95 15.1708 106.79 15.1308C106.64 15.0908 106.48 14.9708 106.33 14.7808L103.96 11.8508L100.78 14.1508C100.4 14.4308 100.06 14.3808 99.7604 14.0108L98.2004 11.9108V11.9208ZM101.86 24.0708C101.49 24.0308 101.26 23.9208 101.15 23.7308C101.04 23.5408 101.03 23.2408 101.09 22.8108L102.07 16.6408C102.14 16.2108 102.25 15.9308 102.42 15.8008C102.59 15.6708 102.84 15.6308 103.19 15.6808L105.51 16.0508C105.87 16.1108 106.11 16.2208 106.21 16.4008C106.32 16.5808 106.34 16.8808 106.27 17.3108L105.72 20.7908L116 22.2208C116.3 22.2508 116.49 22.3408 116.58 22.4908C116.67 22.6408 116.68 22.8808 116.63 23.2108L116.31 25.2408C116.26 25.5708 116.17 25.7808 116.04 25.8808C115.92 25.9808 115.69 26.0108 115.35 25.9708L101.86 24.0708ZM111.24 9.99076L109.11 9.73075C108.81 9.70075 108.61 9.62076 108.5 9.49076C108.39 9.36076 108.36 9.16076 108.41 8.88076L108.78 6.56076C108.82 6.28076 108.92 6.10076 109.05 6.03076C109.19 5.96076 109.41 5.94076 109.71 5.97076L111.84 6.23076L112.22 3.81076C112.29 3.38076 112.4 3.10076 112.57 2.97076C112.74 2.84076 112.99 2.80076 113.34 2.85076L115.66 3.22076C116.02 3.28076 116.26 3.39076 116.36 3.57076C116.47 3.75076 116.49 4.05076 116.42 4.48076L114.51 16.4808C114.44 16.9108 114.33 17.1908 114.17 17.3308C114.01 17.4608 113.75 17.5008 113.39 17.4508L111.07 17.0808C110.72 17.0208 110.49 16.9108 110.38 16.7308C110.26 16.5508 110.24 16.2508 110.31 15.8208L111.24 9.99076ZM117.64 4.43076C117.71 4.00076 117.82 3.72076 117.99 3.59076C118.15 3.46076 118.41 3.42076 118.76 3.47076L121.08 3.84076C121.44 3.90076 121.68 4.01076 121.78 4.19076C121.89 4.37076 121.91 4.67076 121.84 5.10076L119.93 17.1008C119.86 17.5308 119.75 17.8108 119.59 17.9408C119.43 18.0808 119.17 18.1108 118.81 18.0608L116.49 17.6908C116.14 17.6408 115.91 17.5208 115.8 17.3408C115.68 17.1608 115.66 16.8608 115.73 16.4308L117.64 4.43076Z" fill="white"/>
<path d="M127.811 6.99033C127.931 6.73033 128.071 6.59033 128.221 6.56033C128.371 6.53033 128.591 6.57033 128.871 6.69033L138.831 11.1303C139.111 11.2403 139.281 11.3803 139.351 11.5303C139.421 11.6803 139.391 11.8903 139.271 12.1403L138.231 14.3303C138.111 14.5903 137.971 14.7303 137.821 14.7603C137.671 14.7903 137.451 14.7503 137.171 14.6303L130.461 11.6203L129.011 14.7503L133.941 16.9503C134.211 17.0803 134.381 17.2103 134.451 17.3603C134.521 17.5003 134.491 17.7003 134.371 17.9603L133.361 20.0803C133.241 20.3403 133.101 20.4803 132.941 20.5203C132.781 20.5603 132.571 20.5203 132.301 20.3803L127.411 18.2003L125.831 21.6603L131.951 24.3903C132.231 24.5003 132.401 24.6403 132.471 24.7903C132.541 24.9403 132.511 25.1503 132.391 25.4003L131.421 27.4603C131.301 27.7203 131.161 27.8603 131.011 27.8903C130.861 27.9203 130.641 27.8803 130.361 27.7603L121.221 23.7003C120.881 23.5603 120.691 23.3803 120.651 23.1803C120.611 22.9803 120.671 22.6703 120.841 22.2803L127.811 6.99033ZM141.201 14.0603C141.391 13.6703 141.581 13.4303 141.771 13.3503C141.971 13.2703 142.221 13.3003 142.541 13.4503L144.661 14.4603C144.991 14.6203 145.181 14.8003 145.241 15.0003C145.301 15.2003 145.231 15.5003 145.041 15.8903L138.451 29.8103C138.261 30.2003 138.081 30.4403 137.891 30.5303C137.701 30.6203 137.441 30.5803 137.111 30.4203L134.991 29.4103C134.671 29.2603 134.491 29.0803 134.431 28.8803C134.371 28.6803 134.431 28.3803 134.621 27.9903L137.241 22.4603L135.121 21.5103C134.841 21.4003 134.671 21.2603 134.601 21.1103C134.531 20.9603 134.561 20.7503 134.681 20.5003L135.691 18.3803C135.811 18.1203 135.951 17.9803 136.101 17.9503C136.251 17.9203 136.471 17.9603 136.751 18.0803L138.871 19.0303L141.211 14.0803L141.201 14.0603Z" fill="white"/>
<path d="M163.88 71.6808C163.48 70.6208 163.25 69.6508 163.19 68.7908C163.13 67.9208 163.21 67.1608 163.43 66.5108C163.65 65.8608 163.99 65.3108 164.44 64.8608C164.9 64.4108 165.44 64.0708 166.06 63.8408C166.68 63.6108 167.31 63.5108 167.95 63.5408C168.59 63.5708 169.2 63.7708 169.8 64.1208C170.39 64.4708 170.95 64.9908 171.48 65.6808C172.01 66.3708 172.47 67.2508 172.87 68.3108C173.27 69.3908 173.5 70.3508 173.56 71.2208C173.62 72.0808 173.53 72.8408 173.32 73.4908C173.1 74.1408 172.76 74.6908 172.31 75.1408C171.86 75.5908 171.31 75.9308 170.69 76.1608C170.07 76.3908 169.44 76.4908 168.8 76.4608C168.16 76.4208 167.55 76.2308 166.96 75.8808C166.37 75.5308 165.81 75.0208 165.28 74.3308C164.76 73.6508 164.29 72.7708 163.89 71.6908L163.88 71.6808ZM166.74 70.6108C167.05 71.4408 167.43 71.9708 167.88 72.2008C168.33 72.4308 168.78 72.4608 169.24 72.2908C169.69 72.1208 170.01 71.8008 170.2 71.3308C170.39 70.8608 170.33 70.2108 170.02 69.3808C169.71 68.5508 169.33 68.0208 168.88 67.7908C168.43 67.5608 167.98 67.5308 167.52 67.7008C167.07 67.8708 166.75 68.1908 166.56 68.6608C166.37 69.1308 166.43 69.7808 166.74 70.6108ZM181.46 60.6708L179.85 61.3008L184.08 71.9208C184.22 72.2408 184.24 72.4808 184.13 72.6208C184.02 72.7708 183.79 72.9108 183.43 73.0408L182.03 73.5708C181.67 73.7008 181.41 73.7508 181.24 73.7108C181.07 73.6708 180.93 73.4808 180.8 73.1508L178.88 68.3208L177.76 68.7408L179.8 73.8808C179.91 74.1608 179.93 74.3808 179.88 74.5308C179.83 74.6808 179.67 74.8108 179.41 74.9108L177.44 75.6508C177.18 75.7508 176.97 75.7608 176.84 75.6808C176.71 75.6008 176.58 75.4208 176.47 75.1408L170.86 60.9008C170.75 60.6208 170.73 60.4008 170.78 60.2508C170.83 60.1008 170.99 59.9708 171.25 59.8708L173.22 59.1308C173.48 59.0308 173.69 59.0208 173.82 59.1008C173.95 59.1808 174.08 59.3608 174.19 59.6408L176.2 64.7908L177.32 64.3708L175.47 59.6508C175.35 59.3208 175.35 59.0608 175.47 58.8708C175.59 58.6808 175.83 58.5108 176.19 58.3608L182.15 55.8808C182.55 55.7108 182.85 55.6708 183.05 55.7408C183.25 55.8108 183.41 56.0308 183.54 56.3708L189.03 70.2808C189.16 70.6208 189.18 70.8608 189.11 70.9908C189.03 71.1208 188.79 71.2608 188.39 71.4108L187.03 71.9208C186.62 72.0708 186.35 72.1308 186.22 72.0808C186.09 72.0308 185.95 71.8408 185.8 71.5008L181.47 60.6808L181.46 60.6708Z" fill="white"/>
<path d="M179.78 89.6809L178.89 89.7809L179.54 94.5908C179.58 94.9708 179.55 95.2409 179.44 95.3909C179.33 95.5409 179.08 95.6309 178.7 95.6409L174.55 95.8909C174.18 95.8909 173.93 95.8509 173.81 95.7609C173.69 95.6709 173.59 95.4309 173.53 95.0509L171.97 85.3109L171 85.4209L172.34 94.9809C172.39 95.2809 172.36 95.4809 172.26 95.6109C172.16 95.7309 171.96 95.8108 171.68 95.8408L170.34 95.9909C170.06 96.0209 169.86 95.9909 169.75 95.8909C169.64 95.7909 169.57 95.6009 169.53 95.3009L167.83 82.5609C167.77 82.1809 167.8 81.9309 167.92 81.7909C168.04 81.6609 168.29 81.5609 168.67 81.5009L172.8 80.8808C173.18 80.8208 173.44 80.8509 173.58 80.9709C173.72 81.0909 173.82 81.3409 173.88 81.7209L175.49 91.6308L176.38 91.5309L174.91 80.8009C174.88 80.5509 174.89 80.3809 174.93 80.2809C174.97 80.1809 175.07 80.1309 175.24 80.1109L177.18 79.8909C177.36 79.8709 177.49 79.9009 177.56 79.9909C177.63 80.0709 177.68 80.2409 177.71 80.4909L178.36 85.5709L179.25 85.4709L178.55 79.9909C178.52 79.6909 178.55 79.4808 178.63 79.3408C178.71 79.2008 178.9 79.1208 179.18 79.0908L180.87 78.9009C181.15 78.8709 181.35 78.9008 181.46 79.0208C181.57 79.1308 181.65 79.3409 181.68 79.6409L183.66 94.8109C183.69 95.1109 183.66 95.3209 183.58 95.4609C183.5 95.6009 183.31 95.6809 183.03 95.7109L181.34 95.9009C181.06 95.9309 180.86 95.9009 180.75 95.7809C180.64 95.6709 180.56 95.4609 180.53 95.1609L179.81 89.6809H179.78ZM192.73 93.5409C192.77 93.9009 192.73 94.1609 192.58 94.3209C192.44 94.4809 192.15 94.5709 191.72 94.6109L185.78 95.0609C185.4 95.0909 185.11 95.0409 184.91 94.9309C184.71 94.8209 184.59 94.5909 184.55 94.2409L182.67 79.9609C182.63 79.6109 182.69 79.3609 182.86 79.2109C183.03 79.0609 183.3 78.9509 183.68 78.8909L189.57 77.9909C190 77.9209 190.3 77.9509 190.47 78.0809C190.64 78.2009 190.75 78.4509 190.79 78.8109L192.72 93.5409H192.73ZM187.36 90.8009L189.1 90.6009L188.02 82.4508L186.28 82.6709L187.36 90.8009Z" fill="white"/>
<path d="M177.13 109.961L175.57 109.761L174.99 115.001C174.95 115.301 174.87 115.501 174.76 115.611C174.64 115.721 174.45 115.761 174.17 115.721L171.84 115.421C171.56 115.381 171.38 115.301 171.29 115.161C171.2 115.021 171.18 114.811 171.22 114.511L172.87 99.8006C172.91 99.5006 172.99 99.3006 173.1 99.1906C173.21 99.0806 173.41 99.0406 173.69 99.0806L176.02 99.3806C176.3 99.4206 176.48 99.5006 176.57 99.6406C176.66 99.7806 176.68 99.9906 176.64 100.291L176.04 105.531L177.6 105.731L178.16 100.811C178.2 100.461 178.33 100.231 178.53 100.131C178.73 100.031 179.02 99.9806 179.4 100.021L190.9 101.331C191.33 101.371 191.62 101.471 191.76 101.631C191.9 101.791 191.94 102.051 191.9 102.421L191.6 104.751C191.56 105.101 191.44 105.331 191.27 105.451C191.09 105.571 190.79 105.601 190.36 105.551L188 105.251L187.18 112.931L189.6 113.291C190.03 113.351 190.31 113.451 190.45 113.611C190.59 113.771 190.64 114.031 190.59 114.371L190.29 116.701C190.24 117.061 190.13 117.311 189.96 117.431C189.78 117.551 189.48 117.571 189.06 117.501L177.63 115.671C177.25 115.601 176.98 115.491 176.82 115.341C176.65 115.181 176.6 114.931 176.64 114.591L177.14 109.971L177.13 109.961ZM180.67 112.011L183.54 112.411L184.35 104.801L181.52 104.431L180.66 112.011H180.67Z" fill="white"/>
<path d="M179.08 121.85C179.7 122.09 180.22 122.46 180.65 122.94C181.08 123.42 181.38 124.02 181.56 124.75C181.74 125.47 181.77 126.33 181.66 127.3C181.55 128.27 181.25 129.37 180.77 130.58C180.29 131.79 179.77 132.79 179.19 133.58C178.61 134.37 178.01 134.97 177.38 135.38C176.75 135.79 176.12 136.02 175.48 136.08C174.84 136.14 174.21 136.05 173.59 135.81C172.52 135.39 171.75 134.62 171.28 133.52C170.81 132.41 170.79 130.94 171.23 129.11L170.16 128.69L168.32 133.64C168.21 133.92 168.09 134.1 167.95 134.18C167.81 134.26 167.61 134.25 167.35 134.14L165.16 133.28C164.9 133.18 164.74 133.05 164.69 132.9C164.64 132.75 164.67 132.53 164.78 132.25L169.97 118.39C170.08 118.11 170.2 117.93 170.34 117.85C170.48 117.77 170.68 117.78 170.94 117.89L173.13 118.75C173.39 118.85 173.55 118.98 173.6 119.13C173.65 119.28 173.62 119.5 173.51 119.78L171.65 124.72L172.79 125.17C173.72 123.53 174.74 122.46 175.83 121.97C176.93 121.48 178.01 121.44 179.08 121.87V121.85ZM174.73 128.2C174.43 128.98 174.3 129.67 174.36 130.27C174.42 130.87 174.73 131.29 175.28 131.51C175.83 131.73 176.34 131.64 176.8 131.23C177.26 130.82 177.63 130.24 177.94 129.46C178.24 128.68 178.37 127.99 178.31 127.39C178.25 126.78 177.94 126.37 177.39 126.15C176.83 125.93 176.33 126.02 175.87 126.43C175.42 126.83 175.04 127.42 174.73 128.2ZM184.24 123.83C184.35 123.55 184.47 123.37 184.61 123.29C184.75 123.21 184.95 123.22 185.21 123.33L187.05 124.05C187.31 124.15 187.47 124.28 187.52 124.43C187.57 124.58 187.54 124.8 187.43 125.08L185.53 130.11L186.51 130.49C186.91 130.65 187.16 130.82 187.26 131.01C187.36 131.2 187.34 131.46 187.21 131.78L186.33 134.01C186.2 134.35 186.03 134.55 185.83 134.62C185.63 134.69 185.33 134.64 184.93 134.48L184.02 134.12L182.14 139.16C182.03 139.44 181.91 139.62 181.77 139.7C181.63 139.78 181.43 139.77 181.17 139.66L179.33 138.94C179.07 138.84 178.91 138.71 178.86 138.56C178.81 138.41 178.84 138.19 178.95 137.91L184.23 123.81L184.24 123.83Z" fill="white"/>
<path d="M157.75 136.62C157.96 136.32 158.17 136.16 158.38 136.16C158.59 136.16 158.87 136.28 159.22 136.54L164.21 140.3C164.56 140.56 164.75 140.8 164.79 141C164.83 141.21 164.75 141.45 164.54 141.73L163.13 143.61C162.91 143.9 162.7 144.05 162.49 144.07C162.28 144.08 162.01 143.96 161.66 143.7L158.84 141.58L152.76 149.99C152.59 150.24 152.42 150.37 152.25 150.37C152.08 150.37 151.86 150.28 151.59 150.08L149.95 148.85C149.68 148.65 149.54 148.47 149.51 148.31C149.48 148.15 149.56 147.94 149.75 147.66L157.75 136.63V136.62ZM167.7 159.77C168.05 160.03 168.24 160.26 168.28 160.47C168.32 160.68 168.24 160.92 168.03 161.2L166.62 163.08C166.4 163.37 166.19 163.52 165.98 163.54C165.77 163.55 165.5 163.43 165.15 163.17L155.44 155.86C155.09 155.6 154.9 155.37 154.85 155.17C154.8 154.97 154.89 154.72 155.11 154.43L156.52 152.55C156.73 152.27 156.94 152.12 157.15 152.1C157.36 152.08 157.64 152.2 157.99 152.46L167.7 159.77ZM165.79 151.5L167.02 149.74C167.19 149.49 167.35 149.35 167.51 149.31C167.67 149.27 167.87 149.34 168.09 149.51L169.97 150.92C170.2 151.09 170.31 151.25 170.31 151.41C170.31 151.56 170.22 151.77 170.06 152.02L168.83 153.78L170.79 155.25C171.14 155.51 171.33 155.75 171.37 155.95C171.41 156.16 171.33 156.4 171.12 156.68L169.71 158.56C169.49 158.85 169.28 159 169.07 159.02C168.86 159.03 168.59 158.91 168.24 158.65L158.53 151.34C158.18 151.08 157.99 150.85 157.94 150.65C157.89 150.45 157.98 150.2 158.2 149.91L159.61 148.03C159.82 147.75 160.03 147.6 160.24 147.58C160.45 147.56 160.73 147.68 161.08 147.94L165.79 151.49V151.5ZM170.2 139.08C170.42 139.04 170.58 139.08 170.68 139.19C170.78 139.31 170.85 139.49 170.88 139.75L171.5 144C171.54 144.28 171.66 144.51 171.85 144.7C172.04 144.89 172.26 145.07 172.5 145.25L176.61 148.35C176.96 148.61 177.15 148.85 177.19 149.05C177.23 149.26 177.15 149.5 176.94 149.78L175.53 151.66C175.32 151.94 175.11 152.09 174.9 152.11C174.69 152.13 174.41 152.01 174.06 151.75L169.95 148.65C169.71 148.47 169.47 148.31 169.23 148.17C168.99 148.03 168.74 147.99 168.47 148.04L164.41 148.77C163.89 148.88 163.61 148.72 163.58 148.3L163.24 145.72C163.2 145.46 163.24 145.28 163.35 145.16C163.46 145.04 163.63 144.96 163.88 144.92L167.58 144.2L167.03 140.31C166.96 139.84 167.16 139.57 167.63 139.48L170.21 139.08H170.2Z" fill="white"/>
<path d="M148.231 176.08C148.491 176.43 148.611 176.71 148.591 176.92C148.571 177.13 148.421 177.34 148.141 177.55L146.261 178.96C145.971 179.18 145.721 179.27 145.521 179.22C145.321 179.17 145.091 178.98 144.831 178.63L135.581 166.31C135.321 165.96 135.201 165.69 135.211 165.48C135.221 165.27 135.371 165.06 135.671 164.84L137.551 163.43C137.831 163.22 138.071 163.14 138.281 163.18C138.491 163.22 138.721 163.42 138.981 163.76L142.661 168.66L144.491 167.22C144.721 167.03 144.921 166.93 145.081 166.95C145.251 166.96 145.411 167.08 145.581 167.31L146.991 169.19C147.161 169.42 147.221 169.6 147.181 169.75C147.141 169.9 147.001 170.07 146.771 170.26L144.941 171.7L148.231 176.08ZM160.721 167.52C160.891 167.75 160.951 167.93 160.911 168.08C160.871 168.23 160.731 168.4 160.501 168.59L151.931 175.33C151.701 175.52 151.501 175.61 151.341 175.6C151.181 175.59 151.011 175.47 150.841 175.24L149.381 173.3C149.211 173.07 149.151 172.88 149.191 172.74C149.231 172.59 149.371 172.42 149.601 172.23L155.391 167.7L153.301 164.96L149.061 168.3C148.821 168.48 148.621 168.57 148.461 168.56C148.301 168.55 148.131 168.44 147.961 168.21L146.551 166.33C146.381 166.1 146.311 165.91 146.351 165.76C146.391 165.61 146.531 165.44 146.771 165.26L150.971 161.95L148.651 158.94L143.381 163.08C143.151 163.27 142.951 163.36 142.791 163.35C142.631 163.34 142.461 163.22 142.291 162.99L140.921 161.17C140.751 160.94 140.691 160.76 140.731 160.61C140.771 160.46 140.911 160.29 141.141 160.1L148.991 153.9C149.271 153.67 149.511 153.58 149.711 153.64C149.911 153.7 150.151 153.89 150.421 154.23L160.711 167.52H160.721Z" fill="white"/>
<path d="M88.2102 189.921L88.4003 188.211L77.0403 187.001C76.6903 186.971 76.4803 186.881 76.4003 186.721C76.3203 186.561 76.3002 186.291 76.3502 185.911L76.5403 184.421C76.5903 184.041 76.6703 183.791 76.7903 183.661C76.9103 183.531 77.1402 183.491 77.4902 183.531L82.6603 184.081L82.8102 182.891L77.3202 182.301C77.0202 182.261 76.8202 182.191 76.7102 182.071C76.6002 181.961 76.5602 181.761 76.6002 181.481L76.8603 179.401C76.9003 179.121 76.9803 178.941 77.1203 178.851C77.2603 178.771 77.4702 178.741 77.7702 178.781L92.9803 180.451C93.2803 180.491 93.4802 180.561 93.5902 180.681C93.7002 180.801 93.7402 180.991 93.7002 181.271L93.4403 183.351C93.4003 183.631 93.3203 183.811 93.1803 183.901C93.0403 183.981 92.8302 184.011 92.5302 183.971L87.0403 183.351L86.8902 184.541L91.9303 185.101C92.2803 185.141 92.5103 185.271 92.6103 185.461C92.7203 185.661 92.7603 185.951 92.7303 186.331L92.1503 192.761C92.1103 193.191 92.0102 193.481 91.8502 193.621C91.6902 193.761 91.4302 193.811 91.0602 193.761L76.2002 192.131C75.8402 192.081 75.6203 192.001 75.5403 191.871C75.4603 191.741 75.4503 191.461 75.5103 191.031L75.6903 189.591C75.7403 189.161 75.8202 188.901 75.9302 188.801C76.0302 188.701 76.2702 188.671 76.6402 188.701L88.2303 189.911L88.2102 189.921ZM86.6603 169.241C87.7803 169.381 88.7403 169.631 89.5403 169.981C90.3403 170.331 90.9702 170.761 91.4502 171.251C91.9302 171.751 92.2503 172.301 92.4403 172.911C92.6203 173.521 92.6702 174.161 92.5902 174.821C92.5102 175.481 92.3003 176.091 91.9703 176.631C91.6403 177.181 91.1802 177.631 90.6002 177.991C90.0202 178.351 89.3003 178.611 88.4403 178.751C87.5803 178.891 86.5903 178.891 85.4703 178.751C84.3303 178.611 83.3603 178.361 82.5803 178.011C81.8003 177.661 81.1603 177.231 80.6903 176.741C80.2203 176.251 79.8902 175.691 79.7002 175.081C79.5202 174.471 79.4703 173.831 79.5503 173.171C79.6303 172.511 79.8402 171.911 80.1702 171.361C80.5002 170.811 80.9603 170.361 81.5403 170.001C82.1203 169.641 82.8403 169.381 83.6903 169.241C84.5403 169.101 85.5303 169.101 86.6803 169.241H86.6603ZM86.2802 172.271C85.4002 172.161 84.7602 172.251 84.3402 172.541C83.9202 172.831 83.6902 173.221 83.6302 173.701C83.5702 174.181 83.7002 174.611 84.0302 175.001C84.3602 175.391 84.9602 175.631 85.8402 175.751C86.7202 175.861 87.3602 175.771 87.7802 175.481C88.2002 175.191 88.4302 174.801 88.4902 174.321C88.5502 173.841 88.4202 173.411 88.0902 173.021C87.7602 172.631 87.1602 172.391 86.2802 172.271Z" fill="white"/>
<path d="M53.8801 184.59C53.5401 184.46 53.3301 184.29 53.2601 184.09C53.1901 183.89 53.2401 183.59 53.4101 183.19L55.7801 177.73C55.9401 177.38 56.1101 177.14 56.3001 177.02C56.4901 176.9 56.7501 176.9 57.0801 177.02L70.5901 182.01C70.9201 182.14 71.1101 182.31 71.1701 182.53C71.2301 182.75 71.1901 183.04 71.0701 183.4L69.1201 189.03C68.9801 189.44 68.8101 189.69 68.6201 189.79C68.4301 189.89 68.1601 189.87 67.8201 189.73L53.8901 184.57L53.8801 184.59ZM63.3301 174.93L63.6601 174.09L59.1001 172.42C58.7401 172.28 58.5201 172.13 58.4301 171.96C58.3401 171.79 58.3901 171.54 58.5501 171.19L60.2701 167.4C60.4301 167.07 60.5901 166.87 60.7301 166.8C60.8701 166.73 61.1301 166.76 61.4901 166.88L70.8301 170.04L71.1801 169.13L62.1001 165.86C61.8101 165.77 61.6401 165.65 61.5801 165.5C61.5201 165.35 61.5401 165.15 61.6501 164.88L62.1401 163.62C62.2401 163.36 62.3601 163.2 62.5001 163.14C62.6401 163.09 62.8501 163.11 63.1201 163.22L75.1901 167.65C75.5501 167.77 75.7701 167.92 75.8201 168.09C75.8801 168.26 75.8501 168.52 75.7301 168.88L74.3501 172.82C74.2301 173.18 74.0801 173.4 73.9101 173.47C73.7401 173.54 73.4701 173.51 73.1101 173.39L63.6001 170.19L63.2701 171.03L73.4501 174.73C73.6801 174.82 73.8301 174.91 73.9001 174.99C73.9701 175.07 73.9701 175.19 73.9001 175.34L73.1901 177.16C73.1201 177.33 73.0401 177.43 72.9301 177.45C72.8201 177.47 72.6501 177.44 72.4201 177.35L67.6201 175.56L67.2901 176.4L72.4701 178.33C72.7501 178.44 72.9301 178.56 73.0101 178.7C73.0901 178.84 73.0801 179.04 72.9801 179.3L72.3601 180.88C72.2601 181.14 72.1301 181.3 71.9801 181.35C71.8301 181.4 71.6101 181.37 71.3301 181.26L56.9801 175.94C56.7001 175.83 56.5201 175.71 56.4401 175.57C56.3601 175.43 56.3701 175.23 56.4701 174.97L57.0901 173.39C57.1901 173.13 57.3201 172.97 57.4701 172.92C57.6201 172.87 57.8401 172.9 58.1201 173.01L63.3001 174.92L63.3301 174.93ZM58.8001 181.11L58.1601 182.74L65.8801 185.58L66.4901 183.94L58.7901 181.1L58.8001 181.11Z" fill="white"/>
<path d="M46.6304 163.09L47.5404 161.8L43.1804 158.83C42.9304 158.66 42.7904 158.49 42.7504 158.34C42.7104 158.19 42.7704 157.99 42.9304 157.76L44.2904 155.84C44.4504 155.61 44.6204 155.49 44.7804 155.48C44.9404 155.48 45.1404 155.55 45.3904 155.73L57.6104 164.09C57.8504 164.26 58.0004 164.43 58.0404 164.58C58.0804 164.73 58.0204 164.93 57.8604 165.16L56.5004 167.08C56.3404 167.31 56.1704 167.43 56.0104 167.44C55.8504 167.44 55.6504 167.37 55.4004 167.19L51.0504 164.2L50.1404 165.48L54.2204 168.28C54.5104 168.48 54.6504 168.7 54.6504 168.92C54.6504 169.15 54.5504 169.42 54.3404 169.74L47.7904 179.28C47.5504 179.64 47.3304 179.85 47.1204 179.9C46.9104 179.95 46.6604 179.86 46.3604 179.65L44.4404 178.29C44.1504 178.09 44.0004 177.88 43.9804 177.67C43.9604 177.46 44.0704 177.18 44.3204 176.82L45.6904 174.88L39.2904 170.55L37.8304 172.52C37.5804 172.87 37.3504 173.07 37.1404 173.12C36.9304 173.17 36.6904 173.09 36.4004 172.89L34.4804 171.53C34.1804 171.32 34.0204 171.11 33.9904 170.9C33.9704 170.69 34.0904 170.41 34.3504 170.07L41.3304 160.83C41.5704 160.53 41.7904 160.34 42.0104 160.27C42.2304 160.2 42.4704 160.27 42.7604 160.47L46.6104 163.08L46.6304 163.09ZM43.1604 165.26L41.4604 167.61L47.8004 171.89L49.4504 169.56L43.1604 165.25V165.26Z" fill="white"/>
<path d="M31.0699 162.9C31.2699 163.13 31.3699 163.32 31.3699 163.48C31.3699 163.64 31.2699 163.81 31.0599 164L29.5599 165.29C29.3499 165.48 29.1599 165.55 28.9999 165.52C28.8399 165.49 28.6699 165.36 28.4699 165.14L24.9099 161.12L24.1199 161.8C23.7899 162.08 23.5199 162.22 23.3099 162.22C23.0999 162.22 22.8799 162.08 22.6499 161.82L21.0799 160C20.8399 159.72 20.7399 159.48 20.7699 159.28C20.7999 159.07 20.9799 158.83 21.3099 158.55L22.0499 157.91L18.4699 153.9C18.2699 153.67 18.1699 153.48 18.1699 153.32C18.1699 153.16 18.2699 152.99 18.4799 152.8L19.9799 151.51C20.1899 151.32 20.3799 151.25 20.5399 151.28C20.6999 151.31 20.8699 151.44 21.0699 151.66L31.0799 162.9H31.0699ZM35.2199 159.26C34.7099 159.69 34.1499 159.99 33.5199 160.14C32.8899 160.29 32.2199 160.28 31.4899 160.1C30.7699 159.92 29.9999 159.55 29.1899 159C28.3799 158.45 27.5499 157.67 26.6999 156.69C25.8499 155.7 25.2099 154.77 24.7799 153.89C24.3499 153.01 24.0999 152.19 24.0299 151.45C23.9599 150.71 24.0499 150.04 24.2899 149.44C24.5399 148.84 24.9099 148.33 25.4199 147.89C26.2899 147.14 27.3299 146.81 28.5199 146.92C29.7199 147.02 31.0299 147.69 32.4499 148.93L33.3199 148.18L29.7999 144.25C29.5999 144.02 29.4999 143.83 29.4999 143.67C29.4999 143.51 29.5999 143.34 29.8099 143.15L31.5899 141.62C31.7999 141.44 31.9899 141.36 32.1499 141.39C32.3099 141.42 32.4799 141.55 32.6799 141.77L42.5299 152.82C42.7299 153.05 42.8299 153.24 42.8299 153.4C42.8299 153.56 42.7299 153.73 42.5199 153.92L40.7399 155.45C40.5299 155.63 40.3399 155.71 40.1799 155.68C40.0199 155.65 39.8499 155.52 39.6499 155.3L36.1499 151.35L35.2199 152.15C36.2399 153.74 36.6999 155.13 36.6299 156.33C36.5499 157.53 36.0799 158.5 35.2099 159.25L35.2199 159.26ZM31.6299 152.45C31.0899 151.82 30.5299 151.39 29.9699 151.16C29.4099 150.93 28.8999 151.01 28.4499 151.4C27.9899 151.79 27.8399 152.28 27.9899 152.87C28.1399 153.46 28.4799 154.07 29.0199 154.7C29.5599 155.33 30.1199 155.76 30.6799 155.99C31.2399 156.22 31.7499 156.14 32.1999 155.75C32.6599 155.36 32.8099 154.87 32.6599 154.28C32.5199 153.69 32.1699 153.08 31.6299 152.45Z" fill="white"/>
<path d="M6.97995 131.551C6.58995 131.731 6.28995 131.801 6.08995 131.741C5.88995 131.681 5.70995 131.491 5.55995 131.171L4.55995 129.051C4.39995 128.721 4.36995 128.461 4.44995 128.271C4.53995 128.081 4.77995 127.901 5.16995 127.711L16.1599 122.521C16.5499 122.341 16.8499 122.271 17.0499 122.321C17.2499 122.371 17.4299 122.571 17.5899 122.901L18.5899 125.021C18.7399 125.341 18.7699 125.591 18.6899 125.791C18.6099 125.991 18.3699 126.181 17.9799 126.361L6.98995 131.551H6.97995ZM15.1799 133.701L16.1699 135.611C16.3099 135.871 16.3599 136.091 16.3199 136.241C16.2799 136.401 16.1299 136.541 15.8699 136.661L13.7499 137.661C13.4899 137.781 13.2999 137.801 13.1599 137.731C13.0199 137.661 12.8799 137.491 12.7399 137.221L11.7499 135.311L9.52995 136.361C9.13995 136.551 8.83995 136.611 8.63995 136.551C8.43995 136.491 8.25995 136.301 8.10995 135.981L7.10995 133.861C6.94995 133.531 6.91995 133.271 6.99995 133.081C7.07995 132.891 7.32995 132.701 7.71995 132.521L18.7099 127.331C19.0999 127.141 19.3999 127.081 19.5999 127.131C19.7999 127.181 19.9799 127.381 20.1299 127.711L21.1299 129.831C21.2799 130.151 21.3099 130.401 21.2299 130.601C21.1499 130.801 20.9099 130.991 20.5199 131.171L15.1899 133.691L15.1799 133.701ZM24.1199 143.391C24.0599 143.601 23.9499 143.731 23.7999 143.761C23.6499 143.791 23.4499 143.761 23.2099 143.681L19.1599 142.251C18.8899 142.151 18.6299 142.151 18.3799 142.231C18.1299 142.311 17.8599 142.421 17.5899 142.551L12.9299 144.751C12.5399 144.941 12.2399 145.001 12.0399 144.941C11.8399 144.881 11.6599 144.691 11.5099 144.371L10.5099 142.251C10.3599 141.931 10.3299 141.681 10.4099 141.481C10.4899 141.281 10.7299 141.091 11.1199 140.911L15.7799 138.711C16.0499 138.581 16.2999 138.441 16.5399 138.301C16.7699 138.151 16.9299 137.951 17.0099 137.691L18.2499 133.761C18.3999 133.251 18.6699 133.081 19.0599 133.241L21.4999 134.131C21.7399 134.221 21.8899 134.341 21.9499 134.491C22.0099 134.641 21.9899 134.831 21.9199 135.071L20.8299 138.681L24.5199 140.001C24.9599 140.161 25.1199 140.461 24.9799 140.921L24.1299 143.391H24.1199ZM32.0999 133.511C32.2699 133.841 32.3099 134.091 32.2199 134.281C32.1299 134.471 31.8799 134.661 31.4899 134.851L25.8399 137.521C25.4499 137.701 25.1499 137.771 24.9499 137.711C24.7499 137.651 24.5699 137.461 24.4199 137.141L23.4199 135.021C23.2599 134.691 23.2299 134.431 23.3199 134.241C23.4099 134.051 23.6499 133.861 24.0399 133.681L27.2299 132.181L22.6199 122.881C22.4799 122.621 22.4399 122.411 22.5199 122.251C22.5999 122.091 22.7799 121.951 23.0799 121.801L24.9299 120.921C25.2299 120.781 25.4599 120.731 25.6099 120.781C25.7599 120.831 25.9199 121.001 26.0699 121.291L32.1099 133.501L32.0999 133.511Z" fill="white"/>
<path d="M1.65016 106.651C1.22016 106.721 0.920164 106.691 0.740164 106.581C0.560164 106.461 0.450164 106.231 0.390164 105.891L0.0201641 103.571C-0.0398359 103.211 0.000164062 102.951 0.140164 102.791C0.280164 102.631 0.560164 102.521 0.980164 102.451L16.1902 100.051C16.6202 99.9806 16.9202 100.001 17.1002 100.111C17.2802 100.221 17.3902 100.451 17.4502 100.811L17.8202 103.131C17.8702 103.481 17.8302 103.731 17.7002 103.901C17.5702 104.061 17.2802 104.181 16.8602 104.251L10.8102 105.201L11.2202 107.491C11.2802 107.781 11.2702 108.001 11.1802 108.141C11.0902 108.281 10.9102 108.371 10.6302 108.421L8.31016 108.791C8.03016 108.831 7.84016 108.801 7.73016 108.691C7.62016 108.581 7.53016 108.381 7.47016 108.091L7.06016 105.801L1.65016 106.651ZM3.36016 121.691C3.08016 121.731 2.89016 121.701 2.78016 121.591C2.67016 121.481 2.58016 121.281 2.52016 120.991L0.580164 110.261C0.520164 109.971 0.530164 109.751 0.620164 109.611C0.710164 109.471 0.890164 109.381 1.17016 109.331L3.57016 108.951C3.85016 108.911 4.05016 108.941 4.15016 109.051C4.26016 109.161 4.35016 109.361 4.41016 109.651L5.70016 116.891L9.10016 116.331L8.14016 111.021C8.09016 110.721 8.11016 110.511 8.19016 110.371C8.27016 110.231 8.45016 110.141 8.73016 110.101L11.0502 109.731C11.3302 109.691 11.5302 109.721 11.6502 109.831C11.7702 109.941 11.8502 110.141 11.9002 110.441L12.8602 115.711L16.6102 115.071L15.4202 108.471C15.3602 108.181 15.3702 107.961 15.4602 107.821C15.5502 107.681 15.7302 107.591 16.0102 107.541L18.2602 107.191C18.5402 107.151 18.7302 107.181 18.8402 107.291C18.9502 107.401 19.0402 107.601 19.1002 107.891L20.9002 117.731C20.9702 118.091 20.9402 118.341 20.7902 118.491C20.6402 118.641 20.3602 118.761 19.9302 118.841L3.37016 121.701L3.36016 121.691Z" fill="white"/>
<path d="M127.17 180.61C127.26 180.87 127.31 181.16 127.29 181.45C127.25 182.2 126.78 182.63 126.1 182.77C125.42 182.9 124.78 182.73 124.16 182.39C123.68 182.12 123.24 181.78 122.92 181.32C122.56 180.81 122.29 180.25 122.4 179.58C122.48 179.09 122.76 178.77 123.18 178.58C123.81 178.29 124.44 178.39 125.08 178.63C125.94 178.95 126.85 179.68 127.17 180.62V180.61Z" fill="#FF7887"/>
<path d="M123.54 187.27C122.94 187.43 122.22 187.17 121.71 186.76C120.91 186.12 120.42 185.28 120.31 184.24C120.26 183.77 120.34 183.33 120.61 182.95C120.91 182.53 121.32 182.39 121.81 182.41C122.31 182.43 122.73 182.67 123.12 182.98C123.84 183.55 124.31 184.3 124.49 185.22C124.59 185.73 124.56 186.23 124.3 186.68C124.11 187.01 123.85 187.19 123.55 187.27H123.54Z" fill="#FF7887"/>
<path d="M111.42 185.59C111.08 184.73 111.51 183.61 111.93 182.91C112.3 182.28 112.81 181.79 113.5 181.57C114.03 181.39 114.54 181.56 114.86 182.04C115.06 182.34 115.15 182.69 115.16 183.05C115.17 183.98 114.88 184.78 114.34 185.49C114.07 185.84 113.76 186.13 113.37 186.33C112.68 186.68 111.8 186.46 111.45 185.68C111.44 185.65 111.43 185.63 111.42 185.6V185.59Z" fill="#FF7887"/>
<path d="M116.869 183.91C117.549 183.5 118.189 183.64 118.669 184.22C119.049 184.68 119.189 185.22 119.249 185.8C119.329 186.61 119.169 187.34 118.739 188C118.559 188.29 118.329 188.54 118.019 188.68C117.469 188.92 117.009 188.81 116.549 188.36C116.179 188 116.009 187.54 115.919 187.05C115.729 186.08 115.879 185.19 116.419 184.39C116.569 184.17 116.759 183.99 116.869 183.91Z" fill="#FF7887"/>
<path d="M119.38 181.88C118.08 182.54 116.42 181.74 115.27 180.98C113.97 180.12 111.9 178.29 112.15 176.5C112.29 175.49 113.07 174.78 113.99 174.57C115.09 174.32 116.12 174.85 116.93 175.65C116.78 175.5 117.33 174.69 117.42 174.55C118.14 173.48 119.94 172.04 121.21 173.28C122.09 174.14 121.94 175.61 121.83 176.72C121.74 177.72 121.47 178.69 121.05 179.59C120.67 180.4 120.29 181.32 119.52 181.8C119.47 181.83 119.41 181.86 119.36 181.89L119.38 181.88Z" fill="#FF7887"/>
<path d="M7.08024 76.8991C6.81024 76.8091 6.56024 76.6791 6.33024 76.4891C5.75024 76.0091 5.67024 75.3791 5.96024 74.7591C6.24024 74.1391 6.75024 73.7391 7.39024 73.4591C7.89024 73.2391 8.41024 73.0991 8.97024 73.1191C9.59024 73.1391 10.2002 73.2691 10.6702 73.7491C11.0202 74.1091 11.1102 74.5191 11.0302 74.9691C10.9002 75.6391 10.4502 76.0791 9.90024 76.4391C9.14024 76.9291 8.03024 77.1991 7.09024 76.8991H7.08024Z" fill="#FF7887"/>
<path d="M3.82003 70.0199C4.03003 69.4499 4.66003 69.0399 5.29003 68.8799C6.26003 68.6399 7.22003 68.7599 8.13003 69.2899C8.54003 69.5299 8.85003 69.8599 9.00003 70.3099C9.16003 70.7899 9.04003 71.2099 8.74003 71.5799C8.44003 71.9599 8.00003 72.1499 7.53003 72.2699C6.66003 72.4899 5.78003 72.4099 4.94003 71.9999C4.47003 71.7699 4.09003 71.4499 3.87003 70.9699C3.72003 70.6299 3.72003 70.2999 3.83003 70.0199H3.82003Z" fill="#FF7887"/>
<path d="M12.1802 61.4695C13.0602 61.7195 13.7202 62.7295 14.0402 63.4895C14.3302 64.1595 14.4302 64.8495 14.2102 65.5395C14.0402 66.0695 13.6202 66.3595 13.0502 66.3295C12.6902 66.3095 12.3602 66.1695 12.0702 65.9495C11.3202 65.3995 10.8302 64.6895 10.5802 63.8395C10.4602 63.4195 10.4002 62.9995 10.4702 62.5695C10.5902 61.8195 11.2702 61.2495 12.1002 61.4495C12.1302 61.4495 12.1502 61.4595 12.1802 61.4695Z" fill="#FF7887"/>
<path d="M10.3796 66.7792C10.3196 67.5692 9.83963 67.9792 9.08963 68.0092C8.49963 68.0292 7.97963 67.8192 7.47963 67.5192C6.78963 67.0992 6.28963 66.5292 6.00963 65.7992C5.88963 65.4792 5.80963 65.1492 5.87963 64.8192C5.99963 64.2392 6.35963 63.9492 6.97963 63.8492C7.48963 63.7792 7.94963 63.9192 8.39963 64.1392C9.28963 64.5792 9.91963 65.2292 10.2496 66.1292C10.3396 66.3792 10.3796 66.6392 10.3696 66.7792H10.3796Z" fill="#FF7887"/>
<path d="M10.5705 69.9792C10.7905 68.5592 12.3905 67.7292 13.6605 67.2792C15.1005 66.7692 17.7605 66.2392 19.0605 67.5192C19.7905 68.2392 19.9205 69.2792 19.5505 70.1392C19.1205 71.1592 18.1005 71.6592 16.9805 71.8192C17.1805 71.7892 17.5205 72.7092 17.5805 72.8692C18.0205 74.0892 18.1505 76.3692 16.4105 76.6292C15.2005 76.8092 14.1205 75.7992 13.2905 75.0492C12.5405 74.3692 11.9105 73.5792 11.4305 72.7092C11.0005 71.9192 10.4705 71.0692 10.5405 70.1692C10.5405 70.1092 10.5505 70.0492 10.5605 69.9892L10.5705 69.9792Z" fill="#FF7887"/>
<path d="M162.11 31.4395C162.37 31.3395 162.64 31.2795 162.94 31.2695C163.69 31.2695 164.14 31.6995 164.3 32.3695C164.47 33.0295 164.33 33.6695 164.02 34.2895C163.78 34.7795 163.46 35.2195 163.02 35.5695C162.53 35.9495 161.99 36.2395 161.32 36.1795C160.83 36.1295 160.5 35.8695 160.29 35.4695C159.97 34.8695 160.04 34.2395 160.24 33.6095C160.52 32.7495 161.2 31.8195 162.11 31.4495V31.4395Z" fill="#FF7887"/>
<path d="M168.9 34.6499C169.09 35.2299 168.87 35.9499 168.49 36.4699C167.9 37.2899 167.09 37.8099 166.06 37.9799C165.59 38.0599 165.15 37.9999 164.76 37.7499C164.33 37.4799 164.17 37.0799 164.17 36.5999C164.17 36.1099 164.38 35.6799 164.67 35.2899C165.2 34.5599 165.92 34.0599 166.82 33.8299C167.32 33.6999 167.82 33.7099 168.28 33.9399C168.61 34.1099 168.81 34.3599 168.91 34.6399L168.9 34.6499Z" fill="#FF7887"/>
<path d="M167.84 46.6299C167 46.9999 165.88 46.6399 165.15 46.2699C164.51 45.9399 164 45.4699 163.74 44.7999C163.54 44.2799 163.68 43.7899 164.14 43.4399C164.43 43.2299 164.77 43.1199 165.13 43.0999C166.05 43.0399 166.86 43.2799 167.59 43.7699C167.95 44.0099 168.25 44.2999 168.47 44.6699C168.85 45.3299 168.68 46.1999 167.92 46.5899C167.9 46.5999 167.87 46.6099 167.85 46.6299H167.84Z" fill="#FF7887"/>
<path d="M165.9 41.3692C165.46 40.7192 165.57 40.0892 166.12 39.5892C166.56 39.1992 167.09 39.0192 167.66 38.9392C168.45 38.8192 169.19 38.9392 169.86 39.3192C170.15 39.4892 170.42 39.6892 170.57 39.9892C170.84 40.5192 170.75 40.9692 170.33 41.4392C169.99 41.8192 169.54 42.0092 169.06 42.1292C168.11 42.3692 167.21 42.2692 166.4 41.7792C166.17 41.6492 165.98 41.4692 165.9 41.3592V41.3692Z" fill="#FF7887"/>
<path d="M163.76 39.0194C164.48 40.2594 163.77 41.9294 163.08 43.0994C162.3 44.4194 160.59 46.5494 158.8 46.3894C157.79 46.3094 157.04 45.5794 156.79 44.6894C156.49 43.6294 156.96 42.5794 157.71 41.7494C157.57 41.8994 156.74 41.4094 156.6 41.3294C155.5 40.6794 153.98 38.9894 155.15 37.6794C155.96 36.7694 157.42 36.8394 158.53 36.8794C159.53 36.9194 160.51 37.1294 161.41 37.4894C162.23 37.8194 163.17 38.1394 163.68 38.8694C163.71 38.9194 163.75 38.9694 163.78 39.0194H163.76Z" fill="#FF7887"/>
</g>
<defs>
<clipPath id="clip0_166_520">
<rect width="192.74" height="193.78" fill="white"/>
</clipPath>
</defs>
</svg>
