<svg width="180" height="180" viewBox="0 0 180 180" fill="none" xmlns="http://www.w3.org/2000/svg">
<path d="M7.273 115.076L8.6923 114.659L5.96503 105.104C5.87226 104.811 5.88154 104.612 5.98358 104.489C6.08562 104.366 6.2897 104.271 6.6051 104.176L7.83887 103.835C8.15427 103.75 8.38618 103.731 8.52532 103.779C8.66447 103.826 8.77579 104.006 8.85 104.299L10.093 108.646L11.0856 108.371L9.77764 103.75C9.71271 103.494 9.70343 103.305 9.75909 103.182C9.81475 103.049 9.9539 102.955 10.1951 102.898L11.9298 102.424C12.1617 102.358 12.3379 102.368 12.4493 102.453C12.5606 102.538 12.6441 102.699 12.7183 102.955L16.3268 115.767C16.3917 116.023 16.401 116.212 16.3454 116.335C16.2897 116.468 16.1506 116.563 15.9094 116.619L14.1747 117.093C13.9428 117.159 13.7665 117.15 13.6552 117.065C13.5439 116.979 13.4604 116.818 13.3862 116.563L12.0968 111.932L11.1042 112.207L12.2916 116.458C12.3658 116.752 12.3472 116.979 12.2266 117.131C12.106 117.282 11.8927 117.415 11.5773 117.51L6.31753 119.167C5.96503 119.28 5.70529 119.29 5.54759 119.214C5.38989 119.129 5.26002 118.94 5.18581 118.627L1.65148 106.108C1.568 105.796 1.568 105.597 1.65148 105.493C1.72569 105.388 1.93905 105.284 2.30083 105.19L3.49749 104.858C3.85928 104.763 4.09119 104.735 4.19323 104.792C4.30454 104.849 4.40659 105.019 4.49935 105.332L7.30083 115.076H7.273ZM23.0986 106.989C23.3491 107.945 23.4697 108.797 23.4511 109.555C23.4326 110.313 23.3027 110.966 23.0615 111.515C22.8203 112.065 22.4956 112.51 22.0689 112.86C21.6422 113.21 21.1598 113.457 20.6125 113.608C20.0652 113.76 19.5179 113.797 18.9799 113.712C18.4418 113.627 17.9316 113.409 17.4585 113.059C16.9854 112.708 16.5494 112.216 16.1598 111.572C15.7702 110.928 15.4455 110.133 15.1951 109.176C14.9353 108.21 14.824 107.349 14.8426 106.6C14.8611 105.852 14.991 105.199 15.2322 104.65C15.4734 104.1 15.7981 103.655 16.2248 103.305C16.6515 102.955 17.1339 102.708 17.6812 102.557C18.2285 102.405 18.7758 102.368 19.3138 102.453C19.8519 102.538 20.3621 102.756 20.8352 103.106C21.3083 103.457 21.7442 103.949 22.1339 104.583C22.5235 105.218 22.8481 106.023 23.0986 106.989ZM20.5847 107.68C20.3899 106.941 20.1116 106.449 19.7405 106.212C19.3788 105.975 18.9891 105.909 18.5995 106.023C18.2006 106.136 17.9038 106.383 17.709 106.78C17.5142 107.178 17.5142 107.746 17.709 108.485C17.9038 109.224 18.1914 109.716 18.5532 109.953C18.9149 110.19 19.2953 110.256 19.6942 110.142C20.093 110.029 20.3899 109.782 20.5847 109.385C20.7795 108.987 20.7795 108.428 20.5847 107.68Z" fill="white"/>
<path d="M1.39866e-05 86.0326C-0.00926245 85.7106 0.0463962 85.4928 0.176266 85.3603C0.306136 85.2277 0.5566 85.1614 0.927658 85.1614L6.01115 85.133C6.33582 85.133 6.58629 85.1898 6.74398 85.294C6.90168 85.4076 6.99445 85.6065 7.00372 85.919L7.75512 98.4474C7.76439 98.7504 7.69946 98.9682 7.55104 99.0913C7.40261 99.2144 7.16142 99.2902 6.83675 99.3186L1.77181 99.7447C1.40076 99.7731 1.15029 99.7353 1.01115 99.6122C0.871999 99.4985 0.797788 99.2807 0.779235 98.9587L1.39866e-05 86.0326ZM4.4156 88.7315L2.92209 88.7978L3.35808 95.9474L4.85159 95.8622L4.4156 88.7315ZM10.7978 90.1709L11.5677 90.133L11.2987 85.919C11.2802 85.5875 11.3265 85.3508 11.4286 85.2277C11.5306 85.1046 11.744 85.0383 12.0687 85.0572L15.6123 85.0951C15.9277 85.1141 16.1317 85.1614 16.2338 85.2561C16.3358 85.3508 16.4008 85.5591 16.4286 85.8906L17.18 94.4512L18.0149 94.4133L17.4397 86.0231C17.4119 85.7675 17.449 85.5875 17.5418 85.4834C17.6345 85.3887 17.8015 85.3319 18.0427 85.3224L19.193 85.275C19.4342 85.2656 19.6011 85.3034 19.6939 85.3981C19.7867 85.4928 19.833 85.6633 19.8423 85.9284L20.538 97.1027C20.5659 97.4341 20.5288 97.6519 20.4175 97.7656C20.3061 97.8697 20.0928 97.936 19.7681 97.9739L16.2152 98.2675C15.8906 98.2959 15.6679 98.258 15.5566 98.1444C15.4453 98.0307 15.3711 97.8129 15.3432 97.4815L14.564 88.7788L13.7941 88.8167L14.4156 98.2296C14.4249 98.4474 14.4156 98.5989 14.3692 98.6747C14.3321 98.7599 14.2393 98.7978 14.1002 98.8072L12.4397 98.883C12.282 98.883 12.18 98.8546 12.1243 98.7788C12.0687 98.7031 12.0408 98.5515 12.0316 98.3337L11.7718 93.8735L11.0019 93.9114L11.2709 98.722C11.2802 98.9872 11.2523 99.1671 11.1688 99.2807C11.0854 99.3943 10.9277 99.4512 10.6865 99.4701L9.23935 99.5364C8.99816 99.5459 8.83118 99.4985 8.73842 99.3944C8.64565 99.2902 8.59927 99.1103 8.59 98.8451L7.8015 85.5402C7.79222 85.275 7.82005 85.0951 7.90354 84.9815C7.98703 84.8678 8.14473 84.811 8.38591 84.7921L9.83304 84.7258C10.0742 84.7163 10.2412 84.7637 10.334 84.8678C10.4267 84.972 10.4731 85.1519 10.4824 85.4171L10.77 90.2182L10.7978 90.1709Z" fill="white"/>
<path d="M9.48054 71.8848L10.4917 72.0647L11.2245 67.3109C11.2709 67.0552 11.3451 66.8753 11.4471 66.7901C11.5492 66.6954 11.7162 66.6764 11.9574 66.7143L13.9332 67.0742C14.1744 67.112 14.3228 67.1973 14.3878 67.3204C14.4527 67.4435 14.462 67.6329 14.4156 67.8885L12.3562 81.0514C12.3099 81.3071 12.2356 81.487 12.1336 81.5723C12.0316 81.667 11.8646 81.6859 11.6234 81.648L9.64752 81.2882C9.40633 81.2408 9.25791 81.1651 9.19297 81.042C9.12804 80.9188 9.11876 80.7295 9.16514 80.4738L9.91653 75.72L8.9054 75.5401L8.21895 79.9056C8.16329 80.2086 8.05197 80.398 7.88499 80.4832C7.70874 80.5685 7.45828 80.5874 7.1336 80.5495L1.04826 79.6499C0.677202 79.6026 0.445291 79.4984 0.333974 79.3564C0.222656 79.2143 0.194827 78.9776 0.250486 78.6651L0.60299 76.648C0.658649 76.345 0.76069 76.1461 0.918389 76.0514C1.07609 75.9567 1.29872 75.9283 1.57702 75.9851L2.10577 76.0798L3.20039 68.9776L2.58815 68.8639C2.30985 68.8166 2.10577 68.7124 1.98518 68.5704C1.86459 68.4283 1.83676 68.201 1.88314 67.898L2.23564 65.881C2.2913 65.5685 2.39334 65.3601 2.55104 65.2654C2.70874 65.1707 2.95921 65.1613 3.32099 65.237L9.34139 66.5154C9.65679 66.5912 9.8887 66.6954 10.0186 66.8374C10.1577 66.9795 10.1948 67.1973 10.1392 67.5003L9.47126 71.8658L9.48054 71.8848ZM7.00373 69.6973L5.92767 69.5079L4.83305 76.5912L5.90911 76.7616L6.99446 69.7067L7.00373 69.6973ZM18.1169 72.1783L16.744 81.1556C16.6976 81.4113 16.6234 81.5912 16.5214 81.6764C16.4193 81.7711 16.2523 81.7901 16.0112 81.7522L14.0353 81.3923C13.7941 81.3545 13.6457 81.2692 13.5807 81.1461C13.5158 81.023 13.5065 80.8336 13.5529 80.5779L15.3896 68.6556C15.436 68.3242 15.5381 68.1158 15.6958 68.0211C15.8535 67.9359 16.1132 67.9264 16.475 68.0117L21.5028 69.1196C21.8646 69.1954 22.1058 69.309 22.2171 69.4321C22.3284 69.5647 22.3655 69.7825 22.3099 70.1045L21.9574 72.1215C21.9017 72.4245 21.7997 72.6234 21.6512 72.7276C21.4935 72.8317 21.2338 72.8412 20.872 72.7654L18.1169 72.1783Z" fill="white"/>
<path d="M11.2804 50.3599C11.6236 50.5114 11.8185 50.644 11.8741 50.7481C11.9298 50.8618 11.9019 51.0606 11.7906 51.3637L10.6125 54.3277L14.0448 55.8334C14.2767 55.9375 14.5086 56.0133 14.722 56.0512C14.9353 56.089 15.158 56.089 15.3992 56.0512L21.5587 54.5644C21.8185 54.5076 21.9947 54.5265 22.0875 54.6307C22.1802 54.7349 22.2544 54.9148 22.3101 55.1515L22.7461 57.3106C22.8018 57.5569 22.7739 57.7273 22.6812 57.8125C22.5884 57.9072 22.44 57.9735 22.2359 58.0114L17.2916 59.2709L20.1858 63.9773C20.2971 64.1572 20.3528 64.3087 20.3528 64.4413C20.3528 64.5739 20.2415 64.7065 20.0374 64.839L18.2006 66.0038C17.9873 66.1364 17.8203 66.1932 17.6812 66.1932C17.542 66.1932 17.4029 66.0796 17.2637 65.8523L13.7016 60.0853C13.5717 59.8864 13.414 59.7159 13.2377 59.5834C13.0615 59.4508 12.8574 59.3277 12.6162 59.233L9.26743 57.7557L8.07077 60.7576C7.96873 61.0417 7.84814 61.2027 7.71827 61.2406C7.5884 61.2784 7.34721 61.2216 7.01326 61.0701L5.60324 60.4451C5.26001 60.2936 5.06521 60.161 5.01882 60.0474C4.97244 59.9337 4.99099 59.7254 5.10231 59.4413L8.84072 50.0379C8.95203 49.7349 9.07263 49.5739 9.2025 49.5455C9.33237 49.5171 9.56428 49.5739 9.90751 49.7254L11.3175 50.3504L11.2804 50.3599ZM11.0207 48.3902C10.6775 48.2387 10.4734 48.0777 10.3992 47.9167C10.3249 47.7462 10.3435 47.5284 10.4641 47.2443L11.2619 45.3599C11.3825 45.0663 11.5309 44.8959 11.6979 44.839C11.8648 44.7917 12.1246 44.839 12.4585 44.9811L24.5272 50.2936C24.8704 50.4451 25.0745 50.5966 25.158 50.7576C25.2415 50.9186 25.2136 51.1459 25.093 51.4394L24.2953 53.3239C24.1747 53.608 24.0355 53.769 23.8593 53.8353C23.683 53.8921 23.4326 53.8447 23.0893 53.7027L11.0207 48.3902Z" fill="white"/>
<path d="M21.429 46.0798C21.2435 46.1177 21.1043 46.0798 21.0208 45.9756C20.9373 45.8714 20.8817 45.7105 20.8539 45.4832L20.39 41.7711C20.3622 41.5249 20.2602 41.326 20.1025 41.1555C19.9448 40.9946 19.7592 40.8241 19.5552 40.6631L16.0858 37.9074C15.7982 37.6802 15.6312 37.4718 15.6034 37.2824C15.5663 37.1025 15.6498 36.8847 15.826 36.648L17.0598 35.0286C17.2453 34.7919 17.4216 34.6593 17.6071 34.6499C17.7834 34.6404 18.0245 34.7446 18.3121 34.9813L21.7815 37.737C21.9856 37.898 22.1897 38.04 22.3845 38.1631C22.5886 38.2862 22.8019 38.3336 23.0338 38.2862L26.5032 37.7086C26.9485 37.6233 27.1804 37.7654 27.2082 38.1347L27.468 40.379C27.4958 40.6063 27.468 40.7673 27.3659 40.862C27.2732 40.9661 27.1247 41.0324 26.9114 41.0703L23.7388 41.648L24.1563 45.0381C24.2027 45.4453 24.0357 45.6821 23.6368 45.7578L21.429 46.0703V46.0798ZM25.3622 35.3127L24.2861 36.8279C24.1377 37.0457 23.9986 37.1688 23.8594 37.1972C23.7203 37.2256 23.5533 37.1593 23.3678 37.0078L21.7815 35.7483C21.5867 35.5968 21.4939 35.4548 21.5032 35.3222C21.5032 35.1896 21.5774 35.0097 21.7258 34.8014L22.8019 33.2862L21.1507 31.9794C20.8631 31.7521 20.6962 31.5438 20.6683 31.3544C20.6405 31.1745 20.7147 30.9567 20.891 30.7199L22.1247 29.1006C22.3195 28.8449 22.5051 28.7218 22.6813 28.7124C22.8576 28.7124 23.0895 28.8165 23.3863 29.0533L31.5681 35.5589C31.8557 35.7957 32.0227 35.9946 32.0598 36.1745C32.0969 36.3544 32.0227 36.5627 31.8279 36.8184L30.5941 38.4377C30.4086 38.6745 30.2323 38.8071 30.0468 38.8165C29.8613 38.826 29.6294 38.7218 29.3418 38.4851L25.3715 35.3317L25.3622 35.3127ZM23.8409 28.0874C23.5533 27.8506 23.3863 27.6518 23.3585 27.4624C23.3307 27.2824 23.4049 27.0646 23.5811 26.8279L24.8149 25.2086C25.0097 24.9529 25.1952 24.8298 25.3715 24.8203C25.5477 24.8203 25.7796 24.9245 26.0765 25.1612L34.2583 31.6669C34.5459 31.9036 34.7129 32.1025 34.75 32.2824C34.7871 32.4624 34.7129 32.6707 34.5181 32.9264L33.2843 34.5457C33.0988 34.7824 32.9225 34.915 32.737 34.9245C32.5514 34.934 32.3195 34.8298 32.032 34.593L23.8501 28.0874H23.8409ZM32.0227 48.3904C31.8372 48.6555 31.6609 48.7786 31.4754 48.7881C31.2899 48.7881 31.0579 48.6745 30.7611 48.4472L26.5496 45.1044C26.262 44.8677 26.095 44.6688 26.0672 44.4794C26.0394 44.2995 26.1136 44.0817 26.2899 43.8449L27.5236 42.2256C27.7184 41.9699 27.904 41.8468 28.0802 41.8374C28.2565 41.8374 28.4884 41.9415 28.7852 42.1783L31.16 44.0627L36.4661 36.8279C36.6145 36.6101 36.7537 36.5059 36.9021 36.4965C37.0505 36.4965 37.236 36.5817 37.4587 36.7616L38.8409 37.8601C39.0635 38.04 39.1841 38.1915 39.2119 38.3336C39.2398 38.4756 39.1655 38.6555 38.9986 38.8923L32.0227 48.3904Z" fill="white"/>
<path d="M29.5922 21.6193C29.4437 21.4204 29.3881 21.2594 29.4252 21.1268C29.4623 20.9943 29.5736 20.8428 29.7684 20.6723L37.0133 14.7064C37.2081 14.5359 37.3751 14.4507 37.5142 14.4602C37.6534 14.4602 37.8018 14.5738 37.9502 14.7632L39.2118 16.4394C39.3603 16.6382 39.4159 16.7992 39.3788 16.9318C39.3417 17.0643 39.2304 17.2159 39.0356 17.3863L34.1469 21.392L35.9558 23.7594L39.5458 20.8049C39.7499 20.6439 39.9168 20.5681 40.056 20.5681C40.1951 20.5681 40.3343 20.6723 40.4827 20.8617L41.7072 22.481C41.8556 22.6799 41.9113 22.8409 41.8835 22.9734C41.8463 23.106 41.735 23.2575 41.5309 23.4185L37.9781 26.3447L39.9911 28.9393L44.4437 25.2746C44.6386 25.1041 44.8055 25.0189 44.9447 25.0284C45.0838 25.0284 45.2322 25.142 45.3807 25.3314L46.5681 26.9034C46.7165 27.1022 46.7721 27.2632 46.735 27.3958C46.6979 27.5284 46.5866 27.6799 46.3918 27.8503L39.7591 33.3333C39.518 33.5416 39.3139 33.6174 39.1469 33.57C38.9799 33.5227 38.7758 33.3522 38.5347 33.0587L29.62 21.5909L29.5922 21.6193ZM40.1673 14.034C39.9447 13.731 39.8334 13.4943 39.8519 13.3049C39.8612 13.125 39.9911 12.9356 40.223 12.7462L41.8092 11.4962C42.0597 11.2973 42.2638 11.2215 42.44 11.2594C42.6163 11.2973 42.8111 11.4678 43.0337 11.7708L51.0486 22.4053C51.2712 22.7083 51.3825 22.945 51.3732 23.125C51.364 23.3049 51.2341 23.4943 50.9929 23.6837L49.4066 24.9337C49.1655 25.1231 48.9614 25.1988 48.7851 25.1609C48.6089 25.1231 48.4048 24.9621 48.1821 24.659L44.9911 20.4261L43.4419 21.695C43.2471 21.8655 43.0801 21.9507 42.941 21.9412C42.8018 21.9412 42.6534 21.8276 42.505 21.6382L41.2805 20.0189C41.1321 19.82 41.0764 19.659 41.1135 19.5265C41.1506 19.3939 41.2619 19.2424 41.4567 19.0719L43.0059 17.803L40.158 14.0246L40.1673 14.034Z" fill="white"/>
<path d="M118.896 23.5705C118.015 23.1633 117.291 22.7182 116.735 22.2163C116.169 21.7239 115.761 21.2031 115.501 20.6728C115.241 20.133 115.111 19.5932 115.111 19.0345C115.111 18.4758 115.232 17.936 115.464 17.4057C115.696 16.8754 116.02 16.4303 116.419 16.0516C116.827 15.6822 117.31 15.4171 117.876 15.2656C118.442 15.1141 119.091 15.0857 119.833 15.1898C120.566 15.294 121.382 15.5402 122.263 15.9474C123.154 16.3641 123.887 16.8091 124.434 17.3016C124.991 17.794 125.399 18.3053 125.659 18.8451C125.918 19.3849 126.048 19.9247 126.048 20.4834C126.048 21.0421 125.928 21.5819 125.696 22.1122C125.464 22.6425 125.139 23.0875 124.74 23.4663C124.332 23.8357 123.85 24.1008 123.284 24.2523C122.718 24.4038 122.069 24.4322 121.336 24.3375C120.603 24.2429 119.796 23.9872 118.896 23.5705ZM122.82 5.94739L122.236 7.32997L131.206 11.241C131.484 11.3546 131.633 11.4872 131.66 11.6387C131.688 11.7902 131.633 12.0269 131.494 12.33L130.965 13.5232C130.826 13.8262 130.696 14.0156 130.575 14.0913C130.445 14.1671 130.25 14.1482 129.972 14.0156L125.891 12.2353L125.473 13.1917L129.805 15.0857C130.037 15.1898 130.186 15.3129 130.25 15.436C130.315 15.5591 130.297 15.7391 130.195 15.9569L129.462 17.6235C129.36 17.8508 129.249 17.9739 129.119 18.0118C128.989 18.0497 128.803 18.0118 128.571 17.8982L116.577 12.6235C116.345 12.5194 116.197 12.3963 116.132 12.2732C116.067 12.15 116.085 11.9701 116.187 11.7523L116.92 10.0857C117.022 9.85838 117.134 9.73527 117.273 9.69739C117.412 9.65952 117.588 9.69739 117.82 9.81103L122.143 11.7334L122.56 10.7769L118.581 9.01558C118.312 8.89247 118.154 8.73149 118.117 8.54209C118.08 8.3527 118.117 8.09702 118.237 7.78452L120.325 2.57618C120.464 2.2258 120.612 2.01747 120.779 1.94171C120.946 1.86596 121.169 1.89436 121.456 2.02694L133.173 7.17846C133.46 7.31103 133.618 7.43414 133.646 7.56671C133.673 7.68982 133.618 7.92656 133.46 8.26747L132.95 9.42277C132.802 9.76368 132.672 9.96255 132.56 10.0194C132.449 10.0762 132.254 10.0383 131.957 9.92467L122.802 5.95686L122.82 5.94739ZM119.972 21.1463C120.659 21.4588 121.206 21.5535 121.623 21.4114C122.032 21.2788 122.328 21.0137 122.495 20.6254C122.662 20.2372 122.662 19.8489 122.495 19.4417C122.328 19.0345 121.892 18.6747 121.206 18.3622C120.519 18.0497 119.972 17.955 119.555 18.097C119.147 18.2391 118.85 18.4947 118.683 18.883C118.516 19.2713 118.516 19.6595 118.683 20.0667C118.859 20.4739 119.286 20.8338 119.972 21.1463Z" fill="white"/>
<path d="M139.471 24.5555L139.007 25.1805L142.365 27.6427C142.625 27.8415 142.773 28.0214 142.81 28.1824C142.848 28.3434 142.745 28.5517 142.532 28.798L140.25 31.5726C140.037 31.8093 139.87 31.9419 139.731 31.9703C139.601 31.9987 139.397 31.9135 139.128 31.7241L132.17 26.8851L131.669 27.5669L138.386 32.4438C138.599 32.5858 138.71 32.7279 138.729 32.8699C138.747 33.012 138.673 33.173 138.534 33.3718L137.838 34.3093C137.69 34.5082 137.56 34.6124 137.43 34.6218C137.3 34.6313 137.143 34.565 136.938 34.404L128.042 27.8605C127.773 27.6711 127.634 27.5006 127.616 27.3491C127.597 27.1976 127.69 26.9798 127.875 26.7052L129.916 23.7222C130.102 23.4476 130.269 23.2961 130.426 23.2866C130.584 23.2677 130.797 23.3529 131.066 23.5423L138.154 28.457L138.617 27.832L131.104 22.3396C130.937 22.207 130.825 22.1029 130.788 22.0177C130.751 21.9324 130.779 21.8377 130.862 21.7146L131.864 20.3605C131.957 20.2374 132.05 20.1711 132.143 20.1805C132.235 20.1805 132.365 20.2563 132.541 20.3889L136.076 23.0214L136.54 22.3964L132.727 19.5555C132.523 19.3945 132.402 19.2525 132.365 19.1199C132.328 18.9874 132.384 18.8169 132.532 18.618L133.404 17.4343C133.553 17.2355 133.692 17.1408 133.831 17.1313C133.97 17.1313 134.137 17.207 134.341 17.3586L144.907 25.19C145.111 25.351 145.232 25.493 145.269 25.6256C145.306 25.7582 145.25 25.9286 145.102 26.1275L144.23 27.3112C144.081 27.5101 143.942 27.6048 143.803 27.6142C143.664 27.6142 143.497 27.5385 143.293 27.387L139.471 24.565V24.5555ZM149.452 18.6654C149.703 18.8548 149.833 19.0442 149.851 19.2336C149.87 19.423 149.758 19.6597 149.527 19.9533L146.326 23.9779C146.122 24.2336 145.918 24.3945 145.732 24.4514C145.547 24.5082 145.334 24.4514 145.102 24.262L135.148 16.904C134.907 16.7241 134.786 16.5347 134.796 16.3358C134.796 16.137 134.888 15.9002 135.074 15.6256L137.968 11.3642C138.181 11.0517 138.376 10.8813 138.553 10.8434C138.729 10.8055 138.942 10.8813 139.193 11.0802L149.452 18.6748V18.6654ZM144.61 20.4267L145.51 19.2052L139.823 15.0101L138.942 16.2411L144.619 20.4267H144.61Z" fill="white"/>
<path d="M148.423 41.7527L142.505 34.9629C142.338 34.7641 142.254 34.5936 142.245 34.4516C142.245 34.3095 142.329 34.158 142.514 33.997L144.035 32.6618C144.221 32.5008 144.379 32.4345 144.509 32.4629C144.638 32.4913 144.796 32.605 144.963 32.8038L152.811 41.8285C153.034 42.0747 153.126 42.283 153.099 42.4724C153.061 42.6523 152.904 42.8606 152.616 43.0974L148.581 46.3644C148.293 46.6012 148.061 46.7243 147.885 46.7243C147.718 46.7243 147.523 46.6107 147.319 46.3739L146.011 44.8209C145.817 44.5936 145.733 44.3758 145.752 44.1864C145.77 43.997 145.928 43.7887 146.215 43.5519L148.414 41.7527H148.423ZM154.128 35.1334L153.349 35.8152L156.484 39.4137C156.651 39.6125 156.735 39.783 156.744 39.925C156.744 40.0671 156.661 40.2186 156.475 40.3796L154.954 41.7148C154.768 41.8758 154.611 41.9421 154.481 41.9137C154.351 41.8853 154.193 41.7716 154.026 41.5728L145.371 31.5917C145.204 31.3928 145.121 31.2224 145.112 31.0803C145.112 30.9383 145.195 30.7868 145.381 30.6258L146.902 29.2906C147.087 29.1296 147.245 29.0633 147.375 29.0917C147.505 29.1201 147.663 29.2338 147.83 29.4326L150.946 33.05L151.726 32.3682L148.859 29.0538C148.664 28.8266 148.59 28.6088 148.637 28.4194C148.683 28.23 148.822 28.0216 149.063 27.7849L153.609 23.5614C153.878 23.3057 154.11 23.1826 154.286 23.1826C154.462 23.1826 154.657 23.3057 154.861 23.5519L156.169 25.105C156.364 25.3322 156.447 25.55 156.42 25.7394C156.392 25.9288 156.271 26.1182 156.048 26.3076L155.64 26.658L160.316 32.0368L160.789 31.6296C161.002 31.4402 161.206 31.3455 161.392 31.3455C161.577 31.3455 161.772 31.4591 161.967 31.6959L163.275 33.2489C163.479 33.4951 163.572 33.7035 163.544 33.8834C163.516 34.0633 163.358 34.2716 163.071 34.5084L158.275 38.4383C158.015 38.6466 157.792 38.7508 157.598 38.7697C157.403 38.7887 157.208 38.675 157.013 38.4478L154.128 35.1428V35.1334ZM157.366 34.5747L158.191 33.855L153.535 28.4951L152.718 29.2338L157.366 34.5747Z" fill="white"/>
<path d="M169.286 50.1992C168.961 50.3697 168.739 50.4455 168.618 50.4171C168.498 50.3886 168.358 50.2371 168.21 49.9625L166.716 47.15L163.396 48.9019C163.164 49.025 162.969 49.1576 162.802 49.2996C162.635 49.4417 162.496 49.6216 162.375 49.8299L159.601 55.6349C159.481 55.8811 159.351 56.0042 159.212 56.0136C159.073 56.0231 158.896 55.9663 158.674 55.8527L156.763 54.8299C156.54 54.7163 156.429 54.5932 156.42 54.4606C156.41 54.328 156.457 54.1671 156.55 53.9871L158.729 49.2807L153.331 48.5799C153.126 48.561 152.978 48.5042 152.876 48.4189C152.774 48.3337 152.746 48.1633 152.783 47.9171L153.071 45.7296C153.108 45.4833 153.164 45.3034 153.256 45.1992C153.349 45.0951 153.516 45.0572 153.776 45.0856L160.399 45.9284C160.631 45.9474 160.863 45.9284 161.067 45.8811C161.28 45.8242 161.503 45.739 161.726 45.6159L164.963 43.9019L163.451 41.0515C163.303 40.7864 163.256 40.5875 163.312 40.4644C163.368 40.3413 163.562 40.1898 163.887 40.0099L165.251 39.2902C165.575 39.1197 165.807 39.0439 165.928 39.0818C166.049 39.1197 166.188 39.2618 166.336 39.5269L171.095 48.4474C171.253 48.722 171.299 48.9208 171.243 49.0439C171.188 49.1671 170.993 49.3091 170.659 49.489L169.295 50.2087L169.286 50.1992ZM170.937 51.2409C171.262 51.0705 171.522 51.0042 171.698 51.0515C171.874 51.0989 172.032 51.2599 172.171 51.525L173.089 53.3432C173.238 53.6273 173.275 53.8546 173.201 54.0155C173.127 54.1765 172.932 54.3564 172.607 54.5269L160.928 60.6917C160.603 60.8621 160.353 60.9284 160.177 60.8905C160 60.8527 159.843 60.6917 159.703 60.4076L158.785 58.5894C158.646 58.3148 158.609 58.097 158.674 57.9265C158.739 57.7561 158.934 57.5761 159.268 57.4057L170.937 51.2409Z" fill="white"/>
<path d="M157.616 67.7944C157.533 67.4819 157.551 67.2547 157.663 67.1126C157.774 66.9706 158.015 66.8569 158.377 66.7717L163.581 65.5785C163.943 65.4933 164.203 65.5028 164.36 65.588C164.518 65.6732 164.629 65.8721 164.694 66.1657L165.13 68.1638C165.195 68.4763 165.177 68.7035 165.075 68.8456C164.963 68.9876 164.731 69.1013 164.37 69.1865L161.438 69.8588L163.553 78.6372C163.627 78.8929 163.609 79.0729 163.525 79.1865C163.442 79.3001 163.247 79.3948 162.969 79.4611L161.262 79.8494C160.984 79.9157 160.789 79.9062 160.668 79.8494C160.548 79.7831 160.455 79.6032 160.381 79.3285L157.616 67.7944ZM166.095 60.91C166.188 60.7395 166.299 60.6543 166.429 60.6543C166.559 60.6543 166.717 60.7111 166.902 60.8342L170.01 62.8229C170.214 62.9554 170.427 63.0123 170.659 62.9838C170.891 62.9554 171.123 62.9175 171.373 62.8607L175.659 61.8759C176.021 61.7907 176.281 61.8001 176.438 61.8854C176.596 61.9706 176.707 62.1694 176.772 62.463L177.208 64.4611C177.273 64.7547 177.255 64.9819 177.153 65.1335C177.05 65.285 176.809 65.3986 176.457 65.4838L172.171 66.4687C171.921 66.5255 171.689 66.5918 171.466 66.677C171.243 66.7623 171.076 66.9043 170.956 67.1032L169.193 70.2092C168.98 70.6164 168.72 70.7111 168.423 70.4933L166.559 69.2717C166.373 69.1486 166.271 69.0255 166.253 68.8835C166.234 68.7414 166.281 68.5804 166.383 68.391L167.96 65.5312L165.13 63.7035C164.787 63.4857 164.722 63.1922 164.917 62.8418L166.086 60.9005L166.095 60.91ZM171.744 70.8437L171.281 69.035C171.206 68.7793 171.206 68.5899 171.281 68.4668C171.345 68.3437 171.494 68.249 171.735 68.1922L173.692 67.7471C173.924 67.6903 174.091 67.7092 174.193 67.7944C174.295 67.8797 174.379 68.0501 174.453 68.3058L174.917 70.1145L176.958 69.6505C177.319 69.5653 177.579 69.5747 177.737 69.66C177.895 69.7547 178.006 69.9441 178.071 70.2376L178.507 72.2357C178.572 72.5482 178.553 72.7755 178.451 72.9176C178.34 73.0596 178.108 73.1732 177.746 73.2585L167.635 75.5785C167.273 75.6638 167.013 75.6638 166.856 75.5785C166.698 75.4933 166.587 75.2944 166.522 74.9819L166.086 72.9838C166.021 72.6903 166.039 72.463 166.141 72.3115C166.243 72.16 166.475 72.0463 166.837 71.9611L171.754 70.8342L171.744 70.8437ZM178.173 74.2338C178.535 74.1486 178.794 74.1581 178.952 74.2433C179.11 74.3285 179.221 74.5274 179.286 74.821L179.722 76.8191C179.787 77.1316 179.768 77.3588 179.666 77.5009C179.555 77.6429 179.323 77.7566 178.961 77.8418L168.841 80.1619C168.479 80.2471 168.219 80.2471 168.062 80.1619C167.904 80.0766 167.793 79.8778 167.718 79.5747L167.282 77.5766C167.217 77.2831 167.236 77.0558 167.338 76.9043C167.44 76.7528 167.672 76.6391 168.034 76.5539L178.145 74.2338H178.173Z" fill="white"/>
<path d="M179.407 82.8699C179.648 82.8699 179.806 82.9361 179.88 83.0498C179.954 83.1634 179.991 83.3433 180 83.6085L179.917 93.1066C179.917 93.3717 179.88 93.5517 179.787 93.6558C179.694 93.76 179.518 93.8074 179.277 93.8074L177.208 93.7411C176.967 93.7411 176.809 93.6748 176.735 93.5611C176.661 93.4475 176.624 93.2676 176.614 93.0024L176.689 86.6009L173.748 86.5252L173.711 91.2316C173.711 91.4967 173.655 91.6767 173.563 91.7808C173.47 91.885 173.312 91.9324 173.071 91.9324L171.067 91.8661C170.826 91.8661 170.668 91.7998 170.585 91.6861C170.501 91.5725 170.464 91.3926 170.473 91.1274L170.511 86.4683L167.264 86.4115L167.208 92.2543C167.208 92.5195 167.171 92.6994 167.069 92.8036C166.967 92.9077 166.8 92.9551 166.559 92.9551L164.62 92.8888C164.379 92.8888 164.221 92.8225 164.147 92.7089C164.073 92.5952 164.036 92.4153 164.026 92.1502L164.082 83.438C164.082 83.1161 164.147 82.9077 164.295 82.8036C164.444 82.6994 164.694 82.6426 165.065 82.6426L179.407 82.8888V82.8699ZM178.442 96.0233C178.813 96.0327 179.063 96.1085 179.193 96.2316C179.323 96.3547 179.388 96.5725 179.379 96.885L179.314 98.9305C179.305 99.2524 179.23 99.4608 179.091 99.5744C178.952 99.688 178.702 99.7354 178.331 99.7259L165.195 99.2998C164.824 99.2903 164.574 99.224 164.444 99.1009C164.314 98.9778 164.249 98.76 164.258 98.438L164.323 96.3926C164.323 96.0896 164.407 95.8718 164.546 95.7581C164.685 95.6445 164.935 95.5877 165.307 95.5971L170.529 95.7676L170.548 93.7411C170.548 93.4759 170.585 93.296 170.678 93.1918C170.77 93.0877 170.947 93.0403 171.188 93.0403L173.191 93.1066C173.433 93.1066 173.59 93.1729 173.665 93.2865C173.739 93.4002 173.776 93.5801 173.785 93.8452L173.767 95.8717L178.433 96.0233H178.442Z" fill="white"/>
<path d="M134.703 143.163C135.446 142.529 136.16 142.074 136.846 141.771C137.533 141.468 138.164 141.326 138.748 141.316C139.332 141.316 139.87 141.43 140.362 141.676C140.854 141.922 141.271 142.273 141.642 142.718C142.004 143.163 142.264 143.655 142.412 144.195C142.561 144.726 142.579 145.294 142.459 145.881C142.347 146.468 142.078 147.074 141.67 147.708C141.262 148.343 140.677 148.968 139.935 149.602C139.184 150.237 138.46 150.71 137.783 150.994C137.106 151.288 136.475 151.43 135.882 151.44C135.297 151.44 134.759 151.326 134.267 151.08C133.776 150.833 133.358 150.483 132.987 150.038C132.626 149.593 132.366 149.101 132.217 148.561C132.069 148.03 132.05 147.462 132.171 146.875C132.282 146.288 132.542 145.682 132.95 145.057C133.358 144.432 133.933 143.797 134.694 143.163H134.703ZM148.479 154.508L147.523 153.362L140.139 159.858C139.917 160.066 139.731 160.142 139.583 160.095C139.434 160.047 139.258 159.896 139.045 159.64L138.228 158.636C138.024 158.381 137.913 158.172 137.895 158.021C137.885 157.869 137.997 157.699 138.219 157.5L141.577 154.546L140.928 153.741L137.347 156.875C137.152 157.046 136.985 157.131 136.846 157.131C136.707 157.131 136.568 157.036 136.41 156.847L135.269 155.436C135.112 155.246 135.056 155.085 135.084 154.943C135.112 154.811 135.223 154.659 135.418 154.489L145.334 145.815C145.529 145.644 145.696 145.559 145.835 145.559C145.974 145.559 146.113 145.654 146.271 145.843L147.412 147.254C147.57 147.443 147.626 147.604 147.607 147.746C147.579 147.879 147.468 148.03 147.273 148.201L143.683 151.326L144.332 152.131L147.626 149.261C147.857 149.063 148.061 148.996 148.247 149.044C148.433 149.091 148.637 149.243 148.859 149.489L152.523 153.693C152.774 153.977 152.895 154.205 152.885 154.394C152.885 154.574 152.755 154.773 152.514 154.981L142.82 163.457C142.579 163.665 142.394 163.75 142.273 163.722C142.152 163.693 141.967 163.532 141.735 163.248L140.946 162.273C140.715 161.979 140.594 161.771 140.594 161.648C140.594 161.525 140.715 161.354 140.946 161.136L148.47 154.498L148.479 154.508ZM136.364 145.208C135.779 145.701 135.464 146.165 135.399 146.6C135.344 147.036 135.436 147.415 135.705 147.746C135.965 148.068 136.318 148.239 136.744 148.267C137.18 148.286 137.681 148.049 138.266 147.566C138.85 147.074 139.165 146.61 139.23 146.174C139.295 145.739 139.193 145.36 138.924 145.029C138.664 144.707 138.312 144.536 137.885 144.508C137.449 144.489 136.948 144.725 136.364 145.208Z" fill="white"/>
<path d="M124.806 161.592L124.453 160.891L120.808 162.889C120.52 163.04 120.297 163.097 120.14 163.059C119.982 163.021 119.843 162.842 119.722 162.529L118.284 159.215C118.164 158.921 118.127 158.703 118.164 158.571C118.201 158.438 118.359 158.287 118.646 158.126L125.956 153.874L125.576 153.116L118.34 157.131C118.117 157.264 117.941 157.302 117.821 157.254C117.7 157.207 117.57 157.074 117.468 156.857L116.949 155.806C116.837 155.588 116.809 155.417 116.847 155.294C116.893 155.171 117.023 155.057 117.255 154.934L126.93 149.65C127.218 149.489 127.431 149.432 127.57 149.489C127.709 149.546 127.858 149.717 128.025 150.01L129.759 153.192C129.917 153.485 129.973 153.703 129.917 153.855C129.861 154.006 129.694 154.158 129.407 154.328L121.967 158.665L122.32 159.366L130.455 154.887C130.65 154.792 130.789 154.735 130.873 154.745C130.965 154.745 131.04 154.811 131.104 154.944L131.865 156.459C131.939 156.601 131.949 156.715 131.902 156.79C131.856 156.866 131.735 156.961 131.55 157.065L127.681 159.148L128.034 159.849L132.208 157.605C132.44 157.482 132.617 157.444 132.746 157.472C132.876 157.501 133.006 157.624 133.108 157.841L133.767 159.158C133.878 159.376 133.906 159.556 133.85 159.679C133.795 159.802 133.655 159.925 133.424 160.048L121.893 166.298C121.661 166.421 121.485 166.459 121.355 166.431C121.225 166.402 121.095 166.279 120.993 166.061L120.334 164.745C120.223 164.527 120.195 164.347 120.251 164.224C120.307 164.101 120.446 163.978 120.678 163.855L124.843 161.592H124.806ZM125.594 173.334C125.316 173.476 125.093 173.514 124.926 173.448C124.759 173.381 124.592 173.173 124.444 172.832L122.31 168.126C122.171 167.823 122.125 167.576 122.153 167.377C122.18 167.179 122.329 167.018 122.598 166.876L133.451 160.976C133.72 160.834 133.934 160.815 134.11 160.9C134.286 160.985 134.453 161.175 134.611 161.468L137.088 165.995C137.273 166.326 137.338 166.582 137.292 166.762C137.245 166.942 137.088 167.103 136.8 167.245L125.613 173.315L125.594 173.334ZM126.169 168.116L126.847 169.47L133.043 166.099L132.347 164.754L126.169 168.116Z" fill="white"/>
<path d="M105.733 162.207L114.314 159.792C114.564 159.726 114.75 159.726 114.87 159.782C114.991 159.839 115.084 159.991 115.149 160.227L115.649 162.207C115.705 162.443 115.696 162.623 115.612 162.737C115.529 162.851 115.362 162.936 115.121 163.002L103.72 166.203C103.405 166.298 103.182 166.288 103.034 166.184C102.885 166.07 102.774 165.833 102.7 165.464L101.614 160.332C101.54 159.962 101.531 159.697 101.605 159.536C101.679 159.375 101.865 159.252 102.162 159.176L104.1 158.665C104.388 158.589 104.611 158.599 104.768 158.703C104.926 158.807 105.047 159.044 105.121 159.413L105.733 162.216V162.207ZM109.026 170.36L108.776 169.347L104.23 170.625C103.98 170.691 103.794 170.691 103.674 170.635C103.553 170.578 103.46 170.426 103.395 170.19L102.894 168.21C102.839 167.974 102.848 167.794 102.931 167.68C103.015 167.566 103.182 167.481 103.423 167.415L116.021 163.902C116.271 163.835 116.457 163.835 116.577 163.892C116.698 163.949 116.79 164.101 116.855 164.337L117.356 166.316C117.412 166.553 117.403 166.733 117.319 166.847C117.236 166.96 117.069 167.046 116.828 167.112L112.273 168.371L112.523 169.385L116.707 168.229C116.995 168.154 117.217 168.182 117.366 168.305C117.514 168.428 117.635 168.655 117.727 168.977L119.434 175.01C119.536 175.369 119.546 175.635 119.471 175.796C119.397 175.957 119.193 176.08 118.887 176.165L116.948 176.676C116.661 176.752 116.438 176.733 116.29 176.629C116.141 176.525 116.03 176.326 115.956 176.042L115.826 175.512L109.035 177.415L109.193 178.03C109.267 178.315 109.258 178.542 109.175 178.712C109.091 178.883 108.906 179.006 108.618 179.082L106.679 179.593C106.373 179.669 106.15 179.659 106.002 179.555C105.854 179.451 105.733 179.214 105.659 178.845L104.323 172.718C104.258 172.387 104.258 172.131 104.323 171.951C104.397 171.771 104.573 171.638 104.861 171.563L109.035 170.379L109.026 170.36ZM108.089 173.57L108.358 174.65L115.13 172.746L114.842 171.676L108.098 173.57H108.089Z" fill="white"/>
<path d="M87.4674 178.627C87.4674 179.006 87.421 179.262 87.3004 179.404C87.1798 179.546 86.9757 179.622 86.6789 179.622L84.6752 179.66C84.3598 179.66 84.1464 179.603 84.0351 179.47C83.9238 179.338 83.8589 179.082 83.8496 178.703L83.5898 165.285C83.5898 164.906 83.6362 164.65 83.7475 164.508C83.8589 164.366 84.0722 164.29 84.3876 164.29L86.3913 164.252C86.6882 164.252 86.9015 164.309 87.0221 164.451C87.1427 164.584 87.2077 164.84 87.2169 165.218L87.4767 178.637L87.4674 178.627ZM89.1093 177.567C89.1093 177.188 89.1372 176.951 89.2114 176.857C89.2856 176.762 89.4804 176.705 89.7958 176.677L92.9312 176.544L92.857 172.737C92.857 172.472 92.8199 172.235 92.7642 172.018C92.7086 171.8 92.6158 171.591 92.4859 171.393L88.6084 166.288C88.4507 166.071 88.395 165.9 88.4507 165.768C88.5064 165.635 88.627 165.493 88.831 165.341L90.575 164.044C90.7698 163.893 90.9275 163.845 91.0481 163.893C91.1687 163.94 91.2893 164.054 91.4099 164.224L94.5824 168.296L97.588 163.656C97.6993 163.476 97.8106 163.362 97.9312 163.315C98.0518 163.258 98.2095 163.315 98.4136 163.447L100.204 164.679C100.408 164.821 100.538 164.953 100.584 165.086C100.64 165.218 100.594 165.389 100.454 165.616L96.7902 171.307C96.6696 171.516 96.5769 171.724 96.5398 171.942C96.4934 172.16 96.4748 172.396 96.4748 172.661L96.549 176.383L99.7216 176.251C100.018 176.232 100.213 176.269 100.297 176.383C100.38 176.487 100.427 176.733 100.436 177.112L100.464 178.684C100.464 179.063 100.436 179.3 100.352 179.394C100.269 179.489 100.074 179.546 99.7772 179.565L89.8422 179.982C89.5268 180.001 89.332 179.963 89.2577 179.849C89.1743 179.745 89.1372 179.499 89.1279 179.12L89.1001 177.548L89.1093 177.567Z" fill="white"/>
<path d="M64.0535 175.152C63.97 175.522 63.8494 175.758 63.701 175.863C63.5525 175.967 63.3299 175.986 63.0423 175.919L61.0943 175.446C60.7882 175.37 60.6026 175.257 60.5191 175.096C60.4357 174.935 60.4449 174.669 60.5191 174.3L62.9218 164.007C63.0052 163.637 63.1258 163.4 63.265 163.296C63.4041 163.192 63.6268 163.173 63.9329 163.249L65.8809 163.722C66.1685 163.789 66.3633 163.912 66.4468 164.073C66.5303 164.234 66.5303 164.499 66.4468 164.868L64.0442 175.171L64.0535 175.152ZM69.8605 170.749L71.6602 171.118C71.9106 171.166 72.0776 171.241 72.1611 171.364C72.2446 171.478 72.2538 171.658 72.1982 171.904L71.7344 173.893C71.6787 174.13 71.5859 174.281 71.4653 174.328C71.3448 174.385 71.1592 174.385 70.9088 174.328L69.1091 173.959L68.6268 176.033C68.5433 176.402 68.4227 176.639 68.2743 176.743C68.1258 176.847 67.9032 176.866 67.6156 176.8L65.6676 176.327C65.3615 176.251 65.1759 176.137 65.0924 175.976C65.0089 175.815 65.0182 175.55 65.0924 175.181L67.495 164.878C67.5785 164.508 67.6898 164.272 67.8383 164.167C67.9774 164.063 68.2 164.044 68.5062 164.12L70.4542 164.594C70.7418 164.66 70.9366 164.783 71.0201 164.944C71.1036 165.105 71.1036 165.37 71.0201 165.739L69.8513 170.739L69.8605 170.749ZM78.7566 159.139C79.0628 159.196 79.2576 159.31 79.3318 159.48C79.406 159.65 79.406 159.916 79.3225 160.285L78.0887 165.578C78.0052 165.948 77.8846 166.185 77.7362 166.289C77.5878 166.393 77.3652 166.412 77.0776 166.346L75.1295 165.872C74.8234 165.796 74.6379 165.683 74.5544 165.522C74.4709 165.361 74.4802 165.096 74.5544 164.726L75.2501 161.734L66.5952 159.811C66.3448 159.764 66.1871 159.679 66.1221 159.537C66.0572 159.404 66.0572 159.196 66.1221 158.912L66.5303 157.179C66.5952 156.895 66.688 156.715 66.7993 156.639C66.9106 156.563 67.1054 156.554 67.393 156.601L78.7566 159.139ZM81.085 169.935C81.1963 170.096 81.2242 170.238 81.1592 170.361C81.1036 170.484 80.983 170.597 80.7882 170.721L77.6713 172.7C77.4672 172.832 77.3188 173.003 77.2446 173.221C77.1704 173.438 77.0961 173.675 77.0312 173.931L76.0108 178.296C75.9273 178.666 75.8067 178.902 75.6583 179.007C75.5099 179.111 75.2872 179.13 74.9997 179.063L73.0516 178.59C72.764 178.524 72.5692 178.4 72.4858 178.239C72.4023 178.078 72.4023 177.813 72.4858 177.444L73.5062 173.078C73.5618 172.823 73.6082 172.577 73.636 172.34C73.6639 172.103 73.6082 171.885 73.4783 171.686L71.521 168.703C71.2613 168.325 71.2891 168.05 71.6045 167.87L73.4969 166.696C73.6824 166.582 73.8401 166.544 73.97 166.592C74.0999 166.639 74.2204 166.753 74.341 166.933L76.1685 169.641L79.0256 167.851C79.3689 167.633 79.6564 167.7 79.8791 168.041L81.0757 169.963L81.085 169.935Z" fill="white"/>
<path d="M44.75 165.777C44.5737 166.108 44.4067 166.307 44.2305 166.373C44.0635 166.439 43.8409 166.402 43.5811 166.25L41.8093 165.284C41.531 165.133 41.3733 164.972 41.3362 164.792C41.2991 164.612 41.3641 164.356 41.5403 164.025L47.7184 152.188C47.8947 151.856 48.0617 151.657 48.2286 151.591C48.3956 151.525 48.609 151.563 48.8873 151.714L50.6591 152.68C50.9188 152.822 51.0765 152.983 51.1229 153.163C51.1693 153.343 51.1043 153.598 50.9281 153.93L48.4698 158.636L50.2416 159.555C50.4735 159.669 50.6127 159.792 50.6683 159.924C50.724 160.057 50.6869 160.237 50.5756 160.455L49.6294 162.263C49.5181 162.481 49.3975 162.604 49.2583 162.623C49.1284 162.642 48.9429 162.595 48.711 162.491L46.9392 161.572L44.7407 165.786L44.75 165.777ZM55.8724 172.481C55.7611 172.699 55.6405 172.813 55.5014 172.841C55.3715 172.86 55.186 172.813 54.954 172.708L46.6424 168.437C46.4104 168.324 46.2713 168.201 46.2156 168.068C46.16 167.936 46.1971 167.756 46.3084 167.538L47.2824 165.672C47.3938 165.455 47.5143 165.331 47.6535 165.313C47.7834 165.294 47.9689 165.341 48.2008 165.445L53.7945 168.343L55.1581 165.682L51.0394 163.57C50.8168 163.447 50.6776 163.324 50.622 163.191C50.5663 163.059 50.5941 162.888 50.7147 162.67L51.6609 160.862C51.7722 160.644 51.9021 160.521 52.032 160.492C52.1711 160.464 52.3474 160.511 52.57 160.634L56.6516 162.727L58.1359 159.782L53.0338 157.15C52.8019 157.036 52.6628 156.913 52.6071 156.78C52.5514 156.648 52.5886 156.468 52.6999 156.25L53.609 154.498C53.7203 154.28 53.8409 154.167 53.98 154.138C54.1099 154.119 54.2954 154.167 54.5273 154.271L62.1618 158.172C62.4401 158.314 62.5978 158.466 62.6257 158.646C62.6535 158.826 62.5886 159.081 62.4216 159.422L55.8631 172.443L55.8724 172.481Z" fill="white"/>
<path d="M28.3813 147.884C28.1767 148.071 27.9454 148.213 27.6697 148.311C26.967 148.559 26.3711 148.284 25.953 147.698C25.535 147.12 25.4104 146.462 25.4638 145.76C25.4994 145.218 25.6239 144.685 25.8996 144.214C26.211 143.69 26.6112 143.237 27.2605 143.086C27.7498 142.979 28.1589 143.113 28.5147 143.432C29.0484 143.903 29.2352 144.534 29.2886 145.201C29.3686 146.116 29.0929 147.227 28.3813 147.875V147.884Z" fill="white"/>
<path d="M20.7225 147.005C20.3133 146.516 20.2422 145.743 20.3934 145.121C20.6336 144.144 21.185 143.38 22.0923 142.891C22.5015 142.669 22.9373 142.58 23.4087 142.687C23.9157 142.811 24.2271 143.14 24.4228 143.593C24.6184 144.064 24.5829 144.535 24.4761 145.006C24.2626 145.885 23.7823 146.596 23.0174 147.103C22.5904 147.387 22.1279 147.547 21.5942 147.476C21.2117 147.423 20.9271 147.245 20.7225 147.005Z" fill="white"/>
<path d="M16.9962 135.178C17.6366 134.547 18.8463 134.529 19.6735 134.654C20.4118 134.76 21.07 135.045 21.5859 135.604C21.9773 136.031 22.0485 136.555 21.746 137.035C21.5592 137.337 21.2835 137.541 20.9544 137.684C20.1094 138.039 19.2466 138.075 18.3749 137.835C17.939 137.719 17.5388 137.541 17.1919 137.257C16.5781 136.751 16.3914 135.862 16.9517 135.24C16.9695 135.222 16.9873 135.205 17.0051 135.178H16.9962Z" fill="white"/>
<path d="M20.9008 139.585C21.5768 140.064 21.7191 140.704 21.3989 141.362C21.1409 141.877 20.714 142.215 20.207 142.49C19.5043 142.863 18.766 142.988 17.9833 142.837C17.6453 142.775 17.3073 142.659 17.0493 142.419C16.5868 142.002 16.4978 141.531 16.7024 140.944C16.8714 140.464 17.2183 140.144 17.6275 139.869C18.428 139.336 19.3175 139.14 20.2692 139.336C20.5361 139.389 20.7851 139.496 20.9008 139.576V139.585Z" fill="white"/>
<path d="M23.8451 141.149C22.6799 140.198 22.6888 138.367 22.8756 137.017C23.089 135.497 23.8629 132.903 25.6152 132.467C26.5936 132.228 27.5898 132.672 28.1769 133.445C28.8796 134.369 28.8529 135.515 28.4704 136.564C28.5416 136.368 29.52 136.573 29.689 136.608C30.9787 136.884 33.0779 138.003 32.4998 139.638C32.0995 140.775 30.6852 141.175 29.6356 141.495C28.6839 141.779 27.6788 141.895 26.6825 141.842C25.7753 141.797 24.7702 141.779 23.9963 141.246C23.9429 141.211 23.8896 141.175 23.8451 141.131V141.149Z" fill="white"/>
<path d="M66.6481 7.56196C66.5859 7.28649 66.5681 7.00214 66.6126 6.70002C66.7192 5.9447 67.2257 5.54483 67.9011 5.45597C68.5764 5.36711 69.1896 5.58926 69.7583 5.98913C70.2026 6.30014 70.5936 6.67336 70.8691 7.16209C71.1712 7.70414 71.3756 8.29061 71.2067 8.95707C71.0823 9.45468 70.7802 9.74792 70.3448 9.91676C69.705 10.1656 69.0918 10.0145 68.4964 9.72126C67.6878 9.33028 66.8792 8.52165 66.6481 7.55307V7.56196Z" fill="white"/>
<path d="M70.8602 1.10235C71.4555 0.98683 72.1398 1.29784 72.6019 1.75103C73.3128 2.45302 73.7126 3.34163 73.7215 4.40795C73.7215 4.8878 73.606 5.3321 73.3039 5.69642C72.9751 6.0963 72.5574 6.20293 72.0776 6.14961C71.5888 6.0963 71.2067 5.82083 70.8602 5.48316C70.2204 4.85225 69.8294 4.0614 69.7494 3.11948C69.705 2.5952 69.7761 2.0887 70.0782 1.65328C70.2915 1.33339 70.5669 1.16455 70.8691 1.11123L70.8602 1.10235Z" fill="white"/>
<path d="M82.5277 3.69562C82.7676 4.5931 82.2434 5.68609 81.7635 6.37031C81.337 6.97456 80.7949 7.43663 80.0929 7.61435C79.5508 7.75653 79.0799 7.55215 78.8133 7.03676C78.6444 6.71687 78.5911 6.36142 78.6267 5.98821C78.7066 5.04629 79.071 4.25544 79.6664 3.58898C79.9596 3.2602 80.2973 2.98473 80.6883 2.8159C81.3992 2.51377 82.2345 2.79813 82.5011 3.61564C82.5011 3.6423 82.5188 3.66896 82.5277 3.69562Z" fill="white"/>
<path d="M77.036 4.99387C76.334 5.3582 75.7208 5.17159 75.3121 4.54957C74.9922 4.06084 74.9033 3.50102 74.9033 2.90565C74.9033 2.08814 75.1344 1.3506 75.6142 0.71969C75.8186 0.444223 76.0674 0.204301 76.3873 0.0887823C76.9471 -0.115596 77.3826 0.0354661 77.7913 0.515312C78.1201 0.906297 78.2356 1.38614 78.2801 1.88376C78.3689 2.87899 78.129 3.7676 77.5336 4.5318C77.3648 4.74506 77.1604 4.91389 77.0449 4.98498L77.036 4.99387Z" fill="white"/>
<path d="M74.3883 6.85992C75.7212 6.29122 77.2585 7.22425 78.3071 8.06842C79.4979 9.02812 81.3284 11.0364 80.9108 12.8313C80.6708 13.8443 79.8444 14.5108 78.9203 14.653C77.8273 14.8218 76.8675 14.2176 76.1478 13.3467C76.2811 13.5067 75.659 14.2886 75.5613 14.4219C74.7437 15.4527 72.851 16.7767 71.7313 15.4261C70.9493 14.4841 71.2515 13.0179 71.4559 11.9072C71.6425 10.9031 72.0068 9.93449 72.4955 9.06366C72.9487 8.2728 73.4108 7.36643 74.2106 6.9399C74.2639 6.91324 74.3172 6.88658 74.3705 6.85992H74.3883Z" fill="white"/>
<path d="M172.022 122.114C172.255 122.273 172.462 122.484 172.624 122.73C173.046 123.363 172.929 123.987 172.471 124.498C172.013 124.999 171.402 125.236 170.71 125.315C170.162 125.377 169.614 125.351 169.083 125.166C168.49 124.955 167.942 124.656 167.628 124.049C167.394 123.601 167.43 123.178 167.646 122.774C167.969 122.176 168.535 121.886 169.173 121.71C170.054 121.473 171.204 121.543 172.022 122.114Z" fill="white"/>
<path d="M173.145 129.669C172.768 130.144 172.04 130.355 171.393 130.32C170.378 130.258 169.488 129.862 168.77 129.071C168.446 128.719 168.248 128.306 168.23 127.84C168.212 127.33 168.464 126.969 168.859 126.705C169.264 126.433 169.74 126.38 170.234 126.406C171.142 126.459 171.968 126.793 172.66 127.444C173.047 127.805 173.325 128.227 173.388 128.746C173.433 129.124 173.334 129.431 173.154 129.669H173.145Z" fill="white"/>
<path d="M162.542 135.35C161.761 134.84 161.428 133.679 161.338 132.861C161.258 132.131 161.365 131.436 161.779 130.847C162.093 130.39 162.587 130.232 163.135 130.443C163.477 130.575 163.755 130.803 163.98 131.093C164.546 131.841 164.807 132.668 164.798 133.556C164.798 133.995 164.726 134.417 164.537 134.796C164.196 135.482 163.378 135.816 162.623 135.385C162.596 135.367 162.578 135.358 162.551 135.341L162.542 135.35Z" fill="white"/>
<path d="M165.849 130.812C166.137 130.082 166.73 129.827 167.458 130.02C168.033 130.179 168.473 130.53 168.868 130.97C169.416 131.577 169.731 132.28 169.785 133.054C169.812 133.397 169.785 133.731 169.623 134.03C169.335 134.549 168.904 134.725 168.275 134.628C167.763 134.549 167.359 134.268 166.99 133.925C166.263 133.239 165.84 132.421 165.786 131.462C165.768 131.199 165.813 130.935 165.858 130.812H165.849Z" fill="white"/>
<path d="M166.612 127.69C165.983 128.983 164.186 129.299 162.83 129.352C161.284 129.414 158.553 129.124 157.681 127.514C157.187 126.609 157.376 125.571 157.978 124.867C158.696 124.023 159.829 123.847 160.952 124.032C160.745 123.997 160.691 123.012 160.682 122.845C160.61 121.552 161.167 119.327 162.919 119.6C164.141 119.794 164.896 121.077 165.471 122.045C166.001 122.915 166.37 123.865 166.577 124.841C166.765 125.72 167.017 126.697 166.693 127.532C166.675 127.585 166.648 127.646 166.621 127.699L166.612 127.69Z" fill="white"/>
</svg>
