<svg width="38" height="40" viewBox="0 0 38 40" fill="none" xmlns="http://www.w3.org/2000/svg">
<mask id="mask0_101_223" style="mask-type:luminance" maskUnits="userSpaceOnUse" x="0" y="0" width="38" height="40">
<path d="M11.2081 18.3068C10.5424 16.0364 10.384 13.7052 10.6342 11.5028C11.0933 7.48641 12.9297 3.87494 15.5535 1.82228C16.7242 0.904779 18.0557 0.293896 19.495 0.0809059C20.8378 -0.1157 22.268 0.038776 23.7394 0.623914C26.0097 1.52503 27.7681 2.08442 29.5448 2.19208C31.3055 2.29975 33.1465 1.96505 35.6073 1.08032C36.1009 0.902439 36.6426 1.1599 36.8286 1.6561C37.6802 3.57769 38.0268 5.64907 37.8822 7.68301C37.7353 9.74036 37.0857 11.7603 35.9494 13.5484C34.8131 15.3343 33.2682 16.7643 31.4891 17.738C30.0085 18.5502 28.3626 19.0487 26.6479 19.1821L28.156 38.8264C28.195 39.367 27.7956 39.8398 27.2654 39.882L1.3694 39.8866C0.836831 39.8866 0.402974 39.4443 0.402974 38.9013C0.402974 38.7913 0.421339 38.6859 0.453476 38.5853L4.31916 24.0341C2.48732 23.0019 1.20182 21.1248 0.53382 19.0043C-0.189275 16.7012 -0.193866 14.0844 0.618755 11.9522L0.710576 11.7205C0.91947 11.2219 1.48417 10.9879 1.97542 11.2009C2.25777 11.3226 2.45289 11.5683 2.52864 11.8469C2.85002 13.0452 3.40783 14.1429 4.15159 15.0791C4.89764 16.0154 5.83881 16.7971 6.9223 17.3588C7.76017 17.7942 8.65084 18.0797 9.55758 18.2178C10.1039 18.2997 10.6548 18.3278 11.2081 18.3021M17.9294 9.93228C17.833 9.39864 18.1796 8.88606 18.703 8.79009C19.2264 8.69179 19.7291 9.04521 19.8232 9.57886C20.0918 11.0417 20.5073 12.4765 21.0605 13.8621C21.6137 15.2453 22.3024 16.5677 23.115 17.8059C23.3331 18.1359 23.3262 18.5525 23.1334 18.8708C22.144 20.4928 20.7047 21.7099 19.0542 22.4215C17.406 23.133 15.5489 23.339 13.7217 22.9364C13.4416 22.8755 13.2167 22.6976 13.0835 22.4612C12.6244 21.7357 12.2296 20.9867 11.9013 20.226C11.0267 20.3173 10.1452 20.2986 9.27752 20.1675C8.16189 19.999 7.06922 19.6479 6.0477 19.1166C4.72777 18.4308 3.57541 17.4735 2.65719 16.3196C2.39321 15.9896 2.14988 15.6432 1.92721 15.2828C1.90196 16.3243 2.05347 17.3963 2.37025 18.4027C2.94643 20.233 4.06436 21.8106 5.64369 22.5127L5.77453 22.5666C6.252 22.7327 6.52747 23.2477 6.39662 23.7509L2.63424 37.9136H26.152L24.6461 18.3091V18.2272C24.6507 17.6865 25.0846 17.2488 25.6172 17.2535C27.3732 17.2699 29.0765 16.8275 30.5778 16.006C32.0791 15.1845 33.3807 13.9814 34.3356 12.4788C35.2906 10.9785 35.8369 9.27693 35.9609 7.54258C35.9861 7.1915 35.993 6.84041 35.9838 6.48699C34.3241 6.38635 32.7999 5.48992 31.8863 4.06452C31.0369 4.17453 30.2335 4.20261 29.4323 4.15346C27.4169 4.03175 25.4955 3.42555 23.0462 2.45422C21.9007 2.00016 20.7965 1.87845 19.7681 2.02824C18.6686 2.18974 17.6402 2.66721 16.7242 3.38342C14.5091 5.11777 12.9527 8.22836 12.551 11.7251C12.202 14.7866 12.7438 18.1265 14.5136 21.0873C15.8244 21.298 17.1374 21.1201 18.3082 20.6122C19.4192 20.1324 20.4086 19.3577 21.1592 18.3372C20.4201 17.1435 19.7911 15.8937 19.2723 14.6017C18.6755 13.1084 18.2232 11.5426 17.9294 9.93228Z" fill="white"/>
</mask>
<g mask="url(#mask0_101_223)">
<mask id="mask1_101_223" style="mask-type:luminance" maskUnits="userSpaceOnUse" x="-1" y="-1" width="40" height="41">
<path d="M38.0287 -0.115234H-0.194336V39.8848H38.0287V-0.115234Z" fill="white"/>
</mask>
<g mask="url(#mask1_101_223)">
<path d="M-0.194336 39.6621L0.0191491 39.8845H-0.194336V39.6621Z" fill="#FF27D8"/>
<path d="M-0.194336 39.2314L0.427755 39.8845H0.019149L-0.194336 39.6621V39.2314Z" fill="#FF28D7"/>
<path d="M-0.194336 38.8037L0.838656 39.885H0.427755L-0.194336 39.232V38.8037Z" fill="#FF29D6"/>
<path d="M-0.194336 38.375L1.24726 39.8847H0.838656L-0.194336 38.8033V38.375Z" fill="#FF2AD5"/>
<path d="M-0.194336 37.9443L1.65587 39.8847H1.24726L-0.194336 38.375V37.9443Z" fill="#FF2BD4"/>
<path d="M-0.194336 37.5166L2.06677 39.8852H1.65587L-0.194336 37.9449V37.5166Z" fill="#FF2CD3"/>
<path d="M-0.194336 37.0879L2.47537 39.8848H2.06677L-0.194336 37.5162V37.0879Z" fill="#FF2DD2"/>
<path d="M-0.194336 36.6572L2.88398 39.8848H2.47537L-0.194336 37.0879V36.6572Z" fill="#FF2ED1"/>
<path d="M-0.194336 36.2285L3.29488 39.8845H2.88398L-0.194336 36.6568V36.2285Z" fill="#FF2FD0"/>
<path d="M-0.194336 35.8008L3.70349 39.885H3.29488L-0.194336 36.2291V35.8008Z" fill="#FF30CF"/>
<path d="M-0.194336 35.3721L4.11439 39.8847H3.70349L-0.194336 35.8004V35.3721Z" fill="#FF31CE"/>
<path d="M-0.194336 34.9414L4.52299 39.8846H4.11439L-0.194336 35.3721V34.9414Z" fill="#FF32CD"/>
<path d="M-0.194336 34.5137L4.9316 39.8852H4.52299L-0.194336 34.942V34.5137Z" fill="#FF33CC"/>
<path d="M-0.194336 34.085L5.3425 39.8848H4.9316L-0.194336 34.5133V34.085Z" fill="#FF34CB"/>
<path d="M-0.194336 33.6543L5.75111 39.8848H5.3425L-0.194336 34.085V33.6543Z" fill="#FF35CA"/>
<path d="M-0.194336 33.2256L6.15971 39.8845H5.75111L-0.194336 33.6539V33.2256Z" fill="#FF36C9"/>
<path d="M-0.194336 32.7979L6.57061 39.885H6.15971L-0.194336 33.2262V32.7979Z" fill="#FF37C8"/>
<path d="M-0.194336 32.3672L6.97922 39.885H6.57061L-0.194336 32.7978V32.3672Z" fill="#FF38C7"/>
<path d="M-0.194336 31.9385L7.38782 39.8846H6.97922L-0.194336 32.3668V31.9385Z" fill="#FF39C6"/>
<path d="M-0.194336 31.5107L7.79873 39.8852H7.38782L-0.194336 31.9391V31.5107Z" fill="#FF3AC5"/>
<path d="M-0.194336 31.082L8.20733 39.8848H7.79873L-0.194336 31.5104V31.082Z" fill="#FF3BC4"/>
<path d="M-0.194336 30.6514L8.61594 39.8848H8.20733L-0.194336 31.082V30.6514Z" fill="#FF3CC3"/>
<path d="M-0.194336 30.2227L9.02684 39.8844H8.61594L-0.194336 30.651V30.2227Z" fill="#FF3DC2"/>
<path d="M-0.194336 29.7949L9.43545 39.885H9.02684L-0.194336 30.2232V29.7949Z" fill="#FF3EC1"/>
<path d="M-0.194336 29.3643L9.84635 39.885H9.43545L-0.194336 29.7949V29.3643Z" fill="#FF3FC0"/>
<path d="M-0.194336 28.9355L10.255 39.8846H9.84635L-0.194336 29.3639V28.9355Z" fill="#FF40BF"/>
<path d="M-0.194336 28.5078L10.6636 39.8852H10.255L-0.194336 28.9361V28.5078Z" fill="#FF41BE"/>
<path d="M-0.194336 28.0771L11.0745 39.8852H10.6636L-0.194336 28.5078V28.0771Z" fill="#FF42BD"/>
<path d="M-0.194336 27.6484L11.4831 39.8848H11.0745L-0.194336 28.0768V27.6484Z" fill="#FF43BC"/>
<path d="M-0.194336 27.2197L11.8917 39.8844H11.4831L-0.194336 27.648V27.2197Z" fill="#FF44BB"/>
<path d="M-0.194336 26.7891L12.3026 39.8844H11.8917L-0.194336 27.2197V26.7891Z" fill="#FF45BA"/>
<path d="M-0.194336 26.3613L12.7112 39.885H12.3026L-0.194336 26.7896V26.3613Z" fill="#FF46B9"/>
<path d="M-0.194336 25.9326L13.1198 39.8846H12.7112L-0.194336 26.3609V25.9326Z" fill="#FF47B8"/>
<path d="M-0.194336 25.5049L13.5307 39.8852H13.1198L-0.194336 25.9332V25.5049Z" fill="#FF48B7"/>
<path d="M-0.194336 25.0742L13.9393 39.8852H13.5307L-0.194336 25.5049V25.0742Z" fill="#FF49B6"/>
<path d="M-0.194336 24.6455L14.3479 39.8848H13.9393L-0.194336 25.0738V24.6455Z" fill="#FF4AB5"/>
<path d="M-0.194336 24.2168L14.7588 39.8844H14.3479L-0.194336 24.6451V24.2168Z" fill="#FF4BB4"/>
<path d="M-0.194336 23.7861L15.1674 39.8844H14.7588L-0.194336 24.2168V23.7861Z" fill="#FF4CB3"/>
<path d="M-0.194336 23.3584L15.5783 39.885H15.1674L-0.194336 23.7867V23.3584Z" fill="#FF4DB2"/>
<path d="M-0.194336 22.9297L15.9869 39.8846H15.5783L-0.194336 23.358V22.9297Z" fill="#FF4EB1"/>
<path d="M-0.194336 22.499L16.3955 39.8846H15.9869L-0.194336 22.9297V22.499Z" fill="#FF4FB0"/>
<path d="M-0.194336 22.0713L16.8064 39.8852H16.3955L-0.194336 22.4996V22.0713Z" fill="#FF50AF"/>
<path d="M-0.194336 21.6426L17.215 39.8848H16.8064L-0.194336 22.0709V21.6426Z" fill="#FF51AE"/>
<path d="M-0.194336 21.2139L17.6236 39.8844H17.215L-0.194336 21.6422V21.2139Z" fill="#FF52AD"/>
<path d="M-0.194336 20.7832L18.0345 39.8844H17.6236L-0.194336 21.2139V20.7832Z" fill="#FF53AC"/>
<path d="M-0.194336 20.3555L18.4431 39.885H18.0345L-0.194336 20.7838V20.3555Z" fill="#FF54AB"/>
<path d="M-0.194336 19.9268L18.8517 39.8846H18.4431L-0.194336 20.3551V19.9268Z" fill="#FF55AA"/>
<path d="M-0.194336 19.4961L19.2626 39.8846H18.8517L-0.194336 19.9268V19.4961Z" fill="#FF56A9"/>
<path d="M-0.194336 19.0684L19.6712 39.8852H19.2626L-0.194336 19.4967V19.0684Z" fill="#FF57A8"/>
<path d="M-0.194336 18.6396L20.0799 39.8848H19.6712L-0.194336 19.068V18.6396Z" fill="#FF58A7"/>
<path d="M-0.194336 18.209L20.4908 39.8848H20.0799L-0.194336 18.6396V18.209Z" fill="#FF59A6"/>
<path d="M-0.194336 17.7803L20.8994 39.8844H20.4908L-0.194336 18.2086V17.7803Z" fill="#FF5AA5"/>
<path d="M-0.194336 17.3525L21.308 39.885H20.8994L-0.194336 17.7809V17.3525Z" fill="#FF5BA4"/>
<path d="M-0.194336 16.9219L21.7189 39.885H21.308L-0.194336 17.3525V16.9219Z" fill="#FF5CA3"/>
<path d="M-0.194336 16.4932L22.1275 39.8846H21.7189L-0.194336 16.9215V16.4932Z" fill="#FF5DA2"/>
<path d="M-0.194336 16.0654L22.5384 39.8852H22.1275L-0.194336 16.4938V16.0654Z" fill="#FF5EA1"/>
<path d="M-0.194336 15.6367L22.947 39.8848H22.5384L-0.194336 16.065V15.6367Z" fill="#FF5FA0"/>
<path d="M-0.194336 15.2061L23.3556 39.8848H22.947L-0.194336 15.6367V15.2061Z" fill="#FF609F"/>
<path d="M-0.194336 14.7773L23.7665 39.8844H23.3556L-0.194336 15.2057V14.7773Z" fill="#FF619E"/>
<path d="M-0.194336 14.3496L24.1751 39.885H23.7665L-0.194336 14.7779V14.3496Z" fill="#FF629D"/>
<path d="M-0.194336 13.9189L24.5837 39.885H24.1751L-0.194336 14.3496V13.9189Z" fill="#FF639C"/>
<path d="M-0.194336 13.4902L24.9946 39.8846H24.5837L-0.194336 13.9186V13.4902Z" fill="#FF649B"/>
<path d="M-0.194336 13.0625L25.4032 39.8852H24.9946L-0.194336 13.4908V13.0625Z" fill="#FF659A"/>
<path d="M-0.194336 12.6318L25.8118 39.8852H25.4032L-0.194336 13.0625V12.6318Z" fill="#FF6699"/>
<path d="M-0.194336 12.2031L26.2227 39.8848H25.8118L-0.194336 12.6314V12.2031Z" fill="#FF6798"/>
<path d="M-0.194336 11.7744L26.6313 39.8844H26.2227L-0.194336 12.2027V11.7744Z" fill="#FF6897"/>
<path d="M-0.194336 11.3467L27.0399 39.885H26.6313L-0.194336 11.775V11.3467Z" fill="#FF6996"/>
<path d="M-0.194336 10.916L27.4508 39.885H27.0399L-0.194336 11.3467V10.916Z" fill="#FF6A95"/>
<path d="M-0.194336 10.4873L27.8594 39.8846H27.4508L-0.194336 10.9156V10.4873Z" fill="#FF6B94"/>
<path d="M-0.194336 10.0596L28.2703 39.8852H27.8594L-0.194336 10.4879V10.0596Z" fill="#FF6C93"/>
<path d="M-0.194336 9.62891L28.6789 39.8852H28.2703L-0.194336 10.0596V9.62891Z" fill="#FF6E91"/>
<path d="M-0.194336 9.2002L29.0875 39.8848H28.6789L-0.194336 9.62852V9.2002Z" fill="#FF6F90"/>
<path d="M-0.194336 8.77148L29.4984 39.8844H29.0875L-0.194336 9.1998V8.77148Z" fill="#FF708F"/>
<path d="M-0.194336 8.34082L29.9071 39.8844H29.4984L-0.194336 8.77148V8.34082Z" fill="#FF718E"/>
<path d="M-0.194336 7.91309L30.3157 39.885H29.907L-0.194336 8.34141V7.91309Z" fill="#FF728D"/>
<path d="M-0.194336 7.48438L30.7266 39.8846H30.3157L-0.194336 7.9127V7.48438Z" fill="#FF738C"/>
<path d="M-0.194336 7.05664L31.1352 39.8852H30.7266L-0.194336 7.48496V7.05664Z" fill="#FF748B"/>
<path d="M-0.194336 6.62598L31.5438 39.8852H31.1352L-0.194336 7.05664V6.62598Z" fill="#FF758A"/>
<path d="M-0.194336 6.19727L31.9547 39.8848H31.5438L-0.194336 6.62559V6.19727Z" fill="#FF7689"/>
<path d="M-0.194336 5.76855L32.3633 39.8844H31.9547L-0.194336 6.19688V5.76855Z" fill="#FF7788"/>
<path d="M-0.194336 5.33789L32.7719 39.8844H32.3633L-0.194336 5.76855V5.33789Z" fill="#FF7887"/>
<path d="M-0.194336 4.91016L33.1828 39.885H32.7719L-0.194336 5.33848V4.91016Z" fill="#FF7986"/>
<path d="M-0.194336 4.48145L33.5914 39.8846H33.1828L-0.194336 4.90977V4.48145Z" fill="#FF7A85"/>
<path d="M-0.194336 4.05078L34 39.8846H33.5914L-0.194336 4.48144V4.05078Z" fill="#FF7B84"/>
<path d="M-0.194336 3.62305L34.4109 39.8852H34L-0.194336 4.05137V3.62305Z" fill="#FF7C83"/>
<path d="M-0.194336 3.19434L34.8195 39.8848H34.4109L-0.194336 3.62266V3.19434Z" fill="#FF7D82"/>
<path d="M-0.194336 2.76367L35.2304 39.8848H34.8195L-0.194336 3.19433V2.76367Z" fill="#FF7E81"/>
<path d="M-0.194336 2.33496L35.639 39.8844H35.2304L-0.194336 2.76328V2.33496Z" fill="#FF7F80"/>
<path d="M-0.194336 1.90723L36.0476 39.885H35.639L-0.194336 2.33555V1.90723Z" fill="#FF807F"/>
<path d="M-0.194336 1.47852L36.4585 39.8846H36.0476L-0.194336 1.90684V1.47852Z" fill="#FF817E"/>
<path d="M-0.194336 1.04785L36.8671 39.8846H36.4585L-0.194336 1.47851V1.04785Z" fill="#FF827D"/>
<path d="M-0.194336 0.620117L37.2757 39.8852H36.8671L-0.194336 1.04844V0.620117Z" fill="#FF837C"/>
<path d="M-0.194336 0.191406L37.6866 39.8848H37.2757L-0.194336 0.619727V0.191406Z" fill="#FF847B"/>
<path d="M-0.0772635 -0.115234L38.0287 39.8146V39.8848H37.6866L-0.194336 0.191378V-0.115234H-0.0772635Z" fill="#FF857A"/>
<path d="M0.333753 -0.115234L38.0288 39.3862V39.8146L-0.0771484 -0.115234H0.333753Z" fill="#FF8679"/>
<path d="M0.74259 -0.115234L38.029 38.9579V39.3862L0.333984 -0.115234H0.74259Z" fill="#FF8778"/>
<path d="M1.15079 -0.115234L38.0286 38.5272V38.9579L0.742188 -0.115234H1.15079Z" fill="#FF8877"/>
<path d="M1.56129 -0.115234L38.0282 38.0989V38.5273L1.15039 -0.115234H1.56129Z" fill="#FF8976"/>
<path d="M1.97013 -0.115234L38.0284 37.6706V38.0989L1.56152 -0.115234H1.97013Z" fill="#FF8A75"/>
<path d="M2.37931 -0.115234L38.029 37.2399V37.6706L1.9707 -0.115234H2.37931Z" fill="#FF8B74"/>
<path d="M2.78981 -0.115234L38.0286 36.8116V37.2399L2.37891 -0.115234H2.78981Z" fill="#FF8C73"/>
<path d="M3.19864 -0.115234L38.0288 36.3833V36.8116L2.79004 -0.115234H3.19864Z" fill="#FF8D72"/>
<path d="M3.60685 -0.115234L38.0284 35.9526V36.3833L3.19824 -0.115234H3.60685Z" fill="#FF8E71"/>
<path d="M4.01832 -0.115234L38.029 35.5243V35.9526L3.60742 -0.115234H4.01832Z" fill="#FF8F70"/>
<path d="M4.42618 -0.115234L38.0283 35.096V35.5243L4.01758 -0.115234H4.42618Z" fill="#FF906F"/>
<path d="M4.83536 -0.115234L38.0288 34.6653V35.096L4.42676 -0.115234H4.83536Z" fill="#FF916E"/>
<path d="M5.24586 -0.115234L38.0284 34.237V34.6653L4.83496 -0.115234H5.24586Z" fill="#FF926D"/>
<path d="M5.6547 -0.115234L38.0287 33.8087V34.237L5.24609 -0.115234H5.6547Z" fill="#FF936C"/>
<path d="M6.0652 -0.115234L38.0283 33.3804V33.8087L5.6543 -0.115234H6.0652Z" fill="#FF946B"/>
<path d="M6.47404 -0.115234L38.0285 32.9497V33.3804L6.06543 -0.115234H6.47404Z" fill="#FF956A"/>
<path d="M6.88322 -0.115234L38.0291 32.5214V32.9497L6.47461 -0.115234H6.88322Z" fill="#FF9669"/>
<path d="M7.29371 -0.115234L38.0287 32.0931V32.5214L6.88281 -0.115234H7.29371Z" fill="#FF9768"/>
<path d="M7.70255 -0.115234L38.0289 31.6624V32.0931L7.29395 -0.115234H7.70255Z" fill="#FF9867"/>
<path d="M8.11075 -0.115234L38.0285 31.2341V31.6624L7.70215 -0.115234H8.11075Z" fill="#FF9966"/>
<path d="M8.52223 -0.115234L38.0291 30.8058V31.2341L8.11133 -0.115234H8.52223Z" fill="#FF9A65"/>
<path d="M8.93009 -0.115234L38.0283 30.3751V30.8058L8.52148 -0.115234H8.93009Z" fill="#FF9B64"/>
<path d="M9.33927 -0.115234L38.0289 29.9468V30.3751L8.93066 -0.115234H9.33927Z" fill="#FF9C63"/>
<path d="M9.74977 -0.115234L38.0285 29.5185V29.9468L9.33887 -0.115234H9.74977Z" fill="#FF9D62"/>
<path d="M10.1586 -0.115234L38.0287 29.0901V29.5185L9.75 -0.115234H10.1586Z" fill="#FF9E61"/>
<path d="M10.5668 -0.115234L38.0283 28.6595V29.0902L10.1582 -0.115234H10.5668Z" fill="#FF9F60"/>
<path d="M10.9783 -0.115234L38.0289 28.2312V28.6595L10.5674 -0.115234H10.9783Z" fill="#FFA05F"/>
<path d="M11.3871 -0.115234L38.0291 27.8028V28.2312L10.9785 -0.115234H11.3871Z" fill="#FFA15E"/>
<path d="M11.7976 -0.115234L38.0287 27.3722V27.8028L11.3867 -0.115234H11.7976Z" fill="#FFA25D"/>
<path d="M12.2065 -0.115234L38.029 26.9439V27.3722L11.7979 -0.115234H12.2065Z" fill="#FFA35C"/>
<path d="M12.6147 -0.115234L38.0286 26.5155V26.9439L12.2061 -0.115234H12.6147Z" fill="#FFA45B"/>
<path d="M13.0261 -0.115234L38.0291 26.0849V26.5155L12.6152 -0.115234H13.0261Z" fill="#FFA55A"/>
<path d="M13.434 -0.115234L38.0284 25.6566V26.0849L13.0254 -0.115234H13.434Z" fill="#FFA659"/>
<path d="M13.8432 -0.115234L38.029 25.2282V25.6566L13.4346 -0.115234H13.8432Z" fill="#FFA758"/>
<path d="M14.2537 -0.115234L38.0286 24.7976V25.2282L13.8428 -0.115234H14.2537Z" fill="#FFA857"/>
<path d="M14.6625 -0.115234L38.0288 24.3693V24.7976L14.2539 -0.115234H14.6625Z" fill="#FFA956"/>
<path d="M15.0707 -0.115234L38.0284 23.9409V24.3693L14.6621 -0.115234H15.0707Z" fill="#FFAA55"/>
<path d="M15.4822 -0.115234L38.029 23.5126V23.9409L15.0713 -0.115234H15.4822Z" fill="#FFAB54"/>
<path d="M15.8901 -0.115234L38.0282 23.082V23.5126L15.4814 -0.115234H15.8901Z" fill="#FFAC53"/>
<path d="M16.2992 -0.115234L38.0288 22.6536V23.082L15.8906 -0.115234H16.2992Z" fill="#FFAD52"/>
<path d="M16.7097 -0.115234L38.0284 22.2253V22.6536L16.2988 -0.115234H16.7097Z" fill="#FFAE51"/>
<path d="M17.1186 -0.115234L38.0286 21.7947V22.2253L16.71 -0.115234H17.1186Z" fill="#FFAF50"/>
<path d="M17.5291 -0.115234L38.0282 21.3663V21.7947L17.1182 -0.115234H17.5291Z" fill="#FFB04F"/>
<path d="M17.9379 -0.115234L38.0284 20.938V21.3663L17.5293 -0.115234H17.9379Z" fill="#FFB14E"/>
<path d="M18.3471 -0.115234L38.029 20.5074V20.938L17.9385 -0.115234H18.3471Z" fill="#FFB24D"/>
<path d="M18.7576 -0.115234L38.0286 20.079V20.5074L18.3467 -0.115234H18.7576Z" fill="#FFB34C"/>
<path d="M19.1664 -0.115234L38.0289 19.6507V20.079L18.7578 -0.115234H19.1664Z" fill="#FFB44B"/>
<path d="M19.5746 -0.115234L38.0284 19.2224V19.6507L19.166 -0.115234H19.5746Z" fill="#FFB54A"/>
<path d="M19.9861 -0.115234L38.029 18.7917V19.2224L19.5752 -0.115234H19.9861Z" fill="#FFB649"/>
<path d="M20.394 -0.115234L38.0283 18.3634V18.7917L19.9854 -0.115234H20.394Z" fill="#FFB748"/>
<path d="M20.8031 -0.115234L38.0289 17.9351V18.3634L20.3945 -0.115234H20.8031Z" fill="#FFB847"/>
<path d="M21.2136 -0.115234L38.0284 17.5044V17.9351L20.8027 -0.115234H21.2136Z" fill="#FFB946"/>
<path d="M21.6225 -0.115234L38.0287 17.0761V17.5044L21.2139 -0.115234H21.6225Z" fill="#FFBA45"/>
<path d="M22.0307 -0.115234L38.0283 16.6478V17.0761L21.6221 -0.115234H22.0307Z" fill="#FFBB44"/>
<path d="M22.4422 -0.115234L38.0289 16.2171V16.6478L22.0312 -0.115234H22.4422Z" fill="#FFBC43"/>
<path d="M22.851 -0.115234L38.0291 15.7888V16.2171L22.4424 -0.115234H22.851Z" fill="#FFBD42"/>
<path d="M23.2592 -0.115234L38.0287 15.3605V15.7888L22.8506 -0.115234H23.2592Z" fill="#FFBE41"/>
<path d="M23.6697 -0.115234L38.0283 14.9322V15.3605L23.2588 -0.115234H23.6697Z" fill="#FFBF40"/>
<path d="M24.0785 -0.115234L38.0285 14.5015V14.9322L23.6699 -0.115234H24.0785Z" fill="#FFC03F"/>
<path d="M24.49 -0.115234L38.0291 14.0732V14.5015L24.0791 -0.115234H24.49Z" fill="#FFC13E"/>
<path d="M24.8979 -0.115234L38.0283 13.6449V14.0732L24.4893 -0.115234H24.8979Z" fill="#FFC23D"/>
<path d="M25.307 -0.115234L38.0289 13.2142V13.6449L24.8984 -0.115234H25.307Z" fill="#FFC33C"/>
<path d="M25.7175 -0.115234L38.0285 12.7859V13.2142L25.3066 -0.115234H25.7175Z" fill="#FFC43B"/>
<path d="M26.1264 -0.115234L38.0287 12.3576V12.7859L25.7178 -0.115234H26.1264Z" fill="#FFC53A"/>
<path d="M26.5346 -0.115234L38.0283 11.9269V12.3576L26.126 -0.115234H26.5346Z" fill="#FFC639"/>
<path d="M26.9461 -0.115234L38.0289 11.4986V11.9269L26.5352 -0.115234H26.9461Z" fill="#FFC738"/>
<path d="M27.3549 -0.115234L38.0291 11.0703V11.4986L26.9463 -0.115234H27.3549Z" fill="#FFC837"/>
<path d="M27.7631 -0.115234L38.0287 10.6396V11.0703L27.3545 -0.115234H27.7631Z" fill="#FFC936"/>
<path d="M28.1736 -0.115234L38.0283 10.2113V10.6396L27.7627 -0.115234H28.1736Z" fill="#FFCA35"/>
<path d="M28.5824 -0.115234L38.0286 9.78295V10.2113L28.1738 -0.115234H28.5824Z" fill="#FFCB34"/>
<path d="M28.9916 -0.115234L38.0291 9.35463V9.78295L28.583 -0.115234H28.9916Z" fill="#FFCC33"/>
<path d="M29.4021 -0.115234L38.0287 8.92397V9.35463L28.9912 -0.115234H29.4021Z" fill="#FFCD32"/>
<path d="M29.811 -0.115234L38.029 8.49565V8.92397L29.4023 -0.115234H29.811Z" fill="#FFCE31"/>
<path d="M30.2214 -0.115234L38.0286 8.06733V8.49565L29.8105 -0.115234H30.2214Z" fill="#FFCF30"/>
<path d="M30.6303 -0.115234L38.0288 7.63667V8.06733L30.2217 -0.115234H30.6303Z" fill="#FFD02F"/>
<path d="M31.0385 -0.115234L38.0284 7.20835V7.63667L30.6299 -0.115234H31.0385Z" fill="#FFD12E"/>
<path d="M31.45 -0.115234L38.029 6.78003V7.20835L31.0391 -0.115234H31.45Z" fill="#FFD22D"/>
<path d="M31.8578 -0.115234L38.0282 6.34937V6.78003L31.4492 -0.115234H31.8578Z" fill="#FFD32C"/>
<path d="M32.267 -0.115234L38.0288 5.92104V6.34937L31.8584 -0.115234H32.267Z" fill="#FFD42B"/>
<path d="M32.6775 -0.115234L38.0284 5.49272V5.92104L32.2666 -0.115234H32.6775Z" fill="#FFD52A"/>
<path d="M33.0863 -0.115234L38.0286 5.0644V5.49272L32.6777 -0.115234H33.0863Z" fill="#FFD629"/>
<path d="M33.4945 -0.115234L38.0282 4.63374V5.0644L33.0859 -0.115234H33.4945Z" fill="#FFD728"/>
<path d="M33.906 -0.115234L38.0288 4.20542V4.63374L33.4951 -0.115234H33.906Z" fill="#FFD827"/>
<path d="M34.3149 -0.115234L38.029 3.7771V4.20542L33.9062 -0.115234H34.3149Z" fill="#FFD926"/>
<path d="M34.7231 -0.115234L38.0286 3.34644V3.7771L34.3145 -0.115234H34.7231Z" fill="#FFDA25"/>
<path d="M35.1336 -0.115234L38.0282 2.91812V3.34644L34.7227 -0.115234H35.1336Z" fill="#FFDB24"/>
<path d="M35.5424 -0.115234L38.0285 2.4898V2.91812L35.1338 -0.115234H35.5424Z" fill="#FFDC23"/>
<path d="M35.9516 -0.115234L38.029 2.05914V2.4898L35.543 -0.115234H35.9516Z" fill="#FFDD22"/>
<path d="M36.3621 -0.115234L38.0286 1.63082V2.05914L35.9512 -0.115234H36.3621Z" fill="#FFDE21"/>
<path d="M36.7709 -0.115234L38.0289 1.2025V1.63082L36.3623 -0.115234H36.7709Z" fill="#FFDF20"/>
<path d="M37.1814 -0.115234L38.0285 0.771834V1.2025L36.7705 -0.115234H37.1814Z" fill="#FFE01F"/>
<path d="M37.5902 -0.115234L38.0287 0.343513V0.771834L37.1816 -0.115234H37.5902Z" fill="#FFE11E"/>
<path d="M37.9984 -0.115234L38.0283 -0.0848072V0.343513L37.5898 -0.115234H37.9984Z" fill="#FFE21D"/>
</g>
</g>
</svg>
