<svg width="180" height="40" viewBox="0 0 180 40" fill="none" xmlns="http://www.w3.org/2000/svg">
<mask id="mask0_51_3731" style="mask-type:luminance" maskUnits="userSpaceOnUse" x="0" y="0" width="39" height="41">
<path d="M11.4024 18.422C10.7367 16.1517 10.5783 13.8205 10.8285 11.618C11.2876 7.60164 13.1241 3.99017 15.7479 1.93751C16.9186 1.02001 18.25 0.40913 19.6893 0.19614C21.0322 -0.000465897 22.4623 0.15401 23.9337 0.739148C26.204 1.64026 27.9624 2.19965 29.7392 2.30732C31.4998 2.41498 33.3409 2.08028 35.8017 1.19556C36.2952 1.01767 36.837 1.27513 37.0229 1.77133C37.8745 3.69292 38.2212 5.76431 38.0766 7.79825C37.9296 9.85559 37.28 11.8755 36.1437 13.6637C35.0074 15.4495 33.4625 16.8796 31.6835 17.8532C30.2029 18.6654 28.557 19.164 26.8422 19.2974L28.3504 38.9416C28.3894 39.4823 27.99 39.9551 27.4597 39.9972L1.56373 40.0019C1.03117 40.0019 0.59731 39.5595 0.59731 39.0165C0.59731 38.9065 0.615674 38.8012 0.647812 38.7005L4.5135 24.1493C2.68166 23.1171 1.39616 21.24 0.728156 19.1195C0.00506139 16.8164 0.000470317 14.1997 0.813091 12.0674L0.904912 11.8357C1.11381 11.3372 1.67851 11.1031 2.16975 11.3161C2.4521 11.4378 2.64723 11.6836 2.72298 11.9621C3.04435 13.1604 3.60217 14.2582 4.34592 15.1944C5.09197 16.1306 6.03314 16.9123 7.11664 17.4741C7.95451 17.9094 8.84518 18.195 9.75191 18.3331C10.2983 18.415 10.8492 18.4431 11.4024 18.4173M18.1237 10.0475C18.0273 9.51387 18.374 9.00129 18.8973 8.90533C19.4207 8.80702 19.9234 9.16045 20.0176 9.69409C20.2861 11.1569 20.7016 12.5917 21.2549 13.9773C21.8081 15.3606 22.4967 16.683 23.3094 17.9211C23.5274 18.2511 23.5205 18.6678 23.3277 18.9861C22.3383 20.6081 20.899 21.8252 19.2486 22.5367C17.6004 23.2482 15.7433 23.4542 13.916 23.0516C13.636 22.9908 13.411 22.8129 13.2779 22.5765C12.8188 21.8509 12.4239 21.1019 12.0957 20.3413C11.2211 20.4325 10.3396 20.4138 9.47186 20.2827C8.35623 20.1142 7.26355 19.7631 6.24204 19.2318C4.9221 18.5461 3.76974 17.5888 2.85153 16.4349C2.58754 16.1049 2.34421 15.7585 2.12155 15.398C2.0963 16.4396 2.2478 17.5115 2.56459 18.518C3.14077 20.3483 4.25869 21.9258 5.83802 22.628L5.96887 22.6818C6.44634 22.848 6.7218 23.3629 6.59096 23.8661L2.82857 38.0288H26.3464L24.8405 18.4243V18.3424C24.8451 17.8018 25.2789 17.3641 25.8115 17.3688C27.5676 17.3851 29.2709 16.9428 30.7722 16.1212C32.2734 15.2997 33.575 14.0967 34.5299 12.594C35.4849 11.0937 36.0312 9.39216 36.1552 7.65781C36.1804 7.30673 36.1873 6.95565 36.1781 6.60223C34.5185 6.50158 32.9942 5.60515 32.0806 4.17976C31.2313 4.28976 30.4278 4.31785 29.6267 4.2687C27.6112 4.14699 25.6898 3.54079 23.2405 2.56946C22.095 2.11539 20.9909 1.99368 19.9625 2.14348C18.8629 2.30498 17.8345 2.78245 16.9186 3.49866C14.7034 5.233 13.147 8.3436 12.7453 11.8404C12.3964 14.9018 12.9381 18.2418 14.708 21.2026C16.0187 21.4132 17.3318 21.2353 18.5025 20.7274C19.6135 20.2476 20.6029 19.4729 21.3536 18.4524C20.6144 17.2587 19.9854 16.0089 19.4666 14.7169C18.8698 13.2236 18.4176 11.6578 18.1237 10.0475Z" fill="white"/>
</mask>
<g mask="url(#mask0_51_3731)">
<mask id="mask1_51_3731" style="mask-type:luminance" maskUnits="userSpaceOnUse" x="0" y="0" width="39" height="40">
<path d="M38.223 0H0V40H38.223V0Z" fill="white"/>
</mask>
<g mask="url(#mask1_51_3731)">
<path d="M0 39.7773L0.213485 39.9997H0V39.7773Z" fill="#FF27D8"/>
<path d="M0 39.3467L0.622091 39.9997H0.213485L0 39.7773V39.3467Z" fill="#FF28D7"/>
<path d="M0 38.9189L1.03299 40.0003H0.622091L0 39.3473V38.9189Z" fill="#FF29D6"/>
<path d="M0 38.4902L1.4416 39.9999H1.03299L0 38.9186V38.4902Z" fill="#FF2AD5"/>
<path d="M0 38.0596L1.8502 39.9999H1.4416L0 38.4902V38.0596Z" fill="#FF2BD4"/>
<path d="M0 37.6318L2.2611 40.0005H1.8502L0 38.0602V37.6318Z" fill="#FF2CD3"/>
<path d="M0 37.2031L2.66971 40.0001H2.2611L0 37.6314V37.2031Z" fill="#FF2DD2"/>
<path d="M0 36.7725L3.07832 40.0001H2.66971L0 37.2031V36.7725Z" fill="#FF2ED1"/>
<path d="M0 36.3438L3.48922 39.9997H3.07832L0 36.7721V36.3438Z" fill="#FF2FD0"/>
<path d="M0 35.916L3.89782 40.0003H3.48922L0 36.3443V35.916Z" fill="#FF30CF"/>
<path d="M0 35.4873L4.30872 39.9999H3.89782L0 35.9156V35.4873Z" fill="#FF31CE"/>
<path d="M0 35.0566L4.71733 39.9999H4.30872L0 35.4873V35.0566Z" fill="#FF32CD"/>
<path d="M0 34.6289L5.12594 40.0005H4.71733L0 35.0572V34.6289Z" fill="#FF33CC"/>
<path d="M0 34.2002L5.53684 40.0001H5.12594L0 34.6285V34.2002Z" fill="#FF34CB"/>
<path d="M0 33.7695L5.94544 40.0001H5.53684L0 34.2002V33.7695Z" fill="#FF35CA"/>
<path d="M0 33.3408L6.35405 39.9997H5.94544L0 33.7691V33.3408Z" fill="#FF36C9"/>
<path d="M0 32.9131L6.76495 40.0003H6.35405L0 33.3414V32.9131Z" fill="#FF37C8"/>
<path d="M0 32.4824L7.17356 40.0003H6.76495L0 32.9131V32.4824Z" fill="#FF38C7"/>
<path d="M0 32.0537L7.58216 39.9999H7.17356L0 32.482V32.0537Z" fill="#FF39C6"/>
<path d="M0 31.626L7.99306 40.0005H7.58216L0 32.0543V31.626Z" fill="#FF3AC5"/>
<path d="M0 31.1973L8.40167 40.0001H7.99306L0 31.6256V31.1973Z" fill="#FF3BC4"/>
<path d="M0 30.7666L8.81027 40.0001H8.40167L0 31.1973V30.7666Z" fill="#FF3CC3"/>
<path d="M0 30.3379L9.22117 39.9997H8.81027L0 30.7662V30.3379Z" fill="#FF3DC2"/>
<path d="M0 29.9102L9.62978 40.0003H9.22118L0 30.3385V29.9102Z" fill="#FF3EC1"/>
<path d="M0 29.4795L10.0407 40.0003H9.62978L0 29.9102V29.4795Z" fill="#FF3FC0"/>
<path d="M0 29.0508L10.4493 39.9999H10.0407L0 29.4791V29.0508Z" fill="#FF40BF"/>
<path d="M0 28.623L10.8579 40.0005H10.4493L0 29.0514V28.623Z" fill="#FF41BE"/>
<path d="M0 28.1924L11.2688 40.0005H10.8579L0 28.623V28.1924Z" fill="#FF42BD"/>
<path d="M0 27.7637L11.6774 40.0001H11.2688L0 28.192V27.7637Z" fill="#FF43BC"/>
<path d="M0 27.335L12.086 39.9997H11.6774L0 27.7633V27.335Z" fill="#FF44BB"/>
<path d="M0 26.9043L12.4969 39.9997H12.086L0 27.335V26.9043Z" fill="#FF45BA"/>
<path d="M0 26.4766L12.9055 40.0003H12.4969L0 26.9049V26.4766Z" fill="#FF46B9"/>
<path d="M0 26.0479L13.3141 39.9999H12.9055L0 26.4762V26.0479Z" fill="#FF47B8"/>
<path d="M0 25.6201L13.725 40.0005H13.3141L0 26.0484V25.6201Z" fill="#FF48B7"/>
<path d="M0 25.1895L14.1336 40.0005H13.725L0 25.6201V25.1895Z" fill="#FF49B6"/>
<path d="M0 24.7607L14.5422 40.0001H14.1336L0 25.1891V24.7607Z" fill="#FF4AB5"/>
<path d="M0 24.332L14.9531 39.9997H14.5422L0 24.7604V24.332Z" fill="#FF4BB4"/>
<path d="M0 23.9014L15.3617 39.9997H14.9531L0 24.332V23.9014Z" fill="#FF4CB3"/>
<path d="M0 23.4736L15.7726 40.0003H15.3617L0 23.902V23.4736Z" fill="#FF4DB2"/>
<path d="M0 23.0449L16.1812 39.9999H15.7726L0 23.4732V23.0449Z" fill="#FF4EB1"/>
<path d="M0 22.6143L16.5899 39.9999H16.1812L0 23.0449V22.6143Z" fill="#FF4FB0"/>
<path d="M0 22.1865L17.0007 40.0004H16.5898L0 22.6148V22.1865Z" fill="#FF50AF"/>
<path d="M0 21.7578L17.4094 40.0001H17.0008L0 22.1861V21.7578Z" fill="#FF51AE"/>
<path d="M0 21.3291L17.818 39.9997H17.4094L0 21.7574V21.3291Z" fill="#FF52AD"/>
<path d="M0 20.8984L18.2289 39.9997H17.818L0 21.3291V20.8984Z" fill="#FF53AC"/>
<path d="M0 20.4707L18.6375 40.0003H18.2289L0 20.899V20.4707Z" fill="#FF54AB"/>
<path d="M0 20.042L19.0461 39.9999H18.6375L0 20.4703V20.042Z" fill="#FF55AA"/>
<path d="M0 19.6113L19.457 39.9999H19.0461L0 20.042V19.6113Z" fill="#FF56A9"/>
<path d="M0 19.1836L19.8656 40.0004H19.457L0 19.6119V19.1836Z" fill="#FF57A8"/>
<path d="M0 18.7549L20.2742 40.0001H19.8656L0 19.1832V18.7549Z" fill="#FF58A7"/>
<path d="M0 18.3242L20.6851 40.0001H20.2742L0 18.7549V18.3242Z" fill="#FF59A6"/>
<path d="M0 17.8955L21.0937 39.9997H20.6851L0 18.3238V17.8955Z" fill="#FF5AA5"/>
<path d="M0 17.4678L21.5023 40.0002H21.0937L0 17.8961V17.4678Z" fill="#FF5BA4"/>
<path d="M0 17.0371L21.9132 40.0002H21.5023L0 17.4678V17.0371Z" fill="#FF5CA3"/>
<path d="M0 16.6084L22.3218 39.9999H21.9132L0 17.0367V16.6084Z" fill="#FF5DA2"/>
<path d="M0 16.1807L22.7327 40.0004H22.3218L0 16.609V16.1807Z" fill="#FF5EA1"/>
<path d="M0 15.752L23.1413 40.0001H22.7327L0 16.1803V15.752Z" fill="#FF5FA0"/>
<path d="M0 15.3213L23.5499 40H23.1413L0 15.752V15.3213Z" fill="#FF609F"/>
<path d="M0 14.8926L23.9608 39.9997H23.5499L0 15.3209V14.8926Z" fill="#FF619E"/>
<path d="M0 14.4648L24.3694 40.0002H23.9608L0 14.8932V14.4648Z" fill="#FF629D"/>
<path d="M0 14.0342L24.778 40.0002H24.3694L0 14.4648V14.0342Z" fill="#FF639C"/>
<path d="M0 13.6055L25.1889 39.9999H24.778L0 14.0338V13.6055Z" fill="#FF649B"/>
<path d="M0 13.1777L25.5975 40.0004H25.1889L0 13.6061V13.1777Z" fill="#FF659A"/>
<path d="M0 12.7471L26.0061 40.0004H25.5975L0 13.1777V12.7471Z" fill="#FF6699"/>
<path d="M0 12.3184L26.417 40H26.0061L0 12.7467V12.3184Z" fill="#FF6798"/>
<path d="M0 11.8896L26.8257 39.9997H26.417L0 12.318V11.8896Z" fill="#FF6897"/>
<path d="M0 11.4619L27.2343 40.0002H26.8257L0 11.8902V11.4619Z" fill="#FF6996"/>
<path d="M0 11.0312L27.6452 40.0002H27.2343L0 11.4619V11.0312Z" fill="#FF6A95"/>
<path d="M0 10.6025L28.0538 39.9998H27.6452L0 11.0309V10.6025Z" fill="#FF6B94"/>
<path d="M0 10.1748L28.4647 40.0004H28.0538L0 10.6031V10.1748Z" fill="#FF6C93"/>
<path d="M0 9.74414L28.8733 40.0004H28.4647L0 10.1748V9.74414Z" fill="#FF6E91"/>
<path d="M0 9.31543L29.2819 40H28.8733L0 9.74375V9.31543Z" fill="#FF6F90"/>
<path d="M0 8.88672L29.6928 39.9996H29.2819L0 9.31504V8.88672Z" fill="#FF708F"/>
<path d="M0 8.45605L30.1014 39.9996H29.6928L0 8.88672V8.45605Z" fill="#FF718E"/>
<path d="M0 8.02832L30.51 40.0002H30.1014L0 8.45664V8.02832Z" fill="#FF728D"/>
<path d="M0 7.59961L30.9209 39.9998H30.51L0 8.02793V7.59961Z" fill="#FF738C"/>
<path d="M0 7.17188L31.3295 40.0004H30.9209L0 7.6002V7.17188Z" fill="#FF748B"/>
<path d="M0 6.74121L31.7381 40.0004H31.3295L0 7.17187V6.74121Z" fill="#FF758A"/>
<path d="M0 6.3125L32.149 40H31.7381L0 6.74082V6.3125Z" fill="#FF7689"/>
<path d="M0 5.88379L32.5576 39.9996H32.149L0 6.31211V5.88379Z" fill="#FF7788"/>
<path d="M0 5.45312L32.9662 39.9996H32.5576L0 5.88379V5.45312Z" fill="#FF7887"/>
<path d="M0 5.02539L33.3771 40.0002H32.9662L0 5.45371V5.02539Z" fill="#FF7986"/>
<path d="M0 4.59668L33.7857 39.9998H33.3771L0 5.025V4.59668Z" fill="#FF7A85"/>
<path d="M0 4.16602L34.1943 39.9998H33.7857L0 4.59668V4.16602Z" fill="#FF7B84"/>
<path d="M0 3.73828L34.6052 40.0004H34.1943L0 4.1666V3.73828Z" fill="#FF7C83"/>
<path d="M0 3.30957L35.0138 40H34.6052L0 3.73789V3.30957Z" fill="#FF7D82"/>
<path d="M0 2.87891L35.4247 40H35.0138L0 3.30957V2.87891Z" fill="#FF7E81"/>
<path d="M0 2.4502L35.8333 39.9996H35.4247L0 2.87852V2.4502Z" fill="#FF7F80"/>
<path d="M0 2.02246L36.2419 40.0002H35.8333L0 2.45078V2.02246Z" fill="#FF807F"/>
<path d="M0 1.59375L36.6529 39.9998H36.242L0 2.02207V1.59375Z" fill="#FF817E"/>
<path d="M0 1.16309L37.0615 39.9998H36.6528L0 1.59375V1.16309Z" fill="#FF827D"/>
<path d="M0 0.735352L37.4701 40.0004H37.0615L0 1.16367V0.735352Z" fill="#FF837C"/>
<path d="M0 0.306641L37.881 40H37.4701L0 0.734961V0.306641Z" fill="#FF847B"/>
<path d="M0.117072 0L38.223 39.9298V40H37.881L0 0.306612V0H0.117072Z" fill="#FF857A"/>
<path d="M0.528089 0L38.2231 39.5015V39.9298L0.117188 0H0.528089Z" fill="#FF8679"/>
<path d="M0.936926 0L38.2233 39.0731V39.5015L0.52832 0H0.936926Z" fill="#FF8778"/>
<path d="M1.34513 0L38.2229 38.6425V39.0731L0.936523 0H1.34513Z" fill="#FF8877"/>
<path d="M1.75563 0L38.2225 38.2142V38.6425L1.34473 0H1.75563Z" fill="#FF8976"/>
<path d="M2.16447 0L38.2228 37.7858V38.2142L1.75586 0H2.16447Z" fill="#FF8A75"/>
<path d="M2.57364 0L38.2233 37.3552V37.7858L2.16504 0H2.57364Z" fill="#FF8B74"/>
<path d="M2.98414 0L38.2229 36.9269V37.3552L2.57324 0H2.98414Z" fill="#FF8C73"/>
<path d="M3.39298 0L38.2232 36.4985V36.9269L2.98438 0H3.39298Z" fill="#FF8D72"/>
<path d="M3.80118 0L38.2228 36.0679V36.4985L3.39258 0H3.80118Z" fill="#FF8E71"/>
<path d="M4.21266 0L38.2233 35.6396V36.0679L3.80176 0H4.21266Z" fill="#FF8F70"/>
<path d="M4.62052 0L38.2226 35.2112V35.6396L4.21191 0H4.62052Z" fill="#FF906F"/>
<path d="M5.0297 0L38.2232 34.7806V35.2112L4.62109 0H5.0297Z" fill="#FF916E"/>
<path d="M5.4402 0L38.2228 34.3523V34.7806L5.0293 0H5.4402Z" fill="#FF926D"/>
<path d="M5.84904 0L38.223 33.9239V34.3523L5.44043 0H5.84904Z" fill="#FF936C"/>
<path d="M6.25953 0L38.2226 33.4956V33.9239L5.84863 0H6.25953Z" fill="#FF946B"/>
<path d="M6.66837 0L38.2228 33.065V33.4956L6.25977 0H6.66837Z" fill="#FF956A"/>
<path d="M7.07755 0L38.2234 32.6366V33.065L6.66895 0H7.07755Z" fill="#FF9669"/>
<path d="M7.48805 0L38.223 32.2083V32.6366L7.07715 0H7.48805Z" fill="#FF9768"/>
<path d="M7.89689 0L38.2232 31.7777V32.2083L7.48828 0H7.89689Z" fill="#FF9867"/>
<path d="M8.30509 0L38.2228 31.3493V31.7776L7.89648 0H8.30509Z" fill="#FF9966"/>
<path d="M8.71657 0L38.2234 30.921V31.3493L8.30566 0H8.71657Z" fill="#FF9A65"/>
<path d="M9.12443 0L38.2227 30.4903V30.921L8.71582 0H9.12443Z" fill="#FF9B64"/>
<path d="M9.53361 0L38.2232 30.062V30.4903L9.125 0H9.53361Z" fill="#FF9C63"/>
<path d="M9.9441 0L38.2228 29.6337V30.062L9.5332 0H9.9441Z" fill="#FF9D62"/>
<path d="M10.3529 0L38.2231 29.2054V29.6337L9.94434 0H10.3529Z" fill="#FF9E61"/>
<path d="M10.7611 0L38.2227 28.7747V29.2054L10.3525 0H10.7611Z" fill="#FF9F60"/>
<path d="M11.1726 0L38.2232 28.3464V28.7747L10.7617 0H11.1726Z" fill="#FFA05F"/>
<path d="M11.5815 0L38.2235 27.9181V28.3464L11.1729 0H11.5815Z" fill="#FFA15E"/>
<path d="M11.992 0L38.2231 27.4874V27.9181L11.5811 0H11.992Z" fill="#FFA25D"/>
<path d="M12.4008 0L38.2233 27.0591V27.4874L11.9922 0H12.4008Z" fill="#FFA35C"/>
<path d="M12.809 0L38.2229 26.6308V27.0591L12.4004 0H12.809Z" fill="#FFA45B"/>
<path d="M13.2205 0L38.2235 26.2001V26.6308L12.8096 0H13.2205Z" fill="#FFA55A"/>
<path d="M13.6283 0L38.2227 25.7718V26.2001L13.2197 0H13.6283Z" fill="#FFA659"/>
<path d="M14.0375 0L38.2233 25.3435V25.7718L13.6289 0H14.0375Z" fill="#FFA758"/>
<path d="M14.448 0L38.2229 24.9128V25.3435L14.0371 0H14.448Z" fill="#FFA857"/>
<path d="M14.8568 0L38.2231 24.4845V24.9128L14.4482 0H14.8568Z" fill="#FFA956"/>
<path d="M15.2651 0L38.2227 24.0562V24.4845L14.8564 0H15.2651Z" fill="#FFAA55"/>
<path d="M15.6765 0L38.2233 23.6279V24.0562L15.2656 0H15.6765Z" fill="#FFAB54"/>
<path d="M16.0844 0L38.2226 23.1972V23.6279L15.6758 0H16.0844Z" fill="#FFAC53"/>
<path d="M16.4936 0L38.2231 22.7689V23.1972L16.085 0H16.4936Z" fill="#FFAD52"/>
<path d="M16.9041 0L38.2227 22.3406V22.7689L16.4932 0H16.9041Z" fill="#FFAE51"/>
<path d="M17.3129 0L38.223 21.9099V22.3406L16.9043 0H17.3129Z" fill="#FFAF50"/>
<path d="M17.7234 0L38.2226 21.4816V21.9099L17.3125 0H17.7234Z" fill="#FFB04F"/>
<path d="M18.1322 0L38.2228 21.0532V21.4816L17.7236 0H18.1322Z" fill="#FFB14E"/>
<path d="M18.5414 0L38.2234 20.6226V21.0532L18.1328 0H18.5414Z" fill="#FFB24D"/>
<path d="M18.9519 0L38.223 20.1943V20.6226L18.541 0H18.9519Z" fill="#FFB34C"/>
<path d="M19.3608 0L38.2232 19.7659V20.1943L18.9521 0H19.3608Z" fill="#FFB44B"/>
<path d="M19.769 0L38.2228 19.3376V19.7659L19.3604 0H19.769Z" fill="#FFB54A"/>
<path d="M20.1804 0L38.2234 18.907V19.3376L19.7695 0H20.1804Z" fill="#FFB649"/>
<path d="M20.5883 0L38.2226 18.4786V18.907L20.1797 0H20.5883Z" fill="#FFB748"/>
<path d="M20.9975 0L38.2232 18.0503V18.4786L20.5889 0H20.9975Z" fill="#FFB847"/>
<path d="M21.408 0L38.2228 17.6197V18.0503L20.9971 0H21.408Z" fill="#FFB946"/>
<path d="M21.8168 0L38.223 17.1913V17.6197L21.4082 0H21.8168Z" fill="#FFBA45"/>
<path d="M22.225 0L38.2226 16.763V17.1913L21.8164 0H22.225Z" fill="#FFBB44"/>
<path d="M22.6365 0L38.2232 16.3324V16.763L22.2256 0H22.6365Z" fill="#FFBC43"/>
<path d="M23.0453 0L38.2234 15.904V16.3324L22.6367 0H23.0453Z" fill="#FFBD42"/>
<path d="M23.4535 0L38.223 15.4757V15.904L23.0449 0H23.4535Z" fill="#FFBE41"/>
<path d="M23.864 0L38.2226 15.0474V15.4757L23.4531 0H23.864Z" fill="#FFBF40"/>
<path d="M24.2729 0L38.2228 14.6167V15.0474L23.8643 0H24.2729Z" fill="#FFC03F"/>
<path d="M24.6843 0L38.2234 14.1884V14.6167L24.2734 0H24.6843Z" fill="#FFC13E"/>
<path d="M25.0922 0L38.2227 13.7601V14.1884L24.6836 0H25.0922Z" fill="#FFC23D"/>
<path d="M25.5014 0L38.2232 13.3294V13.7601L25.0928 0H25.5014Z" fill="#FFC33C"/>
<path d="M25.9119 0L38.2228 12.9011V13.3294L25.501 0H25.9119Z" fill="#FFC43B"/>
<path d="M26.3207 0L38.2231 12.4728V12.9011L25.9121 0H26.3207Z" fill="#FFC53A"/>
<path d="M26.7289 0L38.2227 12.0421V12.4728L26.3203 0H26.7289Z" fill="#FFC639"/>
<path d="M27.1404 0L38.2232 11.6138V12.0421L26.7295 0H27.1404Z" fill="#FFC738"/>
<path d="M27.5492 0L38.2235 11.1855V11.6138L27.1406 0H27.5492Z" fill="#FFC837"/>
<path d="M27.9574 0L38.2231 10.7548V11.1855L27.5488 0H27.9574Z" fill="#FFC936"/>
<path d="M28.3679 0L38.2227 10.3265V10.7548L27.957 0H28.3679Z" fill="#FFCA35"/>
<path d="M28.7768 0L38.2229 9.89819V10.3265L28.3682 0H28.7768Z" fill="#FFCB34"/>
<path d="M29.1859 0L38.2235 9.46987V9.89819L28.7773 0H29.1859Z" fill="#FFCC33"/>
<path d="M29.5964 0L38.2231 9.0392V9.46987L29.1855 0H29.5964Z" fill="#FFCD32"/>
<path d="M30.0053 0L38.2233 8.61088V9.0392L29.5967 0H30.0053Z" fill="#FFCE31"/>
<path d="M30.4158 0L38.2229 8.18256V8.61088L30.0049 0H30.4158Z" fill="#FFCF30"/>
<path d="M30.8246 0L38.2231 7.7519V8.18256L30.416 0H30.8246Z" fill="#FFD02F"/>
<path d="M31.2328 0L38.2227 7.32358V7.7519L30.8242 0H31.2328Z" fill="#FFD12E"/>
<path d="M31.6443 0L38.2233 6.89526V7.32358L31.2334 0H31.6443Z" fill="#FFD22D"/>
<path d="M32.0522 0L38.2226 6.4646V6.89526L31.6436 0H32.0522Z" fill="#FFD32C"/>
<path d="M32.4613 0L38.2231 6.03628V6.4646L32.0527 0H32.4613Z" fill="#FFD42B"/>
<path d="M32.8718 0L38.2227 5.60796V6.03628L32.4609 0H32.8718Z" fill="#FFD52A"/>
<path d="M33.2807 0L38.223 5.17964V5.60796L32.8721 0H33.2807Z" fill="#FFD629"/>
<path d="M33.6889 0L38.2226 4.74898V5.17964L33.2803 0H33.6889Z" fill="#FFD728"/>
<path d="M34.1004 0L38.2231 4.32066V4.74898L33.6895 0H34.1004Z" fill="#FFD827"/>
<path d="M34.5092 0L38.2234 3.89233V4.32066L34.1006 0H34.5092Z" fill="#FFD926"/>
<path d="M34.9174 0L38.223 3.46167V3.89233L34.5088 0H34.9174Z" fill="#FFDA25"/>
<path d="M35.3279 0L38.2226 3.03335V3.46167L34.917 0H35.3279Z" fill="#FFDB24"/>
<path d="M35.7367 0L38.2228 2.60503V3.03335L35.3281 0H35.7367Z" fill="#FFDC23"/>
<path d="M36.1459 0L38.2234 2.17437V2.60503L35.7373 0H36.1459Z" fill="#FFDD22"/>
<path d="M36.5564 0L38.223 1.74605V2.17437L36.1455 0H36.5564Z" fill="#FFDE21"/>
<path d="M36.9652 0L38.2232 1.31773V1.74605L36.5566 0H36.9652Z" fill="#FFDF20"/>
<path d="M37.3757 0L38.2228 0.887068V1.31773L36.9648 0H37.3757Z" fill="#FFE01F"/>
<path d="M37.7846 0L38.223 0.458748V0.887068L37.376 0H37.7846Z" fill="#FFE11E"/>
<path d="M38.1928 0L38.2226 0.0304271V0.458748L37.7842 0H38.1928Z" fill="#FFE21D"/>
</g>
</g>
<mask id="mask2_51_3731" style="mask-type:luminance" maskUnits="userSpaceOnUse" x="23" y="4" width="5" height="4">
<path d="M24.1013 4.81442C24.5925 4.31355 25.6164 4.5476 26.39 5.33637C27.1636 6.12513 27.3908 7.16902 26.9019 7.66989C26.4106 8.17077 25.3868 7.93672 24.6132 7.14795C23.8396 6.35919 23.6124 5.3153 24.1013 4.81442Z" fill="white"/>
</mask>
<g mask="url(#mask2_51_3731)">
<mask id="mask3_51_3731" style="mask-type:luminance" maskUnits="userSpaceOnUse" x="23" y="4" width="5" height="5">
<path d="M27.3911 4.31348H23.6104V8.16836H27.3911V4.31348Z" fill="white"/>
</mask>
<g mask="url(#mask3_51_3731)">
<path d="M23.6104 7.87109L23.8973 8.17068H23.6104V7.87109Z" fill="#FFA956"/>
<path d="M23.6104 7.44238L24.3059 8.17029H23.8973L23.6104 7.8707V7.44238Z" fill="#FFAA55"/>
<path d="M23.6104 7.01172L24.7145 8.17029H24.3059L23.6104 7.44238V7.01172Z" fill="#FFAB54"/>
<path d="M23.6104 6.58398L25.1254 8.17088H24.7145L23.6104 7.01231V6.58398Z" fill="#FFAC53"/>
<path d="M23.6104 6.15527L25.534 8.17049H25.1254L23.6104 6.58359V6.15527Z" fill="#FFAD52"/>
<path d="M23.6104 5.72461L25.9426 8.17048H25.534L23.6104 6.15527V5.72461Z" fill="#FFAE51"/>
<path d="M23.6104 5.29688L26.3535 8.17107H25.9426L23.6104 5.7252V5.29688Z" fill="#FFAF50"/>
<path d="M23.6104 4.86816L26.7621 8.17068H26.3535L23.6104 5.29648V4.86816Z" fill="#FFB04F"/>
<path d="M23.6104 4.4375L27.1707 8.17068H26.7621L23.6104 4.86816V4.4375Z" fill="#FFB14E"/>
<path d="M23.9019 4.31348L27.3934 7.97176V8.1707H27.1707L23.6104 4.43753V4.31348H23.9019Z" fill="#FFB24D"/>
<path d="M24.3109 4.31348L27.3939 7.54344V7.97176L23.9023 4.31348H24.3109Z" fill="#FFB34C"/>
<path d="M24.7214 4.31348L27.3935 7.11277V7.54344L24.3105 4.31348H24.7214Z" fill="#FFB44B"/>
<path d="M25.1303 4.31348L27.3937 6.68445V7.11277L24.7217 4.31348H25.1303Z" fill="#FFB54A"/>
<path d="M25.5385 4.31348L27.3933 6.25613V6.68445L25.1299 4.31348H25.5385Z" fill="#FFB649"/>
<path d="M25.95 4.31348L27.3939 5.82781V6.25613L25.5391 4.31348H25.95Z" fill="#FFB748"/>
<path d="M26.3578 4.31348L27.3931 5.39715V5.82781L25.9492 4.31348H26.3578Z" fill="#FFB847"/>
<path d="M26.767 4.31348L27.3937 4.96883V5.39715L26.3584 4.31348H26.767Z" fill="#FFB946"/>
<path d="M27.1775 4.31348L27.3933 4.54051V4.96883L26.7666 4.31348H27.1775Z" fill="#FFBA45"/>
</g>
</g>
<path d="M48.8263 17.1656L48.8538 19.1036L61.4426 18.8508C61.8282 18.8321 62.0761 18.907 62.1863 19.0755C62.2965 19.244 62.3516 19.5436 62.3516 19.9743V21.6595C62.3516 22.0901 62.2965 22.385 62.1863 22.5442C62.0761 22.7033 61.8282 22.7829 61.4426 22.7829L55.7129 22.8953V24.2434L61.8007 24.1311C62.1312 24.1311 62.3654 24.1873 62.5031 24.2996C62.6408 24.4119 62.7097 24.6273 62.7097 24.9456V27.3049C62.7097 27.6232 62.6408 27.8385 62.5031 27.9509C62.3654 28.0632 62.1312 28.1194 61.8007 28.1194L44.9422 28.4002C44.6117 28.4002 44.3775 28.3441 44.2398 28.2317C44.1021 28.1194 44.0332 27.904 44.0332 27.5857V25.2265C44.0332 24.9081 44.1021 24.6928 44.2398 24.5805C44.3775 24.4681 44.6117 24.4119 44.9422 24.4119L51.03 24.3277V22.9795L45.4381 23.0638C45.0524 23.0638 44.7861 22.9608 44.6392 22.7548C44.4923 22.5489 44.4097 22.2306 44.3913 21.7999L44.1434 14.5536C44.125 14.0667 44.1939 13.7344 44.35 13.5565C44.5061 13.3786 44.7861 13.2897 45.1902 13.2897L61.6629 13.0088C62.0669 13.0088 62.3195 13.0743 62.4205 13.2054C62.5215 13.3365 62.572 13.6454 62.572 14.1323V15.7613C62.572 16.2481 62.5215 16.5524 62.4205 16.6741C62.3195 16.7958 62.0669 16.866 61.6629 16.8847L48.8263 17.1656ZM53.3714 40C52.1227 40 51.0392 39.8596 50.121 39.5787C49.2028 39.2978 48.4498 38.914 47.8622 38.4272C47.2745 37.9403 46.8383 37.3692 46.5537 36.7139C46.2691 36.0585 46.1267 35.3564 46.1267 34.6074C46.1267 33.8584 46.2691 33.1562 46.5537 32.5009C46.8383 31.8455 47.2745 31.2744 47.8622 30.7876C48.4498 30.3008 49.2028 29.9169 50.121 29.6361C51.0392 29.3552 52.1227 29.2148 53.3714 29.2148C54.6202 29.2148 55.7267 29.3552 56.6357 29.6361C57.5447 29.9169 58.2931 30.3008 58.8807 30.7876C59.4684 31.2744 59.9046 31.8455 60.1892 32.5009C60.4738 33.1562 60.6162 33.8584 60.6162 34.6074C60.6162 35.3564 60.4738 36.0585 60.1892 36.7139C59.9046 37.3692 59.4684 37.9403 58.8807 38.4272C58.2931 38.914 57.5447 39.2978 56.6357 39.5787C55.7267 39.8596 54.6386 40 53.3714 40ZM53.3714 36.5734C54.3448 36.5734 55.038 36.3815 55.4512 35.9977C55.8644 35.6138 56.071 35.1504 56.071 34.6074C56.071 34.0644 55.8644 33.6009 55.4512 33.2171C55.038 32.8332 54.3448 32.6413 53.3714 32.6413C52.3981 32.6413 51.7049 32.8332 51.2917 33.2171C50.8785 33.6009 50.6719 34.0644 50.6719 34.6074C50.6719 35.1504 50.8785 35.6138 51.2917 35.9977C51.7049 36.3815 52.3981 36.5734 53.3714 36.5734Z" fill="#FF7887"/>
<path d="M77.75 26.9678V27.9789L83.094 27.8666C83.5164 27.8666 83.8056 27.9368 83.9617 28.0773C84.1178 28.2177 84.1775 28.5032 84.1408 28.9339L83.8929 33.5963C83.8561 34.0082 83.7781 34.2797 83.6587 34.4108C83.5394 34.5419 83.2685 34.6167 82.8461 34.6355L71.9928 35.141V36.2364L82.6257 35.9555C82.9563 35.9368 83.1813 35.993 83.3006 36.1241C83.42 36.2551 83.4797 36.4798 83.4797 36.7981V38.3148C83.4797 38.6331 83.42 38.8485 83.3006 38.9608C83.1813 39.0732 82.9563 39.1293 82.6257 39.1293L68.4669 39.4102C68.0445 39.4289 67.769 39.3634 67.6405 39.2136C67.5119 39.0638 67.4385 38.7736 67.4201 38.3429L67.2548 33.6524C67.2364 33.2218 67.3007 32.9362 67.4476 32.7958C67.5945 32.6554 67.8792 32.5758 68.3016 32.5571L79.3477 32.0234V31.0123L67.4201 31.2932C67.1446 31.2932 66.9564 31.2651 66.8554 31.2089C66.7544 31.1527 66.7039 31.031 66.7039 30.8438V28.653C66.7039 28.4471 66.7544 28.3113 66.8554 28.2458C66.9564 28.1802 67.1446 28.1475 67.4201 28.1475L73.0671 28.0632V27.0521L66.9793 27.1363C66.6488 27.1363 66.4146 27.0802 66.2769 26.9678C66.1392 26.8555 66.0703 26.6402 66.0703 26.3218V24.4119C66.0703 24.0936 66.1392 23.8783 66.2769 23.766C66.4146 23.6536 66.6488 23.5974 66.9793 23.5974L83.8378 23.3166C84.1683 23.3166 84.4025 23.3727 84.5402 23.4851C84.6779 23.5974 84.7468 23.8128 84.7468 24.1311V26.041C84.7468 26.3593 84.6779 26.5746 84.5402 26.687C84.4025 26.7993 84.1683 26.8555 83.8378 26.8555L77.75 26.9678ZM83.5899 13.0088C83.9939 13.0088 84.2739 13.0977 84.43 13.2756C84.5861 13.4535 84.655 13.7859 84.6366 14.2727L84.3887 20.9573C84.3703 21.388 84.2877 21.7063 84.1408 21.9122C83.9939 22.1182 83.7276 22.2212 83.3419 22.2212L67.4752 22.5021C67.0895 22.5021 66.8232 22.3991 66.6763 22.1931C66.5294 21.9871 66.4468 21.6688 66.4284 21.2382L66.1805 14.5536C66.1621 14.0667 66.231 13.7344 66.3871 13.5565C66.5432 13.3786 66.8232 13.2897 67.2273 13.2897L83.5899 13.0088ZM79.9262 18.6542V16.6881L70.8634 16.8567L70.8909 18.8227L79.9262 18.6542Z" fill="#FF7887"/>
<path d="M99.787 29.2155V30.985L105.599 30.8726C105.93 30.8726 106.164 30.9288 106.302 31.0412C106.44 31.1535 106.508 31.3688 106.508 31.6871V34.3273C106.508 34.6456 106.44 34.8609 106.302 34.9733C106.164 35.0856 105.93 35.1418 105.599 35.1418L89.2919 35.4227C88.9613 35.4227 88.7271 35.3665 88.5894 35.2541C88.4517 35.1418 88.3828 34.9265 88.3828 34.6082V31.968C88.3828 31.6497 88.4517 31.4344 88.5894 31.322C88.7271 31.2097 88.9613 31.1535 89.2919 31.1535L95.1041 31.0692V29.2998L89.65 29.384C89.2643 29.384 88.998 29.2811 88.8511 29.0751C88.7042 28.8691 88.6216 28.5508 88.6032 28.1201L88.4104 15.1161C88.392 14.6292 88.4609 14.2969 88.617 14.119C88.7731 13.9411 89.0531 13.8522 89.4571 13.8522H92.0465C92.4321 13.8522 92.703 13.9411 92.8591 14.119C93.0152 14.2969 93.0933 14.6292 93.0933 15.1161V17.7843L101.605 17.5877L101.66 14.8352C101.66 14.3484 101.738 14.016 101.894 13.8381C102.05 13.6602 102.321 13.5713 102.707 13.5713H105.296C105.7 13.5713 105.98 13.6602 106.136 13.8381C106.293 14.016 106.361 14.3484 106.343 14.8352L105.957 27.8393C105.939 28.2699 105.856 28.5883 105.71 28.7942C105.563 29.0002 105.296 29.1032 104.911 29.1032L99.787 29.2155ZM101.522 24.9744L101.55 21.7164L93.1208 21.913V25.1149L101.522 24.9744Z" fill="#FF7887"/>
<path d="M111.164 18.2614C110.833 18.2614 110.599 18.2052 110.461 18.0929C110.324 17.9805 110.255 17.7652 110.255 17.4469V15.228C110.255 14.9097 110.324 14.6944 110.461 14.5821C110.599 14.4697 110.833 14.4135 111.164 14.4135L117.086 14.3293V13.1496C117.086 12.6628 117.164 12.3304 117.321 12.1526C117.477 11.9747 117.748 11.8857 118.133 11.8857H120.778C121.182 11.8857 121.457 11.9747 121.604 12.1526C121.751 12.3304 121.824 12.6628 121.824 13.1496V14.245L127.747 14.1327C128.077 14.1327 128.312 14.1888 128.449 14.3012C128.587 14.4135 128.656 14.6289 128.656 14.9472V17.166C128.656 17.4843 128.587 17.6997 128.449 17.812C128.312 17.9244 128.077 17.9805 127.747 17.9805L111.164 18.2614ZM111.219 24.4685C111.219 23.7196 111.38 23.0221 111.701 22.3761C112.022 21.7301 112.518 21.1637 113.189 20.6768C113.859 20.19 114.717 19.8062 115.764 19.5253C116.811 19.2444 118.051 19.104 119.483 19.104C120.915 19.104 122.155 19.2444 123.202 19.5253C124.248 19.8062 125.107 20.19 125.777 20.6768C126.448 21.1637 126.943 21.7301 127.265 22.3761C127.586 23.0221 127.747 23.7196 127.747 24.4685C127.747 25.7605 127.274 26.8793 126.328 27.8249C125.382 28.7705 123.881 29.3931 121.824 29.6926V30.9846L127.637 30.8723C127.967 30.8723 128.201 30.9285 128.339 31.0408C128.477 31.1531 128.546 31.3685 128.546 31.6868V34.3269C128.546 34.6453 128.477 34.8606 128.339 34.9729C128.201 35.0853 127.967 35.1414 127.637 35.1414L111.329 35.4223C110.999 35.4223 110.764 35.3661 110.627 35.2538C110.489 35.1414 110.42 34.9261 110.42 34.6078V31.9677C110.42 31.6493 110.489 31.434 110.627 31.3217C110.764 31.2093 110.999 31.1532 111.329 31.1532L117.141 31.0689V29.6926C115.085 29.3931 113.583 28.7705 112.638 27.8249C111.692 26.8793 111.219 25.7605 111.219 24.4685ZM119.483 26.4065C120.401 26.4065 121.159 26.252 121.756 25.9431C122.352 25.6341 122.651 25.1426 122.651 24.4685C122.651 23.7945 122.352 23.3029 121.756 22.994C121.159 22.685 120.401 22.5306 119.483 22.5306C118.565 22.5306 117.807 22.685 117.21 22.994C116.614 23.3029 116.315 23.7945 116.315 24.4685C116.315 25.1426 116.614 25.6341 117.21 25.9431C117.807 26.252 118.565 26.4065 119.483 26.4065Z" fill="#FF7887"/>
<path d="M131.521 26.575C131.337 26.4065 131.263 26.238 131.3 26.0694C131.337 25.9009 131.456 25.7137 131.658 25.5077L134.991 22.0811C135.212 21.8565 135.34 21.5943 135.377 21.2947C135.414 20.9951 135.432 20.6768 135.432 20.3398V14.5539C135.432 14.0671 135.51 13.7347 135.666 13.5569C135.822 13.379 136.093 13.29 136.479 13.29H139.068C139.454 13.29 139.725 13.379 139.881 13.5569C140.037 13.7347 140.115 14.0671 140.115 14.5539V20.3398C140.115 20.6768 140.133 20.9998 140.17 21.3088C140.207 21.6177 140.335 21.8752 140.556 22.0811L143.889 25.2268C144.33 25.6201 144.376 25.9758 144.027 26.2941L141.988 28.3445C141.786 28.5504 141.598 28.644 141.424 28.6253C141.249 28.6066 141.061 28.5036 140.859 28.3164L137.774 25.4796L134.716 28.5972C134.349 28.9717 133.972 28.9811 133.587 28.6253L131.521 26.575ZM137.606 39.4106C137.202 39.4293 136.927 39.345 136.78 39.1578C136.633 38.9706 136.559 38.6335 136.559 38.1467V31.125C136.559 30.6382 136.637 30.3058 136.793 30.128C136.95 29.9501 137.22 29.8611 137.606 29.8611H140.195C140.599 29.8611 140.875 29.9501 141.022 30.128C141.169 30.3058 141.242 30.6382 141.242 31.125V35.0852L152.674 34.8605C153.005 34.8418 153.229 34.9074 153.349 35.0572C153.468 35.207 153.528 35.4691 153.528 35.8436V38.1467C153.528 38.5212 153.468 38.7739 153.349 38.905C153.229 39.0361 152.986 39.111 152.619 39.1297L137.606 39.4106ZM145.374 22.1373L143.005 22.2216C142.675 22.2403 142.44 22.1888 142.303 22.0671C142.165 21.9454 142.096 21.7254 142.096 21.4071V18.7669C142.096 18.4486 142.165 18.238 142.303 18.135C142.44 18.032 142.675 17.9711 143.005 17.9524L145.374 17.8682V15.1157C145.374 14.6288 145.452 14.2965 145.608 14.1186C145.764 13.9407 146.035 13.8518 146.421 13.8518H149.01C149.414 13.8518 149.69 13.9407 149.837 14.1186C149.984 14.2965 150.057 14.6288 150.057 15.1157V28.7658C150.057 29.2526 149.984 29.585 149.837 29.7628C149.69 29.9407 149.414 30.0297 149.01 30.0297H146.421C146.035 30.0297 145.764 29.9407 145.608 29.7628C145.452 29.585 145.374 29.2526 145.374 28.7658V22.1373ZM151.379 14.8348C151.379 14.348 151.457 14.0156 151.613 13.8377C151.77 13.6598 152.04 13.5709 152.426 13.5709H155.015C155.419 13.5709 155.695 13.6598 155.842 13.8377C155.989 14.0156 156.062 14.348 156.062 14.8348V28.4849C156.062 28.9717 155.989 29.3041 155.842 29.482C155.695 29.6598 155.419 29.7488 155.015 29.7488H152.426C152.04 29.7488 151.77 29.6598 151.613 29.482C151.457 29.3041 151.379 28.9717 151.379 28.4849V14.8348Z" fill="#FF7887"/>
<path d="M158.651 14.6665C158.651 14.3482 158.72 14.1375 158.858 14.0346C158.996 13.9316 159.23 13.8707 159.56 13.852L171.571 13.5711C171.901 13.5524 172.135 13.6039 172.273 13.7256C172.411 13.8473 172.48 14.0673 172.48 14.3856V17.11C172.48 17.4284 172.411 17.639 172.273 17.742C172.135 17.845 171.901 17.9058 171.571 17.9246L163.472 18.0931L163.5 21.969L169.45 21.8286C169.78 21.8286 170.014 21.8848 170.152 21.9971C170.29 22.1095 170.359 22.3248 170.359 22.6431V25.2832C170.359 25.6016 170.29 25.8169 170.152 25.9292C170.014 26.0416 169.78 26.0978 169.45 26.0978L163.555 26.2382L163.61 30.5073L170.992 30.3388C171.323 30.3201 171.557 30.3716 171.695 30.4933C171.832 30.615 171.901 30.835 171.901 31.1533V33.7092C171.901 34.0275 171.832 34.2382 171.695 34.3412C171.557 34.4442 171.323 34.505 170.992 34.5237L159.974 34.8046C159.57 34.8233 159.299 34.7391 159.161 34.5518C159.023 34.3646 158.945 34.0275 158.927 33.5407L158.651 14.6665ZM175.317 15.3968C175.317 14.9099 175.395 14.5776 175.551 14.3997C175.707 14.2218 175.978 14.1329 176.364 14.1329H178.953C179.357 14.1329 179.633 14.2218 179.779 14.3997C179.926 14.5776 180 14.9099 180 15.3968V32.6981C180 33.1849 179.926 33.5173 179.779 33.6952C179.633 33.8731 179.357 33.962 178.953 33.962H176.364C175.978 33.962 175.707 33.8731 175.551 33.6952C175.395 33.5173 175.317 33.1849 175.317 32.6981V25.8169L172.755 25.8731C172.425 25.8918 172.19 25.8403 172.053 25.7186C171.915 25.5969 171.846 25.3769 171.846 25.0585V22.4184C171.846 22.1001 171.915 21.8894 172.053 21.7865C172.19 21.6835 172.425 21.6226 172.755 21.6039L175.317 21.5477V15.3968Z" fill="#FF7887"/>
</svg>
