<svg width="71" height="71" viewBox="0 0 71 71" fill="none" xmlns="http://www.w3.org/2000/svg">
<g filter="url(#filter0_d_149_516)">
<rect x="13" y="13.0576" width="50" height="50" rx="10" transform="rotate(-0.0653663 13 13.0576)" fill="#FF7887"/>
</g>
<mask id="mask0_149_516" style="mask-type:alpha" maskUnits="userSpaceOnUse" x="30" y="19" width="17" height="17">
<rect x="30.0283" y="19.0303" width="16" height="16" fill="#D9D9D9"/>
</mask>
<g mask="url(#mask0_149_516)">
<path d="M37.3617 24.2462L34.0951 27.5128C33.9617 27.6462 33.8062 27.71 33.6284 27.7045C33.4506 27.6989 33.2951 27.6295 33.1617 27.4962C33.0395 27.3628 32.9756 27.2073 32.9701 27.0295C32.9645 26.8517 33.0284 26.6962 33.1617 26.5628L37.5617 22.1628C37.6284 22.0962 37.7006 22.0489 37.7784 22.0212C37.8562 21.9934 37.9395 21.9795 38.0284 21.9795C38.1173 21.9795 38.2006 21.9934 38.2784 22.0212C38.3562 22.0489 38.4284 22.0962 38.4951 22.1628L42.8951 26.5628C43.0173 26.685 43.0784 26.8378 43.0784 27.0212C43.0784 27.2045 43.0173 27.3628 42.8951 27.4962C42.7617 27.6295 42.6034 27.6962 42.4201 27.6962C42.2367 27.6962 42.0784 27.6295 41.9451 27.4962L38.6951 24.2462V31.6962C38.6951 31.885 38.6312 32.0434 38.5034 32.1712C38.3756 32.2989 38.2173 32.3628 38.0284 32.3628C37.8395 32.3628 37.6812 32.2989 37.5534 32.1712C37.4256 32.0434 37.3617 31.885 37.3617 31.6962V24.2462Z" fill="white"/>
</g>
<path d="M28.4056 45.2883H26.0116C25.8156 45.2883 25.6709 45.2509 25.5776 45.1763C25.4843 45.1016 25.4376 44.9663 25.4376 44.7703V43.6783C25.4376 43.4823 25.4843 43.3469 25.5776 43.2723C25.6709 43.1976 25.8156 43.1603 26.0116 43.1603H33.2916C33.4876 43.1603 33.6323 43.1976 33.7256 43.2723C33.8189 43.3469 33.8656 43.4823 33.8656 43.6783V44.7703C33.8656 44.9663 33.8189 45.1016 33.7256 45.1763C33.6323 45.2509 33.4876 45.2883 33.2916 45.2883H30.7856L30.8836 52.8203C30.8836 53.0629 30.8463 53.2263 30.7716 53.3103C30.6969 53.4036 30.5569 53.4503 30.3516 53.4503H29.0356C28.8396 53.4503 28.6996 53.4036 28.6156 53.3103C28.5409 53.2263 28.5036 53.0629 28.5036 52.8203L28.4056 45.2883ZM41.2354 48.3123C41.2354 47.8083 41.1794 47.3649 41.0674 46.9823C40.9554 46.5996 40.8061 46.2776 40.6194 46.0163C40.4234 45.7643 40.1947 45.5776 39.9334 45.4563C39.6721 45.3256 39.3921 45.2603 39.0934 45.2603C38.7947 45.2603 38.5147 45.3256 38.2534 45.4563C37.9921 45.5776 37.7681 45.7643 37.5814 46.0163C37.3854 46.2776 37.2314 46.5996 37.1194 46.9823C37.0074 47.3649 36.9514 47.8083 36.9514 48.3123C36.9514 48.8163 37.0074 49.2596 37.1194 49.6423C37.2314 50.0249 37.3854 50.3423 37.5814 50.5943C37.7681 50.8463 37.9921 51.0376 38.2534 51.1683C38.5147 51.2896 38.7947 51.3503 39.0934 51.3503C39.3921 51.3503 39.6721 51.2896 39.9334 51.1683C40.1947 51.0376 40.4234 50.8463 40.6194 50.5943C40.8061 50.3423 40.9554 50.0249 41.0674 49.6423C41.1794 49.2596 41.2354 48.8163 41.2354 48.3123ZM43.6854 48.3123C43.6854 49.1243 43.5594 49.8569 43.3074 50.5103C43.0647 51.1636 42.7334 51.7189 42.3134 52.1763C41.8934 52.6336 41.4034 52.9836 40.8434 53.2263C40.2927 53.4689 39.7094 53.5903 39.0934 53.5903C38.4774 53.5903 37.8894 53.4689 37.3294 53.2263C36.7787 52.9836 36.2934 52.6336 35.8734 52.1763C35.4534 51.7189 35.1174 51.1636 34.8654 50.5103C34.6227 49.8569 34.5014 49.1196 34.5014 48.2983C34.5014 47.4863 34.6227 46.7536 34.8654 46.1003C35.1174 45.4469 35.4534 44.8916 35.8734 44.4343C36.2934 43.9769 36.7787 43.6269 37.3294 43.3843C37.8894 43.1416 38.4774 43.0203 39.0934 43.0203C39.7094 43.0203 40.2927 43.1463 40.8434 43.3983C41.4034 43.6409 41.8934 43.9909 42.3134 44.4483C42.7334 44.9056 43.0647 45.4609 43.3074 46.1143C43.5594 46.7676 43.6854 47.5003 43.6854 48.3123ZM50.09 46.5903C50.09 46.3569 50.034 46.1469 49.922 45.9603C49.8193 45.7643 49.656 45.6056 49.432 45.4843C49.208 45.3629 48.9186 45.2789 48.564 45.2323C48.2186 45.1856 47.8033 45.1856 47.318 45.2323L47.36 48.3123C48.3026 48.2843 48.9933 48.1069 49.432 47.7803C49.8706 47.4536 50.09 47.0569 50.09 46.5903ZM44.868 44.3503C44.8586 44.1636 44.854 44.0143 44.854 43.9023C44.8633 43.7809 44.8913 43.6829 44.938 43.6083C44.9753 43.5429 45.0453 43.4916 45.148 43.4543C45.26 43.4076 45.414 43.3563 45.61 43.3003C46.002 43.1976 46.4453 43.1229 46.94 43.0763C47.4346 43.0296 47.9386 43.0203 48.452 43.0483C48.956 43.0856 49.4506 43.1743 49.936 43.3143C50.4213 43.4449 50.8553 43.6409 51.238 43.9023C51.6206 44.1636 51.924 44.4949 52.148 44.8963C52.3813 45.2976 52.498 45.7783 52.498 46.3383C52.498 47.0569 52.344 47.6729 52.036 48.1863C51.7373 48.6996 51.3453 49.1243 50.86 49.4603C50.3746 49.7963 49.824 50.0483 49.208 50.2163C48.6013 50.3749 47.9946 50.4683 47.388 50.4963L47.43 52.8203C47.4393 53.0629 47.402 53.2263 47.318 53.3103C47.2433 53.4036 47.1033 53.4503 46.898 53.4503H45.694C45.498 53.4503 45.3626 53.4036 45.288 53.3103C45.2133 53.2263 45.1713 53.0629 45.162 52.8203L44.868 44.3503Z" fill="white"/>
<defs>
<filter id="filter0_d_149_516" x="0.0117188" y="0.0117188" width="70.0342" height="70.0342" filterUnits="userSpaceOnUse" color-interpolation-filters="sRGB">
<feFlood flood-opacity="0" result="BackgroundImageFix"/>
<feColorMatrix in="SourceAlpha" type="matrix" values="0 0 0 0 0 0 0 0 0 0 0 0 0 0 0 0 0 0 127 0" result="hardAlpha"/>
<feOffset dx="-3" dy="-3"/>
<feGaussianBlur stdDeviation="5"/>
<feComposite in2="hardAlpha" operator="out"/>
<feColorMatrix type="matrix" values="0 0 0 0 0 0 0 0 0 0 0 0 0 0 0 0 0 0 0.1 0"/>
<feBlend mode="normal" in2="BackgroundImageFix" result="effect1_dropShadow_149_516"/>
<feBlend mode="normal" in="SourceGraphic" in2="effect1_dropShadow_149_516" result="shape"/>
</filter>
</defs>
</svg>
